
<svg xmlns="http://www.w3.org/2000/svg" version="1.1" xmlns:xlink="http://www.w3.org/1999/xlink" preserveAspectRatio="none" x="0px" y="0px" width="92px" height="145px" viewBox="0 0 92 145">
<defs>
<g id="Layer0_0_FILL">
<path fill="#000000" stroke="none" d="
M 87.25 68.15
Q 92.4 58.5 92.4 46.75 92.4 27.7 78.95 14.25 65.5 0.8 46.5 0.8 27.45 0.8 14 14.25 0.55 27.7 0.55 46.75 0.55 58.75 6.85 70.55 28.2 106 46.4 144.75 63.65 109.65 87.25 68.15
M 46.5 31.6
Q 52.8 31.6 57.25 36.05 61.7 40.5 61.7 46.8 61.7 50.7 59.85 54.1 58.85 55.9 57.25 57.5 52.8 62 46.5 62 40.2 62 35.8 57.5 31.35 53.05 31.35 46.8 31.35 40.5 35.8 36.05 40.2 31.6 46.5 31.6 Z"/>

<path fill="#FCFCFC" stroke="none" d="
M 57.25 36.05
Q 52.8 31.6 46.5 31.6 40.2 31.6 35.8 36.05 31.35 40.5 31.35 46.8 31.35 53.05 35.8 57.5 40.2 62 46.5 62 52.8 62 57.25 57.5 58.85 55.9 59.85 54.1 61.7 50.7 61.7 46.8 61.7 40.5 57.25 36.05 Z"/>
</g>
</defs>

<g transform="matrix( 1, 0, 0, 1, 0,0) ">
<use xlink:href="#Layer0_0_FILL"/>
</g>
</svg>
