
<svg xmlns="http://www.w3.org/2000/svg" version="1.1" xmlns:xlink="http://www.w3.org/1999/xlink" preserveAspectRatio="none" x="0px" y="0px" width="98px" height="43px" viewBox="0 0 98 43">
<defs>
<linearGradient id="Gradient_1" gradientUnits="userSpaceOnUse" x1="109.65" y1="46.4375" x2="109.65" y2="-5.337500000000002" spreadMethod="pad">
<stop  offset="0%" stop-color="#021722"/>

<stop  offset="100%" stop-color="#1E88BB"/>
</linearGradient>

<filter id="Filter_1" x="-20.987266139994652%" y="-40.34274079358988%" width="141.97453227998932%" height="180.68548158717977%" color-interpolation-filters="sRGB">
<feFlood flood-color="#FFFFFF" flood-opacity="0.6" in="SourceGraphic" result="result1"/>

<feGaussianBlur in="SourceGraphic" stdDeviation="1.6666666666666667,1.6666666666666667" result="result2"/>

<feComposite in2="result2" in="result1" operator="in" result="result3"/>

<feComposite in2="result3" in="SourceGraphic" operator="over" result="result4"/>
</filter>

<g id="Duplicate_Items_Folder_shape_14_0_Layer0_0_FILL">
<path fill="url(#Gradient_1)" stroke="none" d="
M 149.75 -0.45
L 67.55 -0.45
Q 60.3 -0.05 60 7.15
L 60 34.15
Q 60.1 41 67.4 41.55
L 149.9 41.55
Q 157.25 41.05 157.3 34.15
L 157.3 7.15
Q 156.9 -0.05 149.75 -0.45 Z"/>
</g>

<g id="AAgebadhen_0_Layer0_0_FILL">
<path fill="#CCCCCC" stroke="none" d="
M 31.15 8.7
Q 31.45 9.2 31.85 10.2 32.2296875 11.04375 32.7 12.35
L 11.55 12.35 12.35 14 15.9 14 15.9 18.7
Q 15.65 19 14.8 19.35 13.95 19.75 13.45 19.75 11.8 19.75 9.8 18.2 10.4 17.9 10.75 17.3 11.15 16.7 11.15 16.1 11.15 15.45 10.85 14.85 10.6 14.25 9.85 13.55 9.1 12.85 8.2 12.5 7.35 12.1 6.8 12.1 6.15 12.1 5.3 12.4 4.4 12.65 3.55 13.1
L 4.1 14.35
Q 4.35 14.7 4.6 14.7 5.4 14.25 6.25 13.8 7.1 13.4 7.85 13.4 8.6 13.4 9.1 13.85 9.6 14.35 9.6 15.2 9.6 16.1 8.9 16.85 8.35 17.4 8 17.4 7.8 17.4 6.85 17.55 5.9 17.65 5.65 17.65 5.15 17.65 5.15 18.2 5.15 18.45 5.95 19.2 6.35 19.6 6.5 19.6 6.7 19.6 7.65 19.25 8.15 19.05 9 18.75 9.7 18.95 10.1 19.5 10.55 20.05 10.55 20.9 10.55 22.05 9.75 22.9 8.95 23.75 7.75 23.75 6.2 23.75 5.05 22.65 3.9 21.6 2.9 19.3
L 2.1 19.75
Q 3.35 22.5 4.9 23.95 6.4 25.35 8.2 25.35 9.95 25.35 11.05 24.4 12.15 23.45 12.15 21.8 12.15 21.05 11.7 20.35
L 11.75 20.35
Q 12.3 20.75 13 20.95 13.65 21.15 14.1 21.15 14.5 21.15 15.05 21.1 15.55 21 16 20.85
L 15.9 26.6 17.7 27.6 17.7 14 21.3 14 21.3 26.6 23.05 27.6 23.05 14 28.2 14 28.2 18.4
Q 28.2 18.7 28 18.7
L 26.65 18.7
Q 26.5 18.7 26.35 18.9 26.15 19.1 26.15 19.35 26.15 19.95 27.2 21.05 27.45 21.3 28 21.85 28.7 22.5 28.95 22.5 29.35 22.5 29.65 22.15 29.95 21.85 29.95 21.4
L 29.95 14 32.6 14 32.6 26.55 34.3 27.6 34.3 14 36.5 14 35.65 12.35 33.45 12.35
Q 33.2640625 11.6630859375 32.45 9.75 31.45 7.45 31 6.75 30.5 6 29.75 5.65 29.15 5.35 28.55 5.35 28.1 5.35 27.8 5.35 27.5 5.4 27.5 5.5 27.55 5.55 28.15 6.65 28.35 7 28.75 7.65 28.9 7.6 29.05 7.5 29.25 7.5 29.45 7.5 29.8 7.5 30.3 7.85 30.85 8.2 31.15 8.7
M 65.6 31.15
L 67.5 29.3 65.6 27.4 63.7 29.25 65.6 31.15
M 65.65 5.65
Q 65.05 5.35 64.45 5.35 64 5.35 63.7 5.35 63.4 5.4 63.4 5.5 63.45 5.55 64.05 6.65 64.25 7 64.65 7.65 64.8 7.6 64.95 7.5 65.15 7.5 65.35 7.5 65.7 7.5 66.2 7.85 66.75 8.2 67.05 8.7 67.35 9.2 67.75 10.2 68.1296875 11.04375 68.6 12.35
L 43.35 12.35 44.25 14 54.65 14 54.65 18.4
Q 54 17.45 53.1 16.85 52 16.2 50.65 16.2 48.45 16.2 47.15 17.4 46.05 18.35 46.05 19.55 46.05 21.2 47.5 22.55 48.95 23.9 51 23.9 53.35 23.9 54.65 22.5
L 54.65 26.6 56.4 27.6 56.4 14 67.05 14 67.05 16.3 65.85 16.3
Q 65.6 16.3 64.55 16.3 63.45 16.35 63 16.45 61.2 16.45 60.3 17.4 59.5 18.25 59.5 19.75 59.5 21.75 60.55 23.35 61.25 24.5 62.45 25.45 63.4 26.15 64.2 26.55 65.3 27.05 66.25 27.05 67.8 27.05 68.95 26.2 70.2 25.3 70.2 23.8 70.2 21.75 69 20.65 68.05 19.8 66.95 19.8 65.5 19.8 64.7 20.55 63.95 21.35 63.95 22.85 63.95 23.45 64.1 24.15 64.35 24.85 64.55 25.15 63.15 25 62.15 24 61.1 22.85 61.1 21.25 61.1 19.7 61.8 18.85 62.5 18 63.75 18
L 68.2 17.9
Q 68.8 17.9 68.8 17.35
L 68.8 14 72.1 14 71.25 12.35 69.35 12.35
Q 69.1640625 11.6630859375 68.35 9.75 67.35 7.45 66.9 6.75 66.4 6 65.65 5.65
M 68.65 21.85
Q 69.15 22.35 69.15 23 69.15 23.95 68.15 24.65 67.15 25.35 65.8 25.35
L 65.3 25.3 65.3 24.2
Q 65.3 22.9 65.9 22.15 66.5 21.4 67.4 21.4 68.1 21.4 68.65 21.85
M 50 22.65
Q 49 22.65 48.4 22.2 47.65 21.7 47.65 20.6 47.65 19.9 48.15 19.1 48.6 18.5 49.1 18.25
L 51.7 22.3
Q 51.25 22.5 50.85 22.55 50.45 22.65 50 22.65
M 51 17.5
Q 51.25 17.5 51.75 17.5 52.65 17.5 53.3 18.05 54 18.75 54 19.95 54 21.15 52.55 21.85
L 49.95 17.8
Q 50.75 17.55 51 17.5
M 71.45 10.2
L 73.35 8.3 71.45 6.4 69.6 8.25 71.45 10.2 Z"/>
</g>

<g id="Duplicate_Items_Folder_dummyBtn_copy_0_Layer0_0_FILL">
<path fill="#33CC00" fill-opacity="0" stroke="none" d="
M 97.45 35.05
L 97.45 8.05
Q 97.05 0.85 89.9 0.45
L 7.55 0.45
Q 0.3 0.85 0 8.05
L 0 35.05
Q 0.1 41.9 7.4 42.45
L 90.05 42.45
Q 97.4 41.95 97.45 35.05 Z"/>
</g>

<path id="Duplicate_Items_Folder_shape_14_0_Layer0_0_1_STROKES" stroke="#000000" stroke-opacity="0.4" stroke-width="1" stroke-linejoin="round" stroke-linecap="round" fill="none" d="
M 149.75 -0.45
Q 156.9 -0.05 157.3 7.15
L 157.3 34.15
Q 157.25 41.05 149.9 41.55
L 67.4 41.55
Q 60.1 41 60 34.15
L 60 7.15
Q 60.3 -0.05 67.55 -0.45
L 149.75 -0.45 Z"/>
</defs>

<g id="next_btn" transform="matrix( 1, 0, 0, 1, 48.95,21.5) ">
<g transform="matrix( 1, 0, 0, 1, -108.65,-20.55) ">
<g transform="matrix( 1, 0, 0, 1, 0,0) ">
<use xlink:href="#Duplicate_Items_Folder_shape_14_0_Layer0_0_FILL"/>

<use xlink:href="#Duplicate_Items_Folder_shape_14_0_Layer0_0_1_STROKES"/>
</g>
</g>

<g filter="url(#Filter_1)" transform="matrix( 1, 0, 0, 1, -48.95,-21.5) ">
<g transform="matrix( 1, 0, 0, 1, 12.5,1.15) ">
<g transform="matrix( 1, 0, 0, 1, 0,0) ">
<use xlink:href="#AAgebadhen_0_Layer0_0_FILL"/>
</g>
</g>
</g>

<g transform="matrix( 1, 0, 0, 1, -48.65,-21) ">
<g transform="matrix( 1, 0, 0, 1, 0,0) ">
<use xlink:href="#Duplicate_Items_Folder_dummyBtn_copy_0_Layer0_0_FILL"/>
</g>
</g>
</g>
</svg>
