
<svg xmlns="http://www.w3.org/2000/svg" version="1.1" xmlns:xlink="http://www.w3.org/1999/xlink" preserveAspectRatio="none" x="0px" y="0px" width="155px" height="72px" viewBox="0 0 155 72">
<defs>
<linearGradient id="Gradient_1" gradientUnits="userSpaceOnUse" x1="109.65" y1="47.087500000000006" x2="109.65" y2="-6.487500000000001" spreadMethod="pad">
<stop  offset="0%" stop-color="#D7D515"/>

<stop  offset="100%" stop-color="#98BB19"/>
</linearGradient>

<filter id="Filter_1" x="-20%" y="-20%" width="140%" height="140%" color-interpolation-filters="sRGB">
<feFlood flood-color="#000000" flood-opacity="1" in="SourceGraphic" result="result1"/>

<feComposite in2="SourceGraphic" in="result1" operator="in" result="result2"/>

<feGaussianBlur in="result2" stdDeviation="1,1" result="result3"/>

<feOffset dx="2.121320343559643" dy="2.121320343559643" in="result3" result="result4"/>

<feComposite in2="result4" in="SourceGraphic" operator="over" result="result5"/>
</filter>

<filter id="Filter_2" x="-20%" y="-30.22849386239325%" width="140%" height="160.4569877247865%" color-interpolation-filters="sRGB">
<feFlood flood-color="#FFFFFF" flood-opacity="0.6" in="SourceGraphic" result="result1"/>

<feGaussianBlur in="SourceGraphic" stdDeviation="1.6666666666666667,1.6666666666666667" result="result2"/>

<feComposite in2="result2" in="result1" operator="in" result="result3"/>

<feComposite in2="result3" in="SourceGraphic" operator="over" result="result4"/>
</filter>

<g id="Duplicate_Items_Folder_shape_17_copy_9_Layer1_0_FILL">
<path fill="url(#Gradient_1)" stroke="none" d="
M 149.75 -1.45
L 67.55 -1.45
Q 60.3 -1.05 60 6.4
L 60 7.6 60 34.35
Q 60.0017578125 34.4759765625 60 34.6 60.1 41.45 67.4 42
L 149.9 42
Q 157.25 41.5 157.3 34.6 157.2990234375 34.476171875 157.3 34.35
L 157.3 6.4
Q 156.9 -1.05 149.75 -1.45 Z"/>
</g>

<g id="Symbol_22_0_Layer0_0_FILL">
<path fill="#FFFFFF" stroke="none" d="
M 50 -14
Q 49.6 -21.55 42.3 -21.95
L -42.25 -21.95
Q -49.6 -21.55 -49.95 -14
L -49.95 14.2
Q -49.85 21.35 -42.4 21.95
L 42.4 21.95
Q 49.95 21.45 50 14.2
L 50 -14
M 41.15 -20.95
Q 48.3 -20.55 48.7 -13.35
L 48.7 13.65
Q 48.65 20.55 41.3 21.05
L -41.2 21.05
Q -48.5 20.5 -48.6 13.65
L -48.6 -13.35
Q -48.3 -20.55 -41.05 -20.95
L 41.15 -20.95 Z"/>
</g>

<g id="AAgebadhen_0_Layer1_0_FILL">
<path fill="#FFFFFF" stroke="none" d="
M 32.45 10.1
Q 31.45 7.8 31 7.1 30.5 6.35 29.75 6 29.15 5.7 28.55 5.7 28.1 5.7 27.8 5.7 27.5 5.75 27.5 5.85 27.55 5.9 28.15 7 28.35 7.35 28.75 8 28.9 7.95 29.05 7.85 29.25 7.85 29.45 7.85 29.8 7.85 30.3 8.2 30.85 8.55 31.15 9.05 31.45 9.55 31.85 10.55 32.25 11.4 32.75 12.7
L 11.55 12.7 12.35 14.35 15.9 14.35 15.9 19.05
Q 15.65 19.35 14.8 19.7 13.95 20.1 13.45 20.1 11.8 20.1 9.8 18.55 10.4 18.25 10.75 17.65 11.15 17.05 11.15 16.45 11.15 15.8 10.85 15.2 10.6 14.6 9.85 13.9 9.1 13.2 8.2 12.85 7.35 12.45 6.8 12.45 6.15 12.45 5.3 12.75 4.4 13 3.55 13.45
L 4.1 14.7
Q 4.35 15.05 4.6 15.05 5.4 14.6 6.25 14.15 7.1 13.75 7.85 13.75 8.6 13.75 9.1 14.2 9.6 14.7 9.6 15.55 9.6 16.45 8.9 17.2 8.35 17.75 8 17.75 7.8 17.75 6.85 17.9 5.9 18 5.65 18 5.15 18 5.15 18.55 5.15 18.8 5.95 19.55 6.35 19.95 6.5 19.95 6.7 19.95 7.65 19.6 8.15 19.4 9 19.1 9.7 19.3 10.1 19.85 10.55 20.4 10.55 21.25 10.55 22.4 9.75 23.25 8.95 24.1 7.75 24.1 6.2 24.1 5.05 23 3.9 21.95 2.9 19.65
L 2.1 20.1
Q 3.35 22.85 4.9 24.3 6.4 25.7 8.2 25.7 9.95 25.7 11.05 24.75 12.15 23.8 12.15 22.15 12.15 21.4 11.7 20.7
L 11.75 20.7
Q 12.3 21.1 13 21.3 13.65 21.5 14.1 21.5 14.5 21.5 15.05 21.45 15.55 21.35 16 21.2
L 15.9 26.95 17.7 27.95 17.7 14.35 21.3 14.35 21.3 26.95 23.05 27.95 23.05 14.35 28.2 14.35 28.2 18.75
Q 28.2 19.05 28 19.05
L 26.65 19.05
Q 26.5 19.05 26.35 19.25 26.15 19.45 26.15 19.7 26.15 20.3 27.2 21.4 27.45 21.65 28 22.2 28.7 22.85 28.95 22.85 29.35 22.85 29.65 22.5 29.95 22.2 29.95 21.75
L 29.95 14.35 32.6 14.35 32.6 26.9 34.3 27.95 34.3 14.35 36.5 14.35 35.65 12.7 33.5 12.7
Q 33.25 12 32.45 10.1
M 65.6 27.75
L 63.7 29.6 65.6 31.5 67.5 29.65 65.6 27.75
M 65.65 6
Q 65.05 5.7 64.45 5.7 64 5.7 63.7 5.7 63.4 5.75 63.4 5.85 63.45 5.9 64.05 7 64.25 7.35 64.65 8 64.8 7.95 64.95 7.85 65.15 7.85 65.35 7.85 65.7 7.85 66.2 8.2 66.75 8.55 67.05 9.05 67.35 9.55 67.75 10.55 68.15 11.4 68.65 12.7
L 43.35 12.7 44.25 14.35 54.65 14.35 54.65 18.75
Q 54 17.8 53.1 17.2 52 16.55 50.65 16.55 48.45 16.55 47.15 17.75 46.05 18.7 46.05 19.9 46.05 21.55 47.5 22.9 48.95 24.25 51 24.25 53.35 24.25 54.65 22.85
L 54.65 26.95 56.4 27.95 56.4 14.35 67.05 14.35 67.05 16.65 65.85 16.65
Q 65.6 16.65 64.55 16.65 63.45 16.7 63 16.8 61.2 16.8 60.3 17.75 59.5 18.6 59.5 20.1 59.5 22.1 60.55 23.7 61.25 24.85 62.45 25.8 63.4 26.5 64.2 26.9 65.3 27.4 66.25 27.4 67.8 27.4 68.95 26.55 70.2 25.65 70.2 24.15 70.2 22.1 69 21 68.05 20.15 66.95 20.15 65.5 20.15 64.7 20.9 63.95 21.7 63.95 23.2 63.95 23.8 64.1 24.5 64.35 25.2 64.55 25.5 63.15 25.35 62.15 24.35 61.1 23.2 61.1 21.6 61.1 20.05 61.8 19.2 62.5 18.35 63.75 18.35
L 68.2 18.25
Q 68.8 18.25 68.8 17.7
L 68.8 14.35 72.1 14.35 71.25 12.7 69.4 12.7
Q 69.15 12 68.35 10.1 67.35 7.8 66.9 7.1 66.4 6.35 65.65 6
M 65.9 22.5
Q 66.5 21.75 67.4 21.75 68.1 21.75 68.65 22.2 69.15 22.7 69.15 23.35 69.15 24.3 68.15 25 67.15 25.7 65.8 25.7
L 65.3 25.65 65.3 24.55
Q 65.3 23.25 65.9 22.5
M 50 23
Q 49 23 48.4 22.55 47.65 22.05 47.65 20.95 47.65 20.25 48.15 19.45 48.6 18.85 49.1 18.6
L 51.7 22.65
Q 51.25 22.85 50.85 22.9 50.45 23 50 23
M 51.75 17.85
Q 52.65 17.85 53.3 18.4 54 19.1 54 20.3 54 21.5 52.55 22.2
L 49.95 18.15
Q 50.75 17.9 51 17.85 51.25 17.85 51.75 17.85
M 71.45 10.55
L 73.35 8.65 71.45 6.75 69.6 8.6 71.45 10.55 Z"/>
</g>

<g id="Duplicate_Items_Folder_dummyBtn_copy_0_Layer0_0_FILL">
<path fill="#33CC00" fill-opacity="0" stroke="none" d="
M 97.45 35.05
L 97.45 8.05
Q 97.05 0.85 89.9 0.45
L 7.55 0.45
Q 0.3 0.85 0 8.05
L 0 35.05
Q 0.1 41.9 7.4 42.45
L 90.05 42.45
Q 97.4 41.95 97.45 35.05 Z"/>
</g>

<path id="Duplicate_Items_Folder_shape_17_copy_9_Layer1_0_1_STROKES" stroke="#000000" stroke-opacity="0.4" stroke-width="1" stroke-linejoin="round" stroke-linecap="round" fill="none" d="
M 157.3 34.6
Q 157.25 41.5 149.9 42
L 67.4 42
Q 60.1 41.45 60 34.6
M 60 34.35
L 60 7.6"/>
</defs>

<g transform="matrix( 1.5, 0, 0, 1.5, 77.55,36.1) ">
<g transform="matrix( 1, 0, 0, 1, -108.8,-20.55) ">
<g transform="matrix( 1, 0, 0, 1, 0,0) ">
<use xlink:href="#Duplicate_Items_Folder_shape_17_copy_9_Layer1_0_FILL"/>

<use xlink:href="#Duplicate_Items_Folder_shape_17_copy_9_Layer1_0_1_STROKES"/>
</g>

<g filter="url(#Filter_1)" transform="matrix( 0.6666717529296875, 0, 0, 0.6666717529296875, 57.1,-3.55) ">
<g transform="matrix( 1.5, 0, 0, 1.5, 77.25,36.05) ">
<g transform="matrix( 1, 0, 0, 1, 0,0) ">
<use xlink:href="#Symbol_22_0_Layer0_0_FILL"/>
</g>
</g>
</g>
</g>

<g filter="url(#Filter_2)" transform="matrix( 0.6666717529296875, 0, 0, 0.6666717529296875, -51.7,-24.05) ">
<g transform="matrix( 1.5, 0, 0, 1.5, 22.9,5.6) ">
<g transform="matrix( 1, 0, 0, 1, 0,0) ">
<use xlink:href="#AAgebadhen_0_Layer1_0_FILL"/>
</g>
</g>
</g>

<g transform="matrix( 1, 0, 0, 1, -48.65,-21) ">
<g transform="matrix( 1, 0, 0, 1, 0,0) ">
<use xlink:href="#Duplicate_Items_Folder_dummyBtn_copy_0_Layer0_0_FILL"/>
</g>
</g>
</g>
</svg>
