
<svg xmlns="http://www.w3.org/2000/svg" version="1.1" xmlns:xlink="http://www.w3.org/1999/xlink" preserveAspectRatio="none" x="0px" y="0px" width="276px" height="252px" viewBox="0 0 276 252">
<defs>
<filter id="Filter_1" x="-20%" y="-20%" width="140%" height="140%" color-interpolation-filters="sRGB">
<feFlood flood-color="#000000" flood-opacity="1" in="SourceGraphic" result="result1"/>

<feComposite in2="SourceGraphic" in="result1" operator="in" result="result2"/>

<feGaussianBlur in="result2" stdDeviation="1,1" result="result3"/>

<feOffset dx="2.121320343559643" dy="2.121320343559643" in="result3" result="result4"/>

<feComposite in2="result4" in="SourceGraphic" operator="over" result="result5"/>
</filter>

<g id="Mask_fgh_0_1_MASK_0_FILL">
<path fill="#FFFFFF" stroke="none" d="
M 276.2 -235.65
Q 276.2 -252.15 256.05 -252.15
L -254.9 -252.15
Q -275.1 -252.15 -275.1 -235.65
L -276.2 235.8
Q -276.2 252.2 -256.1 252.2
L 254.9 252.2
Q 275.05 252.2 275.05 235.8
L 276.2 -235.65 Z"/>
</g>

<g id="fgh_0_Layer1_0_FILL">
<path fill="#FFFFFF" stroke="none" d="
M 289.75 -247.2
Q 289.75 -264.5 268.6 -264.5
L -267.4 -264.5
Q -288.55 -264.5 -288.55 -247.2
L -289.75 247.35
Q -289.75 264.55 -268.65 264.55
L 267.4 264.55
Q 288.5 264.55 288.5 247.35
L 289.75 -247.2
M 248.65 -240.7
Q 263.65 -240.7 263.65 -228.35
L 263.65 227.4
Q 263.65 239.75 248.65 239.75
L -246.05 239.75
Q -261.1 239.75 -261.1 227.4
L -261.1 -228.35
Q -261.1 -240.7 -246.05 -240.7
L 248.65 -240.7 Z"/>
</g>
</defs>

<g filter="url(#Filter_1)" transform="matrix( 1, 0, 0, 1, 0,0) ">
<g transform="matrix( 0.4996337890625, 0, 0, 0.4995574951171875, 138,125.95) ">
<mask id="Mask_Mask_1">
<g transform="matrix( 1, 0, 0, 1, 0,0) ">
<use xlink:href="#Mask_fgh_0_1_MASK_0_FILL"/>
</g>
</mask>

<g mask="url(#Mask_Mask_1)">
<g transform="matrix( 1, 0, 0, 1, 0,0) ">
<use xlink:href="#fgh_0_Layer1_0_FILL"/>
</g>
</g>
</g>
</g>
</svg>
