
<svg xmlns="http://www.w3.org/2000/svg" version="1.1" xmlns:xlink="http://www.w3.org/1999/xlink" preserveAspectRatio="none" x="0px" y="0px" width="170px" height="77px" viewBox="0 0 170 77">
<defs>
<filter id="Filter_1" x="-20%" y="-20%" width="140%" height="140%" color-interpolation-filters="sRGB">
<feFlood flood-color="#000000" flood-opacity="1" in="SourceGraphic" result="result1"/>

<feComposite in2="SourceGraphic" in="result1" operator="in" result="result2"/>

<feGaussianBlur in="result2" stdDeviation="1,1" result="result3"/>

<feOffset dx="2.121320343559643" dy="2.121320343559643" in="result3" result="result4"/>

<feComposite in2="result4" in="SourceGraphic" operator="over" result="result5"/>
</filter>

<g id="fg_0_Layer0_0_FILL">
<path fill="#FFFFFF" stroke="none" d="
M 85 -2.3
L 85 -2.55 85 -5.9 85 -6.65 85 -24.95
Q 85.05 -36.3 74.85 -36.3
L -74.65 -36.6
Q -84.85 -36.6 -84.95 -25.2
L -84.95 -6.65 -84.95 -5.9 -84.95 -2.55 -84.95 -2.3 -84.95 1.8
Q -84.95390625 5.375 -84.95 8.95
L -85 13.3 -85 28.6
Q -85.05 39.95 -74.9 39.95
L 74.6 40.2
Q 84.8 40.2 84.95 28.9
L 84.95 13.3 84.95 8.95 85 8.95 85 7.6
Q 84.9984375 7.396875 85 7.15 84.9953125 4.48125 85 1.8
L 85 -2.3
M 69.05 -31.4
Q 79.4 -31.4 79.25 -21.1
L 79.25 -6.65 79.25 -5.9 79.25 -2.3 79.25 8.95 79.25 13.3 79.25 24.5
Q 79.2 34.7 68.9 34.7
L -68.95 34.45
Q -79.25 34.45 -79.2 24.2
L -79.2 13.3 -79.2 8.95 -79.2 -2.3 -79.2 -5.9 -79.2 -6.65 -79.2 -21.4
Q -79.05 -31.7 -68.8 -31.7
L 69.05 -31.4 Z"/>
</g>
</defs>

<g filter="url(#Filter_1)" transform="matrix( 1, 0, 0, 1, 0,0) ">
<g transform="matrix( 1, 0, 0, 1, 85,36.6) ">
<g transform="matrix( 1, 0, 0, 1, 0,0) ">
<use xlink:href="#fg_0_Layer0_0_FILL"/>
</g>
</g>
</g>
</svg>
