
<svg xmlns="http://www.w3.org/2000/svg" version="1.1" xmlns:xlink="http://www.w3.org/1999/xlink" preserveAspectRatio="none" x="0px" y="0px" width="98px" height="43px" viewBox="0 0 98 43">
<defs>
<linearGradient id="Gradient_1" gradientUnits="userSpaceOnUse" x1="109.65" y1="46.4375" x2="109.65" y2="-5.337500000000002" spreadMethod="pad">
<stop  offset="0%" stop-color="#021722"/>

<stop  offset="100%" stop-color="#1E88BB"/>
</linearGradient>

<filter id="Filter_1" x="-20%" y="-39.70940085292671%" width="140%" height="179.4188017058534%" color-interpolation-filters="sRGB">
<feFlood flood-color="#FFFFFF" flood-opacity="0.6" in="SourceGraphic" result="result1"/>

<feGaussianBlur in="SourceGraphic" stdDeviation="1.6666666666666667,1.6666666666666667" result="result2"/>

<feComposite in2="result2" in="result1" operator="in" result="result3"/>

<feComposite in2="result3" in="SourceGraphic" operator="over" result="result4"/>
</filter>

<g id="Duplicate_Items_Folder_shape_14_0_Layer0_0_FILL">
<path fill="url(#Gradient_1)" stroke="none" d="
M 149.75 -0.45
L 67.55 -0.45
Q 60.3 -0.05 60 7.15
L 60 34.15
Q 60.1 41 67.4 41.55
L 149.9 41.55
Q 157.25 41.05 157.3 34.15
L 157.3 7.15
Q 156.9 -0.05 149.75 -0.45 Z"/>
</g>

<g id="Sprite_sprite_19_0_Layer0_0_FILL">
<path fill="#CCCCCC" stroke="none" d="
M 40.8 22.3
Q 41.4 20.95 41.4 19.65 41.4 18.15 40.85 17.15 40.35 16.15 39.25 15.4
L 39.25 13 42.9 13 41.95 11.2 39.5 11.2
Q 39.22890625 10.44765625 38.35 8.45 37.3 5.95 36.8 5.15 36.3 4.4 35.45 4 34.8 3.7 34.15 3.7 33.7 3.7 33.35 3.7 33.05 3.75 33.05 3.85 33.05 3.95 33.75 5.1 33.95 5.45 34.4 6.15 34.55 6.1 34.7 6 34.95 6 35.15 6 35.5 6 36.05 6.35 36.6 6.75 37 7.3 37.3 7.85 37.75 8.9 38.1271484375 9.8216796875 38.65 11.2
L 22.35 11.2
Q 21.9 7.85 20.5 6.1 19.25 4.45 17.4 4.45 16 4.45 15.1 5.3 14.15 6.15 14.15 7.65 14.15 8 14.4 8.65 14.65 9.3 14.85 9.5
L 15.55 9.2
Q 15.55 6.25 17.5 6.25 18.85 6.25 19.9 7.4 21.05 8.75 21.4 11.2
L 3.85 11.2 4.8 13 7.6 13 7.6 18
Q 7.6 19.4 9.3 20.8 10.9 22.05 12.05 22.05 12.6 22.05 13.45 21.8 14.3 21.55 14.65 21.3
L 14.6 26.45 16.5 27.65 16.5 13 21.05 13 21.05 26.55 22.9 27.65 22.9 13 37.35 13 37.35 14.75
Q 35.9 14.95 35.2 15.85 34.5 16.7 34.5 17.85 34.5 19.15 35.65 20.4 37.1 21.55 38.6 22.65 37.8 24 35.65 24.95 33.8 25.8 32.4 25.8 31.55 25.8 30.9 25.45 30.05 25.05 30.05 24.25 30.05 23.35 30.85 22.6 31.65 21.9 32.6 21.9 33.1 21.9 33.5 21.95 33.9 22.05 34.15 22.1
L 34.3 21.9
Q 34.15 21.65 34.1 21.55 33.95 21.15 33.5 20.35 33.2 20.2 32.9 20.15 32.65 20.1 32.15 20.1 31.8 20.1 31.35 20.2 30.95 20.3 30.45 20.45 29.75 20.45 29.1 19.95 28.45 19.5 28.45 18.85 28.45 18 29.1 17.55 29.7 17.1 31.1 17.1 31.35 17.1 32.05 17.25 32.75 17.35 33.05 17.5 32.9 17.05 32.65 16.65 32.4 16.05 32.25 15.85 32.05 15.65 31.35 15.5 30.7 15.35 30.15 15.35 28.7 15.35 27.75 16.1 26.75 16.8 26.75 18.2 26.75 18.9 27.25 19.6 27.8 20.25 29.45 21.3 28.95 21.7 28.65 22.25 28.35 22.75 28.35 23.2 28.35 24.9 30.25 26.1 31.85 27.15 33.65 27.15 35.3 27.15 36.8 26.35 38.35 25.55 39.5 24.25 40.3 23.3 40.8 22.3
M 36.35 18.35
Q 36.35 17.35 36.85 16.7 37.35 16.05 38.05 16.05 38.85 16.05 39.4 16.85 39.95 17.65 39.95 18.75 39.95 19.55 39.65 20.45 39.35 21.3 39.05 21.75 37.8 21.25 37.05 20.3 36.35 19.35 36.35 18.35
M 9.9 19.9
Q 9.45 19.3 9.45 18.05
L 9.45 13 14.6 13 14.6 19.2
Q 13.8 19.65 12.85 20.05 11.85 20.45 11.15 20.45 10.35 20.45 9.9 19.9
M 83.15 12.95
L 85.6 12.95 84.65 11.2 49.5 11.2 50.5 13 64.05 13 64.05 15.95 56.75 15.95 56.45 16.6
Q 58 17.5 58.85 18.35 60.05 19.5 60.05 20.6 60.05 21.4 59.65 21.9 59.2 22.4 58.4 22.4 57.75 22.4 56.85 21.85 55.95 21.3 55.4 20.5 54.7 19.5 54.3 18.85 53.85 17.95 53.35 16.8
L 52.3 17.25
Q 53.3 19.4 54 20.55 55.05 22.35 56.15 23.2 57.5 24.3 59 24.3 60.05 24.3 60.9 23.6 61.9 22.85 61.9 21.65 61.9 20.6 61.3 19.65 60.85 18.95 59.55 17.7
L 64.05 17.7 64.05 26.55 65.95 27.65 65.95 13 69.65 13 69.65 26.55 71.55 27.65 71.55 13 73.9 13 73.85 12.95 75.15 12.95 75.15 19.35
Q 75.15 20.55 76 21.15
L 83.15 25.55
Q 83.85 26.05 83.85 26.35 83.85 26.55 83.7 26.8 83.55 27.05 83.35 27.25
L 84.7 28.4
Q 85.6 27.2 85.6 26.7 85.6 26.35 85.25 25.95 84.95 25.55 84.15 25.1
L 77.45 20.65
Q 77.3 20.55 77.2 20.2
L 77.2 12.95 81.05 12.95 81.05 18.65
Q 81.05 19.2 80.3 19.2
L 78.8 19.1 79.7 20.45 81.05 20.7 82.15 20.65
Q 83.15 20.55 83.15 19.55
L 83.15 12.95
M 84.8 8.65
Q 86.05 7.75 86.55 6.5
L 84.9 5.2
Q 84.5 6.2 83.75 7 82.75 8 81.55 8 80.7 8 79.75 7.35 78.85 6.7 78 5.45
L 77.25 5.85
Q 78 7.35 79.2 8.4 80.65 9.55 82.25 9.55 83.55 9.55 84.8 8.65
M 81.8 6.1
L 83.85 4.1 81.8 2.05 79.75 4.1 81.8 6.1 Z"/>
</g>

<g id="Duplicate_Items_Folder_dummyBtn_0_Layer0_0_FILL">
<path fill="#D6D6D6" fill-opacity="0" stroke="none" d="
M 97.3 34.6
L 97.3 7.6
Q 96.9 0.4 89.75 0
L 7.55 0
Q 0.3 0.4 0 7.6
L 0 34.6
Q 0.1 41.45 7.4 42
L 89.9 42
Q 97.25 41.5 97.3 34.6 Z"/>
</g>

<path id="Duplicate_Items_Folder_shape_14_0_Layer0_0_1_STROKES" stroke="#000000" stroke-opacity="0.4" stroke-width="1" stroke-linejoin="round" stroke-linecap="round" fill="none" d="
M 149.75 -0.45
Q 156.9 -0.05 157.3 7.15
L 157.3 34.15
Q 157.25 41.05 149.9 41.55
L 67.4 41.55
Q 60.1 41 60 34.15
L 60 7.15
Q 60.3 -0.05 67.55 -0.45
L 149.75 -0.45 Z"/>

<path id="Duplicate_Items_Folder_dummyBtn_0_Layer0_0_1_STROKES" stroke="#D6D6D6" stroke-opacity="0" stroke-width="1" stroke-linejoin="round" stroke-linecap="round" fill="none" d="
M 97.3 34.6
Q 97.25 41.5 89.9 42
L 7.4 42
Q 0.1 41.45 0 34.6
L 0 7.6
Q 0.3 0.4 7.55 0
L 89.75 0
Q 96.9 0.4 97.3 7.6
L 97.3 34.6 Z"/>
</defs>

<g id="back_btn" transform="matrix( 1, 0, 0, 1, 48.95,21.55) ">
<g transform="matrix( 1, 0, 0, 1, -108.65,-20.55) ">
<g transform="matrix( 1, 0, 0, 1, 0,0) ">
<use xlink:href="#Duplicate_Items_Folder_shape_14_0_Layer0_0_FILL"/>

<use xlink:href="#Duplicate_Items_Folder_shape_14_0_Layer0_0_1_STROKES"/>
</g>
</g>

<g filter="url(#Filter_1)" transform="matrix( 1, 0, 0, 1, -48.95,-21.55) ">
<g transform="matrix( 1, 0, 0, 1, 3.9,1.55) ">
<g transform="matrix( 1, 0, 0, 1, 0,0) ">
<use xlink:href="#Sprite_sprite_19_0_Layer0_0_FILL"/>
</g>
</g>
</g>

<g transform="matrix( 1, 0, 0, 1, -48.65,-21) ">
<g transform="matrix( 1, 0, 0, 1, 0,0) ">
<use xlink:href="#Duplicate_Items_Folder_dummyBtn_0_Layer0_0_FILL"/>

<use xlink:href="#Duplicate_Items_Folder_dummyBtn_0_Layer0_0_1_STROKES"/>
</g>
</g>
</g>
</svg>
