
<svg xmlns="http://www.w3.org/2000/svg" version="1.1" xmlns:xlink="http://www.w3.org/1999/xlink" preserveAspectRatio="none" x="0px" y="0px" width="155px" height="72px" viewBox="0 0 155 72">
<defs>
<linearGradient id="Gradient_1" gradientUnits="userSpaceOnUse" x1="109.65" y1="46.4375" x2="109.65" y2="-5.337500000000002" spreadMethod="pad">
<stop  offset="0%" stop-color="#064B71"/>

<stop  offset="100%" stop-color="#239FDC"/>
</linearGradient>

<filter id="Filter_1" x="-20%" y="-20%" width="140%" height="140%" color-interpolation-filters="sRGB">
<feFlood flood-color="#000000" flood-opacity="1" in="SourceGraphic" result="result1"/>

<feComposite in2="SourceGraphic" in="result1" operator="in" result="result2"/>

<feGaussianBlur in="result2" stdDeviation="1,1" result="result3"/>

<feOffset dx="2.121320343559643" dy="2.121320343559643" in="result3" result="result4"/>

<feComposite in2="result4" in="SourceGraphic" operator="over" result="result5"/>
</filter>

<filter id="Filter_2" x="-20%" y="-29.80626723528448%" width="140%" height="159.61253447056896%" color-interpolation-filters="sRGB">
<feFlood flood-color="#FFFFFF" flood-opacity="0.6" in="SourceGraphic" result="result1"/>

<feGaussianBlur in="SourceGraphic" stdDeviation="1.6666666666666667,1.6666666666666667" result="result2"/>

<feComposite in2="result2" in="result1" operator="in" result="result3"/>

<feComposite in2="result3" in="SourceGraphic" operator="over" result="result4"/>
</filter>

<g id="Duplicate_Items_Folder_shape_20_0_Layer0_0_FILL">
<path fill="url(#Gradient_1)" stroke="none" d="
M 149.95 -0.45
L 67.25 -0.45
Q 60 -0.05 59.7 7.15
L 59.7 34.15
Q 59.8 41 67.1 41.55
L 150.1 41.55
Q 157.45 41.05 157.5 34.15
L 157.5 7.15
Q 157.1 -0.05 149.95 -0.45 Z"/>
</g>

<g id="Symbol_22_0_Layer0_0_FILL">
<path fill="#FFFFFF" stroke="none" d="
M 50 -14
Q 49.6 -21.55 42.3 -21.95
L -42.25 -21.95
Q -49.6 -21.55 -49.95 -14
L -49.95 14.2
Q -49.85 21.35 -42.4 21.95
L 42.4 21.95
Q 49.95 21.45 50 14.2
L 50 -14
M 41.15 -20.95
Q 48.3 -20.55 48.7 -13.35
L 48.7 13.65
Q 48.65 20.55 41.3 21.05
L -41.2 21.05
Q -48.5 20.5 -48.6 13.65
L -48.6 -13.35
Q -48.3 -20.55 -41.05 -20.95
L 41.15 -20.95 Z"/>
</g>

<g id="Sprite_sprite_19_0_Layer1_0_FILL">
<path fill="#FFFFFF" stroke="none" d="
M 40.8 22.7
Q 41.4 21.35 41.4 20.05 41.4 18.55 40.85 17.55 40.35 16.55 39.25 15.8
L 39.25 13.4 42.9 13.4 41.95 11.6 39.5 11.6
Q 39.25 10.85 38.35 8.85 37.3 6.35 36.8 5.55 36.3 4.8 35.45 4.4 34.8 4.1 34.15 4.1 33.7 4.1 33.35 4.1 33.05 4.15 33.05 4.25 33.05 4.35 33.75 5.5 33.95 5.85 34.4 6.55 34.55 6.5 34.7 6.4 34.95 6.4 35.15 6.4 35.5 6.4 36.05 6.75 36.6 7.15 37 7.7 37.3 8.25 37.75 9.3 38.15 10.2 38.65 11.6
L 22.35 11.6
Q 21.9 8.25 20.5 6.5 19.25 4.85 17.4 4.85 16 4.85 15.1 5.7 14.15 6.55 14.15 8.05 14.15 8.4 14.4 9.05 14.65 9.7 14.85 9.9
L 15.55 9.6
Q 15.55 6.65 17.5 6.65 18.85 6.65 19.9 7.8 21.05 9.15 21.4 11.6
L 3.85 11.6 4.8 13.4 7.6 13.4 7.6 18.4
Q 7.6 19.8 9.3 21.2 10.9 22.45 12.05 22.45 12.6 22.45 13.45 22.2 14.3 21.95 14.65 21.7
L 14.6 26.85 16.5 28.05 16.5 13.4 21.05 13.4 21.05 26.95 22.9 28.05 22.9 13.4 37.35 13.4 37.35 15.15
Q 35.9 15.35 35.2 16.25 34.5 17.1 34.5 18.25 34.5 19.55 35.65 20.8 37.1 21.95 38.6 23.05 37.8 24.4 35.65 25.35 33.8 26.2 32.4 26.2 31.55 26.2 30.9 25.85 30.05 25.45 30.05 24.65 30.05 23.75 30.85 23 31.65 22.3 32.6 22.3 33.1 22.3 33.5 22.35 33.9 22.45 34.15 22.5
L 34.3 22.3
Q 34.15 22.05 34.1 21.95 33.95 21.55 33.5 20.75 33.2 20.6 32.9 20.55 32.65 20.5 32.15 20.5 31.8 20.5 31.35 20.6 30.95 20.7 30.45 20.85 29.75 20.85 29.1 20.35 28.45 19.9 28.45 19.25 28.45 18.4 29.1 17.95 29.7 17.5 31.1 17.5 31.35 17.5 32.05 17.65 32.75 17.75 33.05 17.9 32.9 17.45 32.65 17.05 32.4 16.45 32.25 16.25 32.05 16.05 31.35 15.9 30.7 15.75 30.15 15.75 28.7 15.75 27.75 16.5 26.75 17.2 26.75 18.6 26.75 19.3 27.25 20 27.8 20.65 29.45 21.7 28.95 22.1 28.65 22.65 28.35 23.15 28.35 23.6 28.35 25.3 30.25 26.5 31.85 27.55 33.65 27.55 35.3 27.55 36.8 26.75 38.35 25.95 39.5 24.65 40.3 23.7 40.8 22.7
M 36.85 17.1
Q 37.35 16.45 38.05 16.45 38.85 16.45 39.4 17.25 39.95 18.05 39.95 19.15 39.95 19.95 39.65 20.85 39.35 21.7 39.05 22.15 37.8 21.65 37.05 20.7 36.35 19.75 36.35 18.75 36.35 17.75 36.85 17.1
M 9.9 20.3
Q 9.45 19.7 9.45 18.45
L 9.45 13.4 14.6 13.4 14.6 19.6
Q 13.8 20.05 12.85 20.45 11.85 20.85 11.15 20.85 10.35 20.85 9.9 20.3
M 81.05 13.35
L 81.05 19.05
Q 81.05 19.6 80.3 19.6
L 78.8 19.5 79.7 20.85 81.05 21.1 82.15 21.05
Q 83.15 20.95 83.15 19.95
L 83.15 13.35 85.6 13.35 84.65 11.6 49.5 11.6 50.5 13.4 64.05 13.4 64.05 16.35 56.75 16.35 56.45 17
Q 58 17.9 58.85 18.75 60.05 19.9 60.05 21 60.05 21.8 59.65 22.3 59.2 22.8 58.4 22.8 57.75 22.8 56.85 22.25 55.95 21.7 55.4 20.9 54.7 19.9 54.3 19.25 53.85 18.35 53.35 17.2
L 52.3 17.65
Q 53.3 19.8 54 20.95 55.05 22.75 56.15 23.6 57.5 24.7 59 24.7 60.05 24.7 60.9 24 61.9 23.25 61.9 22.05 61.9 21 61.3 20.05 60.85 19.35 59.55 18.1
L 64.05 18.1 64.05 26.95 65.95 28.05 65.95 13.4 69.65 13.4 69.65 26.95 71.55 28.05 71.55 13.4 73.9 13.4 73.9 13.35 75.15 13.35 75.15 19.75
Q 75.15 20.95 76 21.55
L 83.15 25.95
Q 83.85 26.45 83.85 26.75 83.85 26.95 83.7 27.2 83.55 27.45 83.35 27.65
L 84.7 28.8
Q 85.6 27.6 85.6 27.1 85.6 26.75 85.25 26.35 84.95 25.95 84.15 25.5
L 77.45 21.05
Q 77.3 20.95 77.2 20.6
L 77.2 13.35 81.05 13.35
M 83.85 4.5
L 81.8 2.45 79.75 4.5 81.8 6.5 83.85 4.5
M 86.55 6.9
L 84.9 5.6
Q 84.5 6.6 83.75 7.4 82.75 8.4 81.55 8.4 80.7 8.4 79.75 7.75 78.85 7.1 78 5.85
L 77.25 6.25
Q 78 7.75 79.2 8.8 80.65 9.95 82.25 9.95 83.55 9.95 84.8 9.05 86.05 8.15 86.55 6.9 Z"/>
</g>

<g id="Duplicate_Items_Folder_dummyBtn_0_Layer0_0_FILL">
<path fill="#D6D6D6" fill-opacity="0" stroke="none" d="
M 97.3 34.6
L 97.3 7.6
Q 96.9 0.4 89.75 0
L 7.55 0
Q 0.3 0.4 0 7.6
L 0 34.6
Q 0.1 41.45 7.4 42
L 89.9 42
Q 97.25 41.5 97.3 34.6 Z"/>
</g>

<path id="Duplicate_Items_Folder_shape_20_0_Layer0_0_1_STROKES" stroke="#000000" stroke-opacity="0.4" stroke-width="1" stroke-linejoin="round" stroke-linecap="round" fill="none" d="
M 67.25 -0.45
L 149.95 -0.45
Q 157.1 -0.05 157.5 7.15
L 157.5 34.15
Q 157.45 41.05 150.1 41.55
L 67.1 41.55
Q 59.8 41 59.7 34.15
L 59.7 7.15
Q 60 -0.05 67.25 -0.45 Z"/>

<path id="Duplicate_Items_Folder_dummyBtn_0_Layer0_0_1_STROKES" stroke="#D6D6D6" stroke-opacity="0" stroke-width="1" stroke-linejoin="round" stroke-linecap="round" fill="none" d="
M 97.3 34.6
Q 97.25 41.5 89.9 42
L 7.4 42
Q 0.1 41.45 0 34.6
L 0 7.6
Q 0.3 0.4 7.55 0
L 89.75 0
Q 96.9 0.4 97.3 7.6
L 97.3 34.6 Z"/>
</defs>

<g transform="matrix( 1.5, 0, 0, 1.5, 77.55,36.1) ">
<g transform="matrix( 1, 0, 0, 1, -108.6,-20.55) ">
<g transform="matrix( 1, 0, 0, 1, 0,0) ">
<use xlink:href="#Duplicate_Items_Folder_shape_20_0_Layer0_0_FILL"/>

<use xlink:href="#Duplicate_Items_Folder_shape_20_0_Layer0_0_1_STROKES"/>
</g>

<g filter="url(#Filter_1)" transform="matrix( 0.6666717529296875, 0, 0, 0.6666717529296875, 56.9,-3.55) ">
<g transform="matrix( 1.5, 0, 0, 1.5, 77.55,36.05) ">
<g transform="matrix( 1, 0, 0, 1, 0,0) ">
<use xlink:href="#Symbol_22_0_Layer0_0_FILL"/>
</g>
</g>
</g>
</g>

<g filter="url(#Filter_2)" transform="matrix( 0.6666717529296875, 0, 0, 0.6666717529296875, -51.7,-24.05) ">
<g transform="matrix( 1.5, 0, 0, 1.5, 10,6.1) ">
<g transform="matrix( 1, 0, 0, 1, 0,0) ">
<use xlink:href="#Sprite_sprite_19_0_Layer1_0_FILL"/>
</g>
</g>
</g>

<g transform="matrix( 1, 0, 0, 1, -48.65,-21) ">
<g transform="matrix( 1, 0, 0, 1, 0,0) ">
<use xlink:href="#Duplicate_Items_Folder_dummyBtn_0_Layer0_0_FILL"/>

<use xlink:href="#Duplicate_Items_Folder_dummyBtn_0_Layer0_0_1_STROKES"/>
</g>
</g>
</g>
</svg>
