
<svg xmlns="http://www.w3.org/2000/svg" version="1.1" xmlns:xlink="http://www.w3.org/1999/xlink" preserveAspectRatio="none" x="0px" y="0px" width="1782px" height="333px" viewBox="0 0 1782 333">
<defs>
<filter id="Filter_1" x="-20%" y="-20%" width="140%" height="140%" color-interpolation-filters="sRGB">
<feFlood flood-color="#000000" flood-opacity="1" in="SourceGraphic" result="result1"/>

<feComposite in2="SourceGraphic" in="result1" operator="in" result="result2"/>

<feGaussianBlur in="result2" stdDeviation="1.3333333333333333,1.3333333333333333" result="result3"/>

<feOffset dx="2.8284271247461903" dy="2.8284271247461903" in="result3" result="result4"/>

<feComposite in2="result4" in="SourceGraphic" operator="over" result="result5"/>
</filter>

<g id="Symbol_9_0_Layer0_0_FILL">
<path fill="#E8F9FF" stroke="none" d="
M 724.3 -125.35
Q 716.2 -133.4 704.75 -133.4
L -583.7 -133.4
Q -595.15 -133.4 -603.25 -125.35 -611.35 -117.2 -611.35 -105.8
L -611.35 145.8
Q -611.35 157.2 -603.25 165.3 -595.15 173.4 -583.7 173.4
L 704.75 173.4
Q 716.2 173.4 724.3 165.3 732.4 157.2 732.4 145.8
L 732.4 -105.8
Q 732.4 -117.2 724.3 -125.35 Z"/>
</g>

<path id="Symbol_9_0_Layer0_0_1_STROKES" stroke="#5FC6FF" stroke-width="9.1" stroke-linejoin="miter" stroke-linecap="square" stroke-miterlimit="3" fill="none" d="
M -583.7 -133.4
L 704.75 -133.4
Q 716.2 -133.4 724.3 -125.35 732.4 -117.2 732.4 -105.8
L 732.4 145.8
Q 732.4 157.2 724.3 165.3 716.2 173.4 704.75 173.4
L -583.7 173.4
Q -595.15 173.4 -603.25 165.3 -611.35 157.2 -611.35 145.8
L -611.35 -105.8
Q -611.35 -117.2 -603.25 -125.35 -595.15 -133.4 -583.7 -133.4 Z"/>
</defs>

<g filter="url(#Filter_1)" transform="matrix( 1, 0, 0, 1, 0,0) ">
<g transform="matrix( 1.310455322265625, 0, 0, 1.019134521484375, 809.7,142.15) ">
<g transform="matrix( 1, 0, 0, 1, 0,0) ">
<use xlink:href="#Symbol_9_0_Layer0_0_FILL"/>

<use xlink:href="#Symbol_9_0_Layer0_0_1_STROKES"/>
</g>
</g>
</g>
</svg>
