<?xml version="1.0" encoding="utf-8"?>
<!-- Generator: Adobe Illustrator 16.0.0, SVG Export Plug-In . SVG Version: 6.00 Build 0)  -->
<!DOCTYPE svg PUBLIC "-//W3C//DTD SVG 1.1//EN" "http://www.w3.org/Graphics/SVG/1.1/DTD/svg11.dtd">
<svg version="1.1" id="Layer_1" xmlns="http://www.w3.org/2000/svg" xmlns:xlink="http://www.w3.org/1999/xlink" x="0px" y="0px"
	 width="89.537px" height="63.283px" viewBox="0 0 89.537 63.283" enable-background="new 0 0 89.537 63.283" xml:space="preserve">
<g>
	<path fill="#FFFFFF" d="M45.113,63.261L45.113,63.261c32.439-9.594,45.148-25.11,44.393-45.087
		C69.23,18.333,52.042,28.42,45.113,63.261z"/>
	<path fill="#FFFFFF" d="M48.577,59.965c24.499-6.49,33.6-18.183,32.511-33.43c-0.387-0.01-0.771-0.02-1.162-0.013
		C65.011,26.518,52.865,34.233,48.577,59.965z"/>
	<path fill="#FFFFFF" d="M45.105,63.261l0.005,0.006c21.769-6.441,30.142-17.012,29.636-30.424
		C61.136,32.95,49.768,39.878,45.105,63.261z"/>
	<path fill="#FFFFFF" d="M1.691,18.847C1.13,18.854,0.569,18.861,0,18.875c0.152,20.284,10.239,37.471,45.086,44.393
		C35.764,31.746,20.84,18.841,1.691,18.847L1.691,18.847z"/>
	<path fill="#FFFFFF" d="M10.744,27.208c-0.786-0.007-1.577,0.032-2.381,0.083c-0.407,15.456,7.031,28.118,33.424,32.517
		C35.639,36.609,24.821,27.209,10.744,27.208L10.744,27.208z"/>
	<path fill="#FFFFFF" d="M15.822,33.618c-0.381,0.003-0.767,0.011-1.154,0.019c0.108,13.609,7.03,24.983,30.418,29.64
		C38.828,42.12,28.677,33.614,15.822,33.618L15.822,33.618z"/>
	<path fill="#FFFFFF" d="M45.093,63.272C61.258,33.549,59.273,13.592,44.613,0C30.377,14.451,25.357,33.736,45.093,63.272z"/>
	<path fill="#FFFFFF" d="M44.562,11.868c-11.2,10.642-14.902,24.854,0.649,46.627C57.946,36.582,56.121,21.879,44.562,11.868z"/>
	<path fill="#FFFFFF" d="M45.093,63.283c10.846-19.947,9.292-33.356-0.549-42.469C34.997,30.514,31.849,43.45,45.093,63.283z"/>
</g>
</svg>
