<?xml version="1.0" encoding="utf-8"?>
<!-- Generator: Adobe Illustrator 16.0.0, SVG Export Plug-In . SVG Version: 6.00 Build 0)  -->
<!DOCTYPE svg PUBLIC "-//W3C//DTD SVG 1.1//EN" "http://www.w3.org/Graphics/SVG/1.1/DTD/svg11.dtd">
<svg version="1.1" id="Layer_1" xmlns="http://www.w3.org/2000/svg" xmlns:xlink="http://www.w3.org/1999/xlink" x="0px" y="0px"
	 width="1215.916px" height="540.543px" viewBox="0 0 1215.916 540.543" enable-background="new 0 0 1215.916 540.543"
	 xml:space="preserve">
<g>
	<g>
		<g>
			<path fill="#FFFFFF" d="M53.551,75.096L53.551,75.096c38.504-11.393,53.595-29.811,52.693-53.521
				C82.175,21.764,61.776,33.738,53.551,75.096z"/>
			<path fill="#FFFFFF" d="M57.66,71.186C86.741,63.475,97.542,49.6,96.252,31.502c-0.458-0.01-0.914-0.027-1.381-0.02
				C77.167,31.482,62.752,40.637,57.66,71.186z"/>
			<path fill="#FFFFFF" d="M53.533,75.096l0.014,0.004c25.838-7.645,35.779-20.189,35.176-36.113
				C72.568,39.119,59.08,47.338,53.533,75.096z"/>
			<path fill="#FFFFFF" d="M2.008,22.371C1.342,22.385,0.676,22.391,0,22.412c0.179,24.076,12.153,44.477,53.521,52.697
				C42.455,37.688,24.736,22.367,2.008,22.371L2.008,22.371z"/>
			<path fill="#FFFFFF" d="M12.752,32.299c-0.93-0.006-1.87,0.037-2.823,0.102c-0.482,18.346,8.347,33.373,39.673,38.592
				C42.305,43.457,29.465,32.299,12.752,32.299L12.752,32.299z"/>
			<path fill="#FFFFFF" d="M18.777,39.906c-0.449,0-0.907,0.018-1.369,0.023c0.131,16.152,8.346,29.654,36.113,35.188
				C46.095,50.004,34.039,39.902,18.777,39.906L18.777,39.906z"/>
			<path fill="#FFFFFF" d="M53.527,75.109C72.717,39.826,70.357,16.141,52.953,0C36.057,17.16,30.102,40.049,53.527,75.109z"/>
			<path fill="#FFFFFF" d="M52.895,14.092c-13.289,12.627-17.688,29.502,0.771,55.346C68.782,43.428,66.619,25.975,52.895,14.092z"
				/>
			<path fill="#FFFFFF" d="M53.527,75.123c12.875-23.674,11.029-39.598-0.656-50.412C41.545,36.223,37.805,51.578,53.527,75.123z"/>
		</g>
		<path fill-rule="evenodd" clip-rule="evenodd" fill="#FFFFFF" d="M140.558,43.131c3.313,1.516,5.823,3.527,7.509,6.031
			c1.672,2.521,2.521,5.496,2.521,8.932c0,5.023-1.492,9.074-4.471,12.145c-2.985,3.068-6.938,4.613-11.857,4.613
			c-4.013,0-7.368-1.096-10.089-3.303c-2.714-2.201-4.551-5.34-5.507-9.391l5.507-2.916c0.738,3.312,1.958,5.818,3.666,7.512
			c1.715,1.711,3.849,2.564,6.423,2.564c3.041,0,5.503-0.939,7.39-2.814c1.88-1.887,2.816-4.316,2.816-7.334
			c0-2.436-0.647-4.568-1.973-6.361c-1.3-1.812-3.293-3.328-5.927-4.574l-6.201-2.84c-3.382-1.518-5.914-3.465-7.559-5.857
			c-1.666-2.389-2.504-5.256-2.504-8.582c0-3.885,1.344-7.094,4.04-9.629c2.697-2.539,6.132-3.809,10.301-3.809
			c3.068,0,5.713,0.699,7.962,2.09c2.23,1.402,3.979,3.453,5.236,6.16l-5.011,3.432c-1.146-2.113-2.418-3.684-3.829-4.713
			c-1.429-1.035-3.03-1.557-4.805-1.557c-2.284,0-4.152,0.756-5.602,2.244c-1.446,1.486-2.168,3.389-2.168,5.705
			c0,1.943,0.556,3.613,1.675,5.033c1.105,1.432,2.84,2.678,5.178,3.77L140.558,43.131z M160.476,73.471V18.82h6.05v21.02h27.084
			V18.82h6.153v54.65h-6.153V46.043h-27.084v27.428H160.476z M213.84,73.471V18.82h6.048v54.65H213.84z M234.035,73.471V18.82h5.974
			v24.311l21.406-24.311h7.24l-21.867,24.607l24.021,30.043h-7.819l-22.98-29.41v29.41H234.035z M296.501,43.131
			c3.316,1.516,5.825,3.527,7.513,6.031c1.677,2.521,2.515,5.496,2.515,8.932c0,5.023-1.482,9.074-4.468,12.145
			c-2.981,3.068-6.933,4.613-11.855,4.613c-4.015,0-7.373-1.096-10.09-3.303c-2.715-2.201-4.55-5.34-5.496-9.391l5.496-2.916
			c0.737,3.312,1.956,5.818,3.666,7.512c1.711,1.711,3.85,2.564,6.424,2.564c3.041,0,5.506-0.939,7.392-2.814
			c1.884-1.887,2.816-4.316,2.816-7.334c0-2.436-0.655-4.568-1.972-6.361c-1.311-1.812-3.293-3.328-5.928-4.574l-6.205-2.84
			c-3.385-1.518-5.917-3.465-7.56-5.857c-1.669-2.389-2.503-5.256-2.503-8.582c0.003-3.885,1.347-7.094,4.051-9.629
			c2.687-2.539,6.121-3.809,10.291-3.809c3.067,0,5.712,0.699,7.963,2.09c2.229,1.402,3.977,3.453,5.231,6.16l-5.003,3.432
			c-1.148-2.113-2.42-3.684-3.837-4.713c-1.418-1.035-3.024-1.557-4.805-1.557c-2.279,0-4.146,0.756-5.592,2.244
			c-1.459,1.486-2.178,3.389-2.178,5.705c0,1.943,0.556,3.613,1.678,5.033c1.103,1.432,2.84,2.678,5.177,3.77L296.501,43.131z
			 M316.422,73.471V18.82h6.05v21.02h27.083V18.82h6.154v54.65h-6.154V46.043h-27.083v27.428H316.422z M385.816,31.035
			l-8.098,20.119h16.218L385.816,31.035z M385.816,16.656L409,73.471h-6.586l-6.604-16.75h-19.911l-6.595,16.75h-6.589
			L385.816,16.656z"/>
		<path fill-rule="evenodd" clip-rule="evenodd" fill="#FFFFFF" d="M221.828,89.021H53.554
			c23.435-1.559,100.546-3.795,167.053-3.123C221.057,86.682,221.503,88.244,221.828,89.021"/>
		<path fill-rule="evenodd" clip-rule="evenodd" fill="#FFFFFF" d="M221.828,89.924H53.554c23.435,1.67,100.546,3.783,167.053,3.119
			C221.057,92.262,221.503,90.812,221.828,89.924"/>
		<path fill-rule="evenodd" clip-rule="evenodd" fill="#FFFFFF" d="M236.9,89.021h168.273
			c-23.322-1.559-100.438-3.795-167.056-3.123C237.678,86.682,237.347,88.244,236.9,89.021"/>
		<path fill-rule="evenodd" clip-rule="evenodd" fill="#FFFFFF" d="M236.9,89.924h168.273c-23.322,1.67-100.438,3.783-167.056,3.119
			C237.678,92.262,237.347,90.812,236.9,89.924"/>
		<polygon fill-rule="evenodd" clip-rule="evenodd" fill="#FFFFFF" points="220.713,84.336 223.624,89.463 220.713,94.6 
			226.178,90.141 229.538,95.494 232.767,90.141 238.344,94.6 235.335,89.463 238.237,84.336 232.545,88.355 229.538,83.449 
			226.408,88.355 		"/>
	</g>
	<g>
		<g>
			<path fill="#FFFFFF" d="M860.467,520.146L860.467,520.146c38.504-11.395,53.595-29.812,52.693-53.521
				C889.091,466.812,868.692,478.787,860.467,520.146z"/>
			<path fill="#FFFFFF" d="M864.576,516.234c29.081-7.711,39.882-21.586,38.592-39.684c-0.458-0.01-0.914-0.027-1.381-0.02
				C884.083,476.531,869.668,485.688,864.576,516.234z"/>
			<path fill="#FFFFFF" d="M860.449,520.146l0.014,0.002c25.838-7.645,35.779-20.189,35.176-36.111
				C879.484,484.168,865.996,492.389,860.449,520.146z"/>
			<path fill="#FFFFFF" d="M808.924,467.42c-0.666,0.016-1.332,0.021-2.008,0.041c0.179,24.078,12.153,44.479,53.521,52.699
				C849.371,482.736,831.652,467.418,808.924,467.42L808.924,467.42z"/>
			<path fill="#FFFFFF" d="M819.668,477.35c-0.93-0.006-1.87,0.035-2.823,0.102c-0.482,18.346,8.347,33.373,39.673,38.592
				C849.221,488.506,836.381,477.35,819.668,477.35L819.668,477.35z"/>
			<path fill="#FFFFFF" d="M825.693,484.957c-0.449,0-0.907,0.016-1.369,0.023c0.131,16.15,8.346,29.652,36.113,35.186
				C853.011,495.053,840.955,484.953,825.693,484.957L825.693,484.957z"/>
			<path fill="#FFFFFF" d="M860.443,520.16c19.189-35.283,16.83-58.971-0.574-75.109
				C842.973,462.209,837.018,485.098,860.443,520.16z"/>
			<path fill="#FFFFFF" d="M859.811,459.143c-13.289,12.627-17.688,29.5,0.771,55.344
				C875.698,488.477,873.535,471.023,859.811,459.143z"/>
			<path fill="#FFFFFF" d="M860.443,520.172c12.875-23.674,11.029-39.598-0.656-50.412
				C848.461,481.273,844.721,496.627,860.443,520.172z"/>
		</g>
		<path fill-rule="evenodd" clip-rule="evenodd" fill="#FFFFFF" d="M947.474,488.18c3.313,1.516,5.823,3.527,7.509,6.033
			c1.672,2.521,2.521,5.496,2.521,8.93c0,5.023-1.492,9.074-4.471,12.145c-2.985,3.068-6.938,4.613-11.857,4.613
			c-4.013,0-7.368-1.094-10.089-3.303c-2.714-2.199-4.551-5.34-5.507-9.391l5.507-2.916c0.738,3.312,1.958,5.818,3.666,7.512
			c1.715,1.713,3.849,2.564,6.423,2.564c3.041,0,5.503-0.938,7.39-2.812c1.88-1.889,2.816-4.318,2.816-7.336
			c0-2.436-0.647-4.566-1.973-6.359c-1.3-1.814-3.293-3.33-5.927-4.574l-6.201-2.842c-3.382-1.516-5.914-3.465-7.559-5.857
			c-1.666-2.387-2.504-5.254-2.504-8.58c0-3.885,1.344-7.096,4.04-9.631c2.697-2.537,6.132-3.807,10.301-3.807
			c3.068,0,5.713,0.697,7.962,2.09c2.23,1.4,3.979,3.451,5.236,6.158l-5.011,3.432c-1.146-2.111-2.418-3.684-3.829-4.713
			c-1.429-1.035-3.03-1.555-4.805-1.555c-2.284,0-4.152,0.754-5.602,2.244c-1.446,1.486-2.168,3.389-2.168,5.705
			c0,1.943,0.556,3.613,1.675,5.033c1.105,1.432,2.84,2.676,5.178,3.768L947.474,488.18z M967.392,518.521v-54.65h6.05v21.02h27.084
			v-21.02h6.153v54.65h-6.153v-27.43h-27.084v27.43H967.392z M1020.756,518.521v-54.65h6.048v54.65H1020.756z M1040.951,518.521
			v-54.65h5.974v24.309l21.406-24.309h7.24l-21.867,24.605l24.021,30.045h-7.819l-22.98-29.412v29.412H1040.951z M1103.417,488.18
			c3.316,1.516,5.825,3.527,7.513,6.033c1.677,2.521,2.515,5.496,2.515,8.93c0,5.023-1.482,9.074-4.468,12.145
			c-2.981,3.068-6.933,4.613-11.855,4.613c-4.015,0-7.373-1.094-10.09-3.303c-2.715-2.199-4.55-5.34-5.496-9.391l5.496-2.916
			c0.737,3.312,1.956,5.818,3.666,7.512c1.711,1.713,3.85,2.564,6.424,2.564c3.041,0,5.506-0.938,7.392-2.812
			c1.884-1.889,2.816-4.318,2.816-7.336c0-2.436-0.655-4.566-1.972-6.359c-1.311-1.814-3.293-3.33-5.928-4.574l-6.205-2.842
			c-3.385-1.516-5.917-3.465-7.56-5.857c-1.669-2.387-2.503-5.254-2.503-8.58c0.003-3.885,1.347-7.096,4.051-9.631
			c2.687-2.537,6.121-3.807,10.291-3.807c3.067,0,5.712,0.697,7.963,2.09c2.229,1.4,3.977,3.451,5.231,6.158l-5.003,3.432
			c-1.148-2.111-2.42-3.684-3.837-4.713c-1.418-1.035-3.024-1.555-4.805-1.555c-2.279,0-4.146,0.754-5.592,2.244
			c-1.459,1.486-2.178,3.389-2.178,5.705c0,1.943,0.556,3.613,1.678,5.033c1.103,1.432,2.84,2.676,5.177,3.768L1103.417,488.18z
			 M1123.338,518.521v-54.65h6.05v21.02h27.083v-21.02h6.154v54.65h-6.154v-27.43h-27.083v27.43H1123.338z M1192.732,476.086
			l-8.098,20.119h16.218L1192.732,476.086z M1192.732,461.707l23.184,56.814h-6.586l-6.604-16.752h-19.911l-6.595,16.752h-6.589
			L1192.732,461.707z"/>
		<path fill-rule="evenodd" clip-rule="evenodd" fill="#FFFFFF" d="M1028.744,534.072H860.47
			c23.435-1.561,100.546-3.797,167.053-3.125C1027.973,531.732,1028.419,533.293,1028.744,534.072"/>
		<path fill-rule="evenodd" clip-rule="evenodd" fill="#FFFFFF" d="M1028.744,534.975H860.47
			c23.435,1.668,100.546,3.781,167.053,3.117C1027.973,537.311,1028.419,535.861,1028.744,534.975"/>
		<path fill-rule="evenodd" clip-rule="evenodd" fill="#FFFFFF" d="M1043.816,534.072h168.273
			c-23.322-1.561-100.438-3.797-167.056-3.125C1044.594,531.732,1044.263,533.293,1043.816,534.072"/>
		<path fill-rule="evenodd" clip-rule="evenodd" fill="#FFFFFF" d="M1043.816,534.975h168.273
			c-23.322,1.668-100.438,3.781-167.056,3.117C1044.594,537.311,1044.263,535.861,1043.816,534.975"/>
		<polygon fill-rule="evenodd" clip-rule="evenodd" fill="#FFFFFF" points="1027.629,529.385 1030.54,534.514 1027.629,539.65 
			1033.094,535.189 1036.454,540.543 1039.683,535.189 1045.26,539.65 1042.251,534.514 1045.153,529.385 1039.461,533.406 
			1036.454,528.498 1033.324,533.406 		"/>
	</g>
	<g>
		<g>
			<path fill="#FFFFFF" d="M474.464,303.637L474.464,303.637c47.071-13.93,65.52-36.445,64.418-65.432
				C509.457,238.438,484.52,253.076,474.464,303.637z"/>
			<path fill="#FFFFFF" d="M479.487,298.855c35.552-9.426,48.756-26.389,47.179-48.514c-0.56-0.012-1.117-0.033-1.688-0.023
				C503.335,250.318,485.713,261.51,479.487,298.855z"/>
			<path fill="#FFFFFF" d="M474.442,303.637l0.018,0.004c31.586-9.346,43.739-24.682,43.002-44.148
				C497.713,259.654,481.224,269.703,474.442,303.637z"/>
			<path fill="#FFFFFF" d="M411.454,239.18c-0.815,0.018-1.629,0.025-2.454,0.051c0.218,29.434,14.856,54.373,65.428,64.424
				C460.899,257.904,439.239,239.176,411.454,239.18L411.454,239.18z"/>
			<path fill="#FFFFFF" d="M424.588,251.316c-1.136-0.006-2.286,0.045-3.45,0.125c-0.591,22.428,10.201,40.799,48.498,47.178
				C460.717,264.957,445.02,251.316,424.588,251.316L424.588,251.316z"/>
			<path fill="#FFFFFF" d="M431.954,260.617c-0.549,0-1.109,0.021-1.674,0.029c0.161,19.744,10.203,36.25,44.147,43.014
				C465.35,272.961,450.611,260.613,431.954,260.617L431.954,260.617z"/>
			<path fill="#FFFFFF" d="M474.435,303.654c23.46-43.135,20.576-72.092-0.7-91.822
				C453.078,232.809,445.797,260.791,474.435,303.654z"/>
			<path fill="#FFFFFF" d="M473.661,229.059c-16.244,15.438-21.622,36.064,0.943,67.66
				C493.084,264.922,490.439,243.586,473.661,229.059z"/>
			<path fill="#FFFFFF" d="M474.435,303.668c15.741-28.941,13.484-48.408-0.802-61.627
				C459.786,256.113,455.215,274.885,474.435,303.668z"/>
		</g>
		<path fill-rule="evenodd" clip-rule="evenodd" fill="#FFFFFF" d="M580.83,264.559c4.05,1.852,7.119,4.312,9.179,7.375
			c2.044,3.082,3.083,6.717,3.083,10.916c0,6.143-1.824,11.094-5.466,14.848c-3.649,3.75-8.482,5.639-14.496,5.639
			c-4.905,0-9.007-1.338-12.334-4.037c-3.316-2.689-5.562-6.527-6.73-11.48l6.73-3.564c0.903,4.051,2.396,7.113,4.482,9.184
			c2.097,2.092,4.705,3.135,7.852,3.135c3.719,0,6.729-1.146,9.035-3.439c2.297-2.309,3.442-5.277,3.442-8.967
			c0-2.977-0.792-5.584-2.411-7.775c-1.589-2.217-4.025-4.07-7.245-5.592l-7.581-3.473c-4.135-1.855-7.23-4.236-9.241-7.162
			c-2.037-2.918-3.061-6.424-3.061-10.488c0-4.75,1.642-8.674,4.938-11.773c3.298-3.104,7.496-4.656,12.594-4.656
			c3.75,0,6.982,0.854,9.732,2.557c2.728,1.713,4.864,4.219,6.401,7.529l-6.126,4.195c-1.399-2.582-2.956-4.504-4.681-5.762
			c-1.747-1.266-3.704-1.902-5.874-1.902c-2.791,0-5.075,0.922-6.848,2.744c-1.769,1.816-2.65,4.143-2.65,6.975
			c0,2.375,0.68,4.416,2.047,6.152c1.353,1.75,3.472,3.273,6.33,4.607L580.83,264.559z M605.179,301.65V234.84h7.396v25.697h33.11
			V234.84h7.521v66.811h-7.521v-33.533h-33.11v33.533H605.179z M670.417,301.65V234.84h7.394v66.811H670.417z M695.105,301.65
			V234.84h7.303v29.719l26.169-29.719h8.851l-26.732,30.082l29.366,36.729h-9.56l-28.094-35.955v35.955H695.105z M771.47,264.559
			c4.055,1.852,7.121,4.312,9.184,7.375c2.051,3.082,3.074,6.717,3.074,10.916c0,6.143-1.812,11.094-5.461,14.848
			c-3.646,3.75-8.475,5.639-14.494,5.639c-4.907,0-9.013-1.338-12.334-4.037c-3.318-2.689-5.562-6.527-6.72-11.48l6.72-3.564
			c0.901,4.051,2.391,7.113,4.481,9.184c2.092,2.092,4.706,3.135,7.853,3.135c3.718,0,6.731-1.146,9.036-3.439
			c2.303-2.309,3.443-5.277,3.443-8.967c0-2.977-0.8-5.584-2.41-7.775c-1.602-2.217-4.025-4.07-7.247-5.592l-7.585-3.473
			c-4.138-1.855-7.233-4.236-9.242-7.162c-2.039-2.918-3.059-6.424-3.059-10.488c0.003-4.75,1.646-8.674,4.951-11.773
			c3.284-3.104,7.483-4.656,12.58-4.656c3.751,0,6.983,0.854,9.735,2.557c2.725,1.713,4.861,4.219,6.396,7.529l-6.117,4.195
			c-1.403-2.582-2.957-4.504-4.689-5.762c-1.734-1.266-3.697-1.902-5.874-1.902c-2.786,0-5.068,0.922-6.836,2.744
			c-1.784,1.816-2.662,4.143-2.662,6.975c0,2.375,0.68,4.416,2.051,6.152c1.348,1.75,3.472,3.273,6.328,4.607L771.47,264.559z
			 M795.823,301.65V234.84h7.396v25.697h33.108V234.84h7.524v66.811h-7.524v-33.533h-33.108v33.533H795.823z M880.657,249.771
			l-9.9,24.596h19.828L880.657,249.771z M880.657,232.195l28.341,69.455h-8.05l-8.074-20.479h-24.342l-8.062,20.479h-8.054
			L880.657,232.195z"/>
		<path fill-rule="evenodd" clip-rule="evenodd" fill="#FFFFFF" d="M680.183,320.66H474.468
			c28.649-1.906,122.916-4.641,204.221-3.818C679.239,317.799,679.785,319.709,680.183,320.66"/>
		<path fill-rule="evenodd" clip-rule="evenodd" fill="#FFFFFF" d="M680.183,321.764H474.468
			c28.649,2.039,122.916,4.623,204.221,3.812C679.239,324.621,679.785,322.85,680.183,321.764"/>
		<path fill-rule="evenodd" clip-rule="evenodd" fill="#FFFFFF" d="M698.607,320.66h205.714
			c-28.512-1.906-122.785-4.641-204.224-3.818C699.559,317.799,699.154,319.709,698.607,320.66"/>
		<path fill-rule="evenodd" clip-rule="evenodd" fill="#FFFFFF" d="M698.607,321.764h205.714
			c-28.512,2.039-122.785,4.623-204.224,3.812C699.559,324.621,699.154,322.85,698.607,321.764"/>
		<polygon fill-rule="evenodd" clip-rule="evenodd" fill="#FFFFFF" points="678.818,314.932 682.378,321.201 678.818,327.479 
			685.5,322.027 689.607,328.572 693.555,322.027 700.372,327.479 696.694,321.201 700.242,314.932 693.284,319.848 
			689.607,313.848 685.781,319.848 		"/>
	</g>
	<g>
		<path fill="#FFFFFF" d="M1163.185,75.096L1163.185,75.096c38.504-11.393,53.595-29.811,52.693-53.521
			C1191.809,21.764,1171.41,33.738,1163.185,75.096z"/>
		<path fill="#FFFFFF" d="M1167.294,71.186c29.081-7.711,39.882-21.586,38.592-39.684c-0.458-0.01-0.914-0.027-1.381-0.02
			C1186.801,31.482,1172.386,40.637,1167.294,71.186z"/>
		<path fill="#FFFFFF" d="M1163.167,75.096l0.014,0.004c25.838-7.645,35.779-20.189,35.176-36.113
			C1182.202,39.119,1168.714,47.338,1163.167,75.096z"/>
		<path fill="#FFFFFF" d="M1111.642,22.371c-0.666,0.014-1.332,0.02-2.008,0.041c0.179,24.076,12.153,44.477,53.521,52.697
			C1152.089,37.688,1134.37,22.367,1111.642,22.371L1111.642,22.371z"/>
		<path fill="#FFFFFF" d="M1122.386,32.299c-0.93-0.006-1.87,0.037-2.823,0.102c-0.482,18.346,8.347,33.373,39.673,38.592
			C1151.938,43.457,1139.099,32.299,1122.386,32.299L1122.386,32.299z"/>
		<path fill="#FFFFFF" d="M1128.411,39.906c-0.449,0-0.907,0.018-1.369,0.023c0.131,16.152,8.346,29.654,36.113,35.188
			C1155.729,50.004,1143.673,39.902,1128.411,39.906L1128.411,39.906z"/>
		<path fill="#FFFFFF" d="M1163.161,75.109c19.189-35.283,16.83-58.969-0.574-75.109C1145.69,17.16,1139.735,40.049,1163.161,75.109
			z"/>
		<path fill="#FFFFFF" d="M1162.528,14.092c-13.289,12.627-17.688,29.502,0.771,55.346
			C1178.416,43.428,1176.253,25.975,1162.528,14.092z"/>
		<path fill="#FFFFFF" d="M1163.161,75.123c12.875-23.674,11.029-39.598-0.656-50.412
			C1151.179,36.223,1147.438,51.578,1163.161,75.123z"/>
	</g>
	<g>
		<path fill="#FFFFFF" d="M53.551,540.516L53.551,540.516c38.504-11.393,53.595-29.811,52.693-53.521
			C82.175,487.184,61.776,499.158,53.551,540.516z"/>
		<path fill="#FFFFFF" d="M57.66,536.605c29.081-7.711,39.882-21.586,38.592-39.684c-0.458-0.01-0.914-0.027-1.381-0.02
			C77.167,496.902,62.752,506.057,57.66,536.605z"/>
		<path fill="#FFFFFF" d="M53.533,540.516l0.014,0.004c25.838-7.645,35.779-20.189,35.176-36.113
			C72.568,504.539,59.08,512.758,53.533,540.516z"/>
		<path fill="#FFFFFF" d="M2.008,487.791c-0.666,0.014-1.332,0.02-2.008,0.041c0.179,24.076,12.153,44.477,53.521,52.697
			C42.455,503.107,24.736,487.787,2.008,487.791L2.008,487.791z"/>
		<path fill="#FFFFFF" d="M12.752,497.719c-0.93-0.006-1.87,0.037-2.823,0.102c-0.482,18.346,8.347,33.373,39.673,38.592
			C42.305,508.877,29.465,497.719,12.752,497.719L12.752,497.719z"/>
		<path fill="#FFFFFF" d="M18.777,505.326c-0.449,0-0.907,0.018-1.369,0.023c0.131,16.152,8.346,29.654,36.113,35.188
			C46.095,515.424,34.039,505.322,18.777,505.326L18.777,505.326z"/>
		<path fill="#FFFFFF" d="M53.527,540.529c19.189-35.283,16.83-58.969-0.574-75.109C36.057,482.58,30.102,505.469,53.527,540.529z"
			/>
		<path fill="#FFFFFF" d="M52.895,479.512c-13.289,12.627-17.688,29.502,0.771,55.346C68.782,508.848,66.619,491.395,52.895,479.512
			z"/>
		<path fill="#FFFFFF" d="M53.527,540.543c12.875-23.674,11.029-39.598-0.656-50.412C41.545,501.643,37.805,516.998,53.527,540.543z
			"/>
	</g>
</g>
</svg>
