
<svg xmlns="http://www.w3.org/2000/svg" version="1.1" xmlns:xlink="http://www.w3.org/1999/xlink" preserveAspectRatio="none" x="0px" y="0px" width="224px" height="239px" viewBox="0 0 224 239">
<defs>
<filter id="Filter_1" x="-20%" y="-20%" width="140%" height="140%" color-interpolation-filters="sRGB">
<feFlood flood-color="#000000" flood-opacity="1" in="SourceGraphic" result="result1"/>

<feComposite in2="SourceGraphic" in="result1" operator="in" result="result2"/>

<feGaussianBlur in="result2" stdDeviation="6.666666666666667,6.666666666666667" result="result3"/>

<feOffset dx="0" dy="0" in="result3" result="result4"/>

<feComposite in2="result4" in="SourceGraphic" operator="over" result="result5"/>
</filter>

<g id="Duplicate_Items_Folder_Symbol_10_0_Layer2_0_FILL">
<path fill="#F2F2F2" stroke="none" d="
M 37.35 -54.3
Q 31.032421875 -72.80390625 24.9 -92 18.7892578125 -111.1310546875 10.2 -116.95 1.603515625 -122.7248046875 -12.8 -121.4 -27.2017578125 -120.0728515625 -38.75 -114.6 -50.2970703125 -109.1279296875 -63.45 -98.9 -76.6048828125 -88.6576171875 -86.1 -75.7 -95.5388671875 -62.749609375 -101.95 -47.1 -108.3560546875 -31.4001953125 -111.8 -10.4 -115.2560546875 10.586328125 -112.9 31.7 -110.485546875 52.867578125 -100.4 61.9 -90.262109375 70.9361328125 -79.4 71.9 -68.497265625 72.926953125 -61.1 69.55 -53.6419921875 66.163671875 -44.6 63.1 -35.5634765625 60.0337890625 -11.05 55.15 7.6330078125 51.4759765625 21.25 51.35 28.345703125 51.239453125 24.4 58.4 6.7447265625 79.67421875 0.3 96.8 -6.14453125 113.93359375 -2.3 118.55 1.591015625 123.15390625 13.2 123.4 24.8166015625 123.7033203125 32.45 117 40.144921875 110.3466796875 53.2 94.9 66.303125 79.453515625 75.2 74.75 84.1072265625 70.046875 88.45 70.2 92.8267578125 70.409765625 101.35 63.9 109.888671875 57.4578125 114.45 36.55 119.051953125 15.680078125 111.15 6.4 103.3015625 -2.8306640625 91.9 -5.75 80.5 -8.6083984375 62.05 -22.2 43.655078125 -35.752734375 37.35 -54.3 Z"/>
</g>

<g id="Mask_Duplicate_Items_Folder_Symbol_10_0_1_MASK_0_FILL">
<path fill="#FFFFFF" stroke="none" d="
M 37.35 -54.3
Q 31.032421875 -72.80390625 24.9 -92 18.7892578125 -111.1310546875 10.2 -116.95 1.603515625 -122.7248046875 -12.8 -121.4 -27.2017578125 -120.0728515625 -38.75 -114.6 -50.2970703125 -109.1279296875 -63.45 -98.9 -76.6048828125 -88.6576171875 -86.1 -75.7 -95.5388671875 -62.749609375 -101.95 -47.1 -108.3560546875 -31.4001953125 -111.8 -10.4 -115.2560546875 10.586328125 -112.9 31.7 -110.485546875 52.867578125 -100.4 61.9 -90.262109375 70.9361328125 -79.4 71.9 -68.497265625 72.926953125 -61.1 69.55 -53.6419921875 66.163671875 -44.6 63.1 -35.5634765625 60.0337890625 -11.05 55.15 7.6330078125 51.4759765625 21.25 51.35 28.345703125 51.239453125 24.4 58.4 6.7447265625 79.67421875 0.3 96.8 -6.14453125 113.93359375 -2.3 118.55 1.591015625 123.15390625 13.2 123.4 24.8166015625 123.7033203125 32.45 117 40.144921875 110.3466796875 53.2 94.9 66.303125 79.453515625 75.2 74.75 84.1072265625 70.046875 88.45 70.2 92.8267578125 70.409765625 101.35 63.9 109.888671875 57.4578125 114.45 36.55 119.051953125 15.680078125 111.15 6.4 103.3015625 -2.8306640625 91.9 -5.75 80.5 -8.6083984375 62.05 -22.2 43.655078125 -35.752734375 37.35 -54.3 Z"/>
</g>

<g id="Duplicate_Items_Folder_Symbol_9_1_Layer0_0_FILL">
<path fill="#91BD63" stroke="none" d="
M -54.3 -14.6
Q -51.85 -13.3 -49.25 -14 -43.1 -15.5 -39.55 -21.1 -37.9 -23.65 -36.65 -26.35 -34.05 -31.85 -35.45 -37.75 -35.8 -39.2 -37.25 -39.9 -37.8 -40.2 -38.35 -40.35 -38.5 -40.4 -38.65 -40.4 -40.8 -40.9 -42.95 -39.5 -46.55 -37.05 -49.25 -33.7 -53.95 -28.25 -56.6 -21.55 -58.05 -17.85 -55.75 -15.65 -55.55 -15.45 -55.25 -15.2 -54.8 -14.9 -54.3 -14.6
M 12.2 -99.8
Q 12.1 -100 12.05 -100.15 5.75 -114.5 -9.25 -114.05 -30.65 -113.5 -46.55 -102.95 -62.5 -92.45 -72.4 -82.05 -82.3 -71.65 -94.5 -49 -106.7 -26.4 -106.8 9.05 -106.95 44.45 -93.1 57.45 -84.5 65.5 -70.1 62.25 -66.45 61.4 -62.4 59.85 -56.9 57.7 -50.65 54.2 -22.4 38.15 -8.4 16.75 -15.95 14.95 -27.1 6.85 -29.1 5.4 -30.95 4 -49.3 -9.55 -55.25 -15.2 -55.55 -15.45 -55.75 -15.65 -58.05 -17.85 -56.6 -21.55 -53.95 -28.25 -49.25 -33.7 -46.55 -37.05 -42.95 -39.5 -40.8 -40.9 -38.65 -40.4 -38.5 -40.4 -38.35 -40.35 -31.45 -38.95 -24.3 -37.1 -15.85 -35 -7.05 -32.25 4.05 -29.05 11.6 -28.4 4.05 -29.05 -7.05 -32.25 -15.85 -35 -24.3 -37.1 -31.45 -38.95 -38.35 -40.35 -37.8 -40.2 -37.25 -39.9 -35.8 -39.2 -35.45 -37.75 -34.05 -31.85 -36.65 -26.35 -37.9 -23.65 -39.55 -21.1 -43.1 -15.5 -49.25 -14 -51.85 -13.3 -54.3 -14.6 -54.8 -14.9 -55.25 -15.2 -49.3 -9.55 -30.95 4 -29.1 5.4 -27.1 6.85 -15.95 14.95 -8.4 16.75 -8.25 16.45 -8.1 16.2 5.85 -5.55 12.75 -31.25 19.45 -56 15.8 -85.3 14.75 -93.8 12.2 -99.8 Z"/>

<path fill="#598A1B" stroke="none" d="
M 52.7 46.25
Q 49 48.4 45.05 49.4 43.85 49.7 42.6 49.9 40.8 50.15 39.2 48.95 38.55 48.45 37.9 48 32.9 53.65 27.35 62.85 21.75 72.05 12.7 85.55 3.65 99.05 2.3 111.45
L 12.15 101.55
Q 15.4 98 18.55 94.35 30.1 80.8 52.7 46.25
M 80.25 -2.25
Q 75.1 -4.35 68.1 -8.15 81.95 2.5 71.5 23.6 63.35 39.95 52.7 46.25 30.1 80.8 18.55 94.35 15.4 98 12.15 101.55
L 2.3 111.45
Q 7.55 113.15 10.5 113.7 15.1 114.55 18.8 113.7 24 112.45 28.95 107.45 30.8 105.5 36.8 97.7 47.45 83.8 67.15 67.8 71.15 64.6 73.8 63.8 75.4 63.35 78.1 63.3 82 63.25 82.55 63.2 88.35 62.55 93.4 58.6 98.1 54.9 101.05 49.3 103.7 44.5 105.05 38.05 106.1 33.15 106.65 26.05 107 21.75 106.8 18.85 106.5 14.95 105.05 12.05 101.6 5.1 89.55 0.95 83.3 -1.05 80.25 -2.25 Z"/>

<path fill="#B7EC7F" stroke="none" d="
M 68.1 -8.15
Q 66.35 -9.5 64.25 -10.65 45.25 -21.2 35.95 -36.4 24.45 -55.15 19.2 -76.3 17 -91.15 12.2 -99.8 14.75 -93.8 15.8 -85.3 19.45 -56 12.75 -31.25 5.85 -5.55 -8.1 16.2 -8.25 16.45 -8.4 16.75 -22.4 38.15 -50.65 54.2 -56.9 57.7 -62.4 59.85 -29.45 49.65 -17.5 46.9 4.55 41.9 22.55 42.8 30.9 43.1 37.9 48 38.55 48.45 39.2 48.95 40.8 50.15 42.6 49.9 43.85 49.7 45.05 49.4 49 48.4 52.7 46.25 63.35 39.95 71.5 23.6 81.95 2.5 68.1 -8.15 Z"/>
</g>

<path id="Duplicate_Items_Folder_Symbol_10_0_Layer1_0_1_STROKES" stroke="#CED1D1" stroke-opacity="0.8" stroke-width="1" stroke-linejoin="round" stroke-linecap="round" fill="none" d="
M 64.25 -440.15
L 96.3 -381.55 141.55 -406.35 91.35 -497.9
M 206.1 -441.75
L 141.55 -406.35 166.3 -361.15 257.95 -411.4
M 192.45 -313.4
L 166.3 -361.15 121.15 -336.4 147.3 -288.65 192.45 -313.4 284.15 -363.7
M 196.3 -199.25
L 171.55 -244.4 123.8 -218.25 148.6 -173.05 196.3 -199.25 241.55 -224 216.75 -269.2 171.55 -244.4 147.3 -288.65 99.55 -262.5 123.8 -218.25 79.6 -194.05 104.35 -148.8 148.6 -173.05 174.75 -125.3 222.45 -151.5 196.3 -199.25 Z
M 281.35 -304.6
L 216.75 -269.2 192.45 -313.4
M 121.15 -336.4
L 96.3 -381.55 48.6 -355.4 73.4 -310.25 121.15 -336.4 Z
M 48.6 -355.4
L 4.45 -331.1 29.2 -285.95 73.4 -310.25 99.55 -262.5 55.4 -238.25 79.6 -194.05 34.45 -169.2 59.15 -124 104.35 -148.8 130.55 -101.1 174.75 -125.3 202.3 -75.15 250 -101.35 222.45 -151.5 267.7 -176.25 241.55 -224 333.1 -274.25
M 55.4 -238.25
L 10.2 -213.45 34.45 -169.2 -13.25 -143.1 11.5 -97.85 59.15 -124 85.3 -76.35 130.55 -101.1 158.05 -50.9 202.3 -75.15 227 -29.95 274.8 -56.1 250 -101.35 295.2 -126.05 267.7 -176.25 359.3 -226.55
M 55.4 -238.25
L 29.2 -285.95 -16 -261.15 10.2 -213.45 -37.55 -187.35 -13.25 -143.1 -63.45 -115.6 -38.75 -70.4 11.5 -97.85 37.7 -50.15 85.3 -76.35 112.8 -26.15 158.05 -50.9 182.8 -5.65 227 -29.95 253.15 17.7 300.95 -8.4 274.8 -56.1 319.95 -80.9 295.2 -126.05 359.7 -161.55
M 437.75 -83.4
L 346.05 -33.2 370.4 11 434.95 -24.35
M 300.95 -8.4
L 346.05 -33.2 319.95 -80.9 411.6 -131.1
M 48.6 -355.4
L 16.55 -413.95
M 349.9 81.05
L 325.15 35.8 277.45 61.95 302.2 107.25 349.9 81.05 395.15 56.3 370.4 11 325.15 35.8 300.95 -8.4
M 426.3 220.35
L 376.05 128.7 328.4 154.9 378.55 246.45
M 456.65 168.5
L 421.35 103.95 376.05 128.7 349.9 81.05
M 421.35 103.95
L 395.15 56.3 486.75 6
M 512.85 53.7
L 421.35 103.95
M 277.45 61.95
L 253.15 17.7 208.95 42 233.25 86.2 277.45 61.95 Z
M 208.95 42
L 163.8 66.75 188 110.95 233.25 86.2 258 131.45 302.2 107.25 328.4 154.9 284.15 179.1 319.45 243.6
M 165.1 182.35
L 212.85 156.2 188 110.95 140.35 137.1 165.1 182.35 191.25 230 238.95 203.9 212.85 156.2 258 131.45 284.15 179.1 238.95 203.9 289.15 295.5
M 89.95 45.2
L 116.1 92.95 163.8 66.75 137.6 19.05 89.95 45.2 65.15 0 14.95 27.5 39.7 72.75 89.95 45.2 Z
M 20.7 145.15
L 44.95 189.4 90.2 164.65 65.9 120.45 20.7 145.15 -5.45 97.5 -53.2 123.65 -27 171.35 20.7 145.15 Z
M 140.35 137.1
L 90.2 164.65 114.95 209.95 165.1 182.35
M 65.9 120.45
L 39.7 72.75 -5.45 97.5 -30.2 52.25 -77.95 78.4 -53.2 123.65 -97.45 147.9 -71.25 195.6 -27 171.35 -2.75 215.6 44.95 189.4 69.7 234.7 114.95 209.95 141.05 257.6 191.25 230 241.5 321.65
M 140.35 137.1
L 116.1 92.95 65.9 120.45
M 176.4 322.05
L 141.05 257.6 95.9 282.35 146.1 373.9
M 69.7 234.7
L 22 260.85 48.15 308.5 95.9 282.35 69.7 234.7 Z
M 98.35 400.1
L 48.15 308.5 3.95 332.8 39.25 397.2
M 137.6 19.05
L 112.8 -26.15 65.15 0 37.7 -50.15 -12.55 -22.7 14.95 27.5 -30.2 52.25 -57.75 2.1 -105.5 28.25 -77.95 78.4 -122.2 102.65 -97.45 147.9 -142.6 172.75 -116.45 220.4 -71.25 195.6 -47 239.85 -2.75 215.6 22 260.85 -22.25 285.1 3.95 332.8 -41.3 357.55 8.95 449.15
M 208.95 42
L 182.8 -5.65 137.6 19.05
M -460.3 -76.4
L -368.75 -126.6 -400.8 -185.1
M -376.3 -1.65
L -317.8 -33.65 -344 -81.4 -402.45 -49.4
M -344 -81.4
L -368.75 -126.6 -321 -152.75 -353.15 -211.3
M -120.5 -338.75
L -88.45 -280.25 -40.75 -306.4 -72.9 -364.95
M -138.65 -252.7
L -113.85 -207.5 -63.75 -235 -88.45 -280.25 -138.65 -252.7 -188.9 -344.35
M -16 -261.15
L -63.75 -235 -37.55 -187.35 -87.7 -159.75 -63.45 -115.6 -108.65 -90.8 -83.9 -45.65 -38.75 -70.4 -12.55 -22.7 -57.75 2.1 -83.9 -45.65 -131.65 -19.5 -105.5 28.25 -149.7 52.55 -122.2 102.65 -167.4 127.45 -142.6 172.75 -190.4 198.85 -164.2 246.5 -116.45 220.4 -92.25 264.6 -47 239.85 -22.25 285.1 -67.45 309.8 -41.3 357.55 -89 383.75 -38.8 475.3
M -16 -261.15
L -40.75 -306.4 4.45 -331.1 -45.85 -422.75
M -263.65 -260.4
L -231.55 -201.8 -183.85 -228 -215.95 -286.5
M -180.6 -108.85
L -206.8 -156.55 -251 -132.35 -224.9 -84.65 -180.6 -108.85 -132.9 -135.05 -159.1 -182.75 -206.8 -156.55 -231.55 -201.8 -275.8 -177.55 -251 -132.35 -296.25 -107.6 -270.1 -59.85 -224.9 -84.65 -200.65 -40.4 -156.4 -64.65 -180.6 -108.85 Z
M -344 -81.4
L -296.25 -107.6 -321 -152.75 -275.8 -177.55 -326.05 -269.2
M -270.1 -59.85
L -317.8 -33.65 -293.5 10.55 -245.8 -15.65 -270.1 -59.85 Z
M -200.65 -40.4
L -245.8 -15.65 -221.1 29.55 -175.85 4.8 -200.65 -40.4 Z
M -87.7 -159.75
L -132.9 -135.05 -108.65 -90.8 -156.4 -64.65 -131.65 -19.5 -175.85 4.8 -149.7 52.55 -194.9 77.3 -167.4 127.45 -215.15 153.6 -190.4 198.85 -248.8 231
M -138.65 -252.7
L -183.85 -228 -159.1 -182.75 -113.85 -207.5 -87.7 -159.75
M -194.9 77.3
L -221.1 29.55 -268.8 55.75 -242.6 103.45 -194.9 77.3 Z
M -327.25 87.85
L -268.8 55.75 -293.5 10.55 -385.15 60.7
M -306.65 203.8
L -215.15 153.6 -242.6 103.45 -301.05 135.55
M -231.5 340.95
L -139.95 290.8 -164.2 246.5 -222.65 278.65
M -92.25 264.6
L -139.95 290.8 -115.15 336 -67.45 309.8 -92.25 264.6 Z
M -147.55 415.8
L -89 383.75 -115.15 336 -173.7 368.05"/>

<path id="Duplicate_Items_Folder_Symbol_9_1_Layer0_0_1_STROKES" stroke="#000000" stroke-width="7.3" stroke-linejoin="round" stroke-linecap="round" fill="none" d="
M 12.2 -99.8
Q 12.1 -100 12.05 -100.15 5.75 -114.5 -9.25 -114.05 -30.65 -113.5 -46.55 -102.95 -62.5 -92.45 -72.4 -82.05 -82.3 -71.65 -94.5 -49 -106.7 -26.4 -106.8 9.05 -106.95 44.45 -93.1 57.45 -84.5 65.5 -70.1 62.25 -66.45 61.4 -62.4 59.85 -56.9 57.7 -50.65 54.2 -22.4 38.15 -8.4 16.75
M 12.2 -99.8
Q 17 -91.15 19.2 -76.3 24.45 -55.15 35.95 -36.4 45.25 -21.2 64.25 -10.65 66.35 -9.5 68.1 -8.15 75.1 -4.35 80.25 -2.25 83.3 -1.05 89.55 0.95 101.6 5.1 105.05 12.05 106.5 14.95 106.8 18.85 107 21.75 106.65 26.05 106.1 33.15 105.05 38.05 103.7 44.5 101.05 49.3 98.1 54.9 93.4 58.6 88.35 62.55 82.55 63.2 82 63.25 78.1 63.3 75.4 63.35 73.8 63.8 71.15 64.6 67.15 67.8 47.45 83.8 36.8 97.7 30.8 105.5 28.95 107.45 24 112.45 18.8 113.7 15.1 114.55 10.5 113.7 7.55 113.15 2.3 111.45 3.65 99.05 12.7 85.55 21.75 72.05 27.35 62.85 32.9 53.65 37.9 48 30.9 43.1 22.55 42.8 4.55 41.9 -17.5 46.9 -29.45 49.65 -62.4 59.85
M -8.4 16.75
Q -8.25 16.45 -8.1 16.2 5.85 -5.55 12.75 -31.25 19.45 -56 15.8 -85.3 14.75 -93.8 12.2 -99.8
M 68.1 -8.15
Q 81.95 2.5 71.5 23.6 63.35 39.95 52.7 46.25 30.1 80.8 18.55 94.35 15.4 98 12.15 101.55
L 2.3 111.45
M 52.7 46.25
Q 49 48.4 45.05 49.4 43.85 49.7 42.6 49.9 40.8 50.15 39.2 48.95 38.55 48.45 37.9 48"/>

<path id="Duplicate_Items_Folder_Symbol_9_1_Layer0_0_2_STROKES" stroke="#000000" stroke-width="4" stroke-linejoin="round" stroke-linecap="round" fill="none" d="
M -8.4 16.75
Q -15.95 14.95 -27.1 6.85 -29.1 5.4 -30.95 4 -49.3 -9.55 -55.25 -15.2 -55.55 -15.45 -55.75 -15.65 -58.05 -17.85 -56.6 -21.55 -53.95 -28.25 -49.25 -33.7 -46.55 -37.05 -42.95 -39.5 -40.8 -40.9 -38.65 -40.4 -38.5 -40.4 -38.35 -40.35 -31.45 -38.95 -24.3 -37.1 -15.85 -35 -7.05 -32.25 4.05 -29.05 11.6 -28.4
M -55.25 -15.2
Q -54.8 -14.9 -54.3 -14.6 -51.85 -13.3 -49.25 -14 -43.1 -15.5 -39.55 -21.1 -37.9 -23.65 -36.65 -26.35 -34.05 -31.85 -35.45 -37.75 -35.8 -39.2 -37.25 -39.9 -37.8 -40.2 -38.35 -40.35"/>
</defs>

<g transform="matrix( 1, 0, 0, 1, 110.9,118.65) ">
<g transform="matrix( 0.899993896484375, 0, 0, 0.899993896484375, 1.35,1.35) ">
<g filter="url(#Filter_1)" transform="matrix( 1.111114501953125, 0, 0, 1.111114501953125, -124.7,-133.35) ">
<g transform="matrix( 0.899993896484375, 0, 0, 0.899993896484375, 110.95,118.7) ">
<g transform="matrix( 1, 0, 0, 1, 0,0) ">
<use xlink:href="#Duplicate_Items_Folder_Symbol_10_0_Layer2_0_FILL"/>
</g>

<mask id="Mask_Mask_1">
<g transform="matrix( 1, 0, 0, 1, 0,0) ">
<use xlink:href="#Mask_Duplicate_Items_Folder_Symbol_10_0_1_MASK_0_FILL"/>
</g>
</mask>

<g mask="url(#Mask_Mask_1)">
<g transform="matrix( 1, 0, 0, 1, 0,0) ">
<use xlink:href="#Duplicate_Items_Folder_Symbol_10_0_Layer1_0_1_STROKES"/>
</g>
</g>
</g>
</g>

<g transform="matrix( 1, 0, 0, 1, 0,0) ">
<g transform="matrix( 1, 0, 0, 1, 0,0) ">
<use xlink:href="#Duplicate_Items_Folder_Symbol_9_1_Layer0_0_FILL"/>

<use xlink:href="#Duplicate_Items_Folder_Symbol_9_1_Layer0_0_1_STROKES"/>

<use xlink:href="#Duplicate_Items_Folder_Symbol_9_1_Layer0_0_2_STROKES"/>
</g>
</g>
</g>
</g>
</svg>
