
<svg xmlns="http://www.w3.org/2000/svg" version="1.1" xmlns:xlink="http://www.w3.org/1999/xlink" preserveAspectRatio="none" x="0px" y="0px" width="1920px" height="1080px" viewBox="0 0 1920 1080">
<defs>
<g id="Layer0_0_FILL">
<path fill="#FF6600" stroke="none" d="
M 387.6 161.45
Q 384.95 161.5 382.3 161.65 318.85 165.05 273 210.9 223.45 260.45 223.45 330.6 223.45 379.4 247.45 418.25
L 249.15 420.9
Q 259.15 436.4 273 450.25 322.55 499.8 392.65 499.8 462.8 499.8 512.35 450.25 561.9 400.7 561.9 330.6 561.9 260.45 512.35 210.9 462.8 161.35 392.65 161.35 390.1 161.35 387.6 161.45 Z"/>
</g>

<path id="Layer0_0_1_STROKES" stroke="#FFFFFF" stroke-width="12" stroke-linejoin="round" stroke-linecap="round" fill="none" d="
M 1505.45 175.5
L 1336.5 484.9 1682.85 488.1 1506.05 174.2
M 88.15 70.55
L 1840.05 70.55 1840.05 1020.3 88.15 1020.3 88.15 70.55 Z
M 247.45 418.25
Q 223.45 379.4 223.45 330.6 223.45 260.45 273 210.9 318.85 165.05 382.3 161.65 384.95 161.5 387.6 161.45 390.1 161.35 392.65 161.35 462.8 161.35 512.35 210.9 561.9 260.45 561.9 330.6 561.9 400.7 512.35 450.25 462.8 499.8 392.65 499.8 322.55 499.8 273 450.25 259.15 436.4 249.15 420.9"/>
</defs>

<g id="Layer_1">
<g transform="matrix( 1, 0, 0, 1, 0,0) ">
<use xlink:href="#Layer0_0_FILL"/>

<use xlink:href="#Layer0_0_1_STROKES"/>
</g>
</g>
</svg>
