
<svg xmlns="http://www.w3.org/2000/svg" version="1.1" xmlns:xlink="http://www.w3.org/1999/xlink" preserveAspectRatio="none" x="0px" y="0px" width="211px" height="69px" viewBox="0 0 211 69">
<defs>
<linearGradient id="Gradient_1" gradientUnits="userSpaceOnUse" x1="11.3" y1="-54.9375" x2="11.3" y2="24.4375" spreadMethod="pad">
<stop  offset="0%" stop-color="#3C3C3C"/>

<stop  offset="34.509803921568626%" stop-color="#6B6B6B"/>

<stop  offset="60.3921568627451%" stop-color="#FFFFFF"/>

<stop  offset="62.745098039215684%" stop-color="#FFFFFF"/>

<stop  offset="100%" stop-color="#313131"/>
</linearGradient>

<linearGradient id="Gradient_2" gradientUnits="userSpaceOnUse" x1="-0.1" y1="22.887500000000003" x2="-0.1" y2="-24.1875" spreadMethod="pad">
<stop  offset="0%" stop-color="#79B3FF"/>

<stop  offset="100%" stop-color="#9BC3F6"/>
</linearGradient>

<filter id="Filter_1" x="-20%" y="-20%" width="140%" height="140%" color-interpolation-filters="sRGB">
<feFlood flood-color="#000000" flood-opacity="1" in="SourceGraphic" result="result1"/>

<feComposite in2="SourceGraphic" in="result1" operator="in" result="result2"/>

<feGaussianBlur in="result2" stdDeviation="0.6666666666666666,0.6666666666666666" result="result3"/>

<feOffset dx="1.4142135623730951" dy="1.4142135623730951" in="result3" result="result4"/>

<feComposite in2="result4" in="SourceGraphic" operator="over" result="result5"/>
</filter>

<filter id="Filter_2" x="-20%" y="-20.91964101790171%" width="140%" height="141.83928203580342%" color-interpolation-filters="sRGB">
<feFlood flood-color="#000000" flood-opacity="1" in="SourceGraphic" result="result1"/>

<feComposite in2="SourceGraphic" in="result1" operator="in" result="result2"/>

<feGaussianBlur in="result2" stdDeviation="1,1" result="result3"/>

<feOffset dx="1.4142135623730951" dy="1.4142135623730951" in="result3" result="result4"/>

<feComposite in2="result4" in="SourceGraphic" operator="over" result="result5"/>
</filter>

<g id="Symbol_15_copy_0_Layer0_0_FILL">
<path fill="url(#Gradient_1)" stroke="none" d="
M 65.35 -21.2
Q 57.35 -30.15 46 -30.1
L -88 -30.1
Q -99.35 -30.1 -107.35 -21.2 -115.2 -12.4 -115.2 0.05 -115.2 12.5 -107.35 21.25 -99.35 30.2 -88 30.15
L 46 30.15
Q 57.35 30.15 65.3 21.25
L 65.35 21.2
Q 73.2 12.45 73.2 0.05 73.2 -12.45 65.35 -21.2
M 46 -25.1
Q 55.15 -25.05 61.6 -17.85 68.2 -10.45 68.2 0.05 68.2 10.5 61.6 17.9 55.15 25.15 46 25.15
L -88 25.15
Q -97.15 25.1 -103.6 17.9 -110.2 10.5 -110.2 0.05 -110.2 -10.45 -103.65 -17.85
L -103.6 -17.9
Q -97.15 -25.1 -88 -25.1
L 46 -25.1 Z"/>

<path fill="#3F3F3F" stroke="none" d="
M 61.6 -17.85
Q 55.15 -25.05 46 -25.1
L -88 -25.1
Q -97.15 -25.1 -103.6 -17.9
L -103.65 -17.85
Q -110.2 -10.45 -110.2 0.05 -110.2 10.5 -103.6 17.9 -97.15 25.1 -88 25.15
L 46 25.15
Q 55.15 25.15 61.6 17.9 68.2 10.5 68.2 0.05 68.2 -10.45 61.6 -17.85
M 44.8 -23.6
Q 53.65 -23.55 59.95 -16.8 66.35 -9.85 66.35 0.05 66.35 9.85 59.95 16.85 53.65 23.65 44.8 23.65
L -86.8 23.65
Q -95.65 23.6 -101.95 16.85 -108.35 9.85 -108.35 0.05 -108.35 -9.85 -102 -16.8
L -101.95 -16.85
Q -95.65 -23.6 -86.8 -23.6
L 44.8 -23.6 Z"/>

<path fill="#68ACFF" stroke="none" d="
M 59.95 -16.8
Q 53.65 -23.55 44.8 -23.6
L -86.8 -23.6
Q -95.65 -23.6 -101.95 -16.85
L -102 -16.8
Q -108.35 -9.85 -108.35 0.05 -108.35 9.85 -101.95 16.85 -95.65 23.6 -86.8 23.65
L 44.8 23.65
Q 53.65 23.65 59.95 16.85 66.35 9.85 66.35 0.05 66.35 -9.85 59.95 -16.8 Z"/>
</g>

<g id="Symbol_15_copy_0_Layer0_1_FILL">
<path fill="#5CA2F8" stroke="none" d="
M 59.95 -16.8
Q 53.65 -23.55 44.8 -23.6
L -86.8 -23.6
Q -95.65 -23.6 -101.95 -16.85
L -102 -16.8
Q -108.35 -9.85 -108.35 0.05 -108.35 9.85 -101.95 16.85 -95.65 23.6 -86.8 23.65
L 44.8 23.65
Q 53.65 23.65 59.95 16.85 66.35 9.85 66.35 0.05 66.35 -9.85 59.95 -16.8 Z"/>
</g>

<g id="Symbol_15_copy_0_Layer0_2_FILL">
<path fill="url(#Gradient_2)" stroke="none" d="
M 59.2 -16.4
Q 52.95 -22.75 44.25 -22.8
L -86 -22.8
Q -94.8 -22.8 -100.95 -16.45
L -101 -16.4
Q -107.3 -9.9 -107.3 -0.6 -107.3 8.6 -100.95 15.15 -94.8 21.5 -86 21.55
L 44.25 21.55
Q 52.95 21.55 59.2 15.15 65.55 8.6 65.55 -0.6 65.55 -9.9 59.2 -16.4 Z"/>
</g>

<g id="Symbol_16_0_Layer0_0_FILL">
<path fill="#FFFFFF" stroke="none" d="
M 66.85 -12.25
L 70.3 -12.25 70.3 -15.5 66.85 -15.5 66.85 -12.25
M 0.05 -4.55
L 0.05 -6.55 -4.75 -6.55 -8 -12
Q -9.6 -14.45 -11.95 -16.05 -13.9 -17.4 -15.65 -17.4 -19.75 -17.4 -21.25 -13.15 -21.6 -12.15 -21.65 -11.8 -21.7 -11.4 -21.7 -10.7
L -21.7 -9.55 -20.8 -7.45 -20.2 -6.6 -72.55 -6.6 -72.55 -4.55 -47 -4.55 -47 1.8 -58.95 1.85
Q -58.5 2.2 -58.2 2.7
L -56.9 4.6
Q -56.05 5.7 -55.45 7.55 -55 9 -55 10.15 -55 11.8 -55.85 12.9 -56.65 14.05 -58.15 14.05 -60.85 14.05 -63.3 10.55 -65.35 7.7 -66.45 4.3
L -67.35 1.5 -67.45 0.85 -67.45 0.45 -69.6 2.05 -69.4 3.15 -68.45 5.75
Q -66.85 9.9 -64.8 12.45 -61.75 16 -58.4 16 -56.95 16 -55.85 15.6 -53.6 14.6 -52.9 12.45 -52.55 11.55 -52.55 11.05 -52.5 10.55 -52.5 10.05
L -52.7 8.7 -54.1 4.75
Q -54.45 3.9 -54.75 3.75
L -47 3.75 -47 19.25 -44.35 19.25 -44.35 -4.55 -36.2 -4.55 -36.2 19.25 -33.55 19.25 -33.55 -4.55 -17 -4.55 -17 1.75
Q -17.3 3.55 -18.1 4.25 -18.9 5 -20.5 5 -22.6 5 -23.4 3.75
L -25.45 0.25 -27.5 1.75 -22.45 10.05
Q -20.05 13.7 -17.55 16.55 -15.5 19 -14.75 19.25
L -12.9 17.55 -18.05 11.85 -21.65 6.65
Q -21.45 6.8 -20.7 6.9
L -19.75 6.9
Q -18.75 6.9 -17.75 6.55 -14.35 5.2 -14.35 1.95
L -14.35 -4.55 -6.8 -4.55 -6.8 19.25 -4.15 19.25 -4.15 -4.55 0.05 -4.55
M -18.1 -14.2
Q -17.2 -15.45 -15.6 -15.45 -13.75 -15.45 -11.35 -12.6 -7.35 -8 -7.35 -6.75
L -7.4 -6.55 -10.35 -6.55 -10.35 -6.6 -17.2 -6.6 -17.55 -7.05 -18.2 -8.35
Q -18.35 -8.65 -18.5 -9 -18.6 -9.4 -18.8 -9.95 -18.95 -10.5 -18.95 -11.15
L -18.95 -12.1
Q -18.55 -13.5 -18.1 -14.2
M 17.55 -6.6
L 17.55 -4.55 31.4 -4.55 31.4 1.75
Q 31.1 3.55 30.3 4.25 29.5 5 27.9 5 25.8 5 25 3.75
L 22.95 0.25 20.9 1.75 25.95 10.05
Q 28.35 13.7 30.85 16.55 32.9 19 33.65 19.25
L 35.5 17.55 30.35 11.85 26.75 6.65
Q 26.95 6.8 27.7 6.9
L 28.65 6.9
Q 29.65 6.9 30.65 6.55 34.05 5.2 34.05 1.95
L 34.05 -4.55 47.45 -4.55 47.45 2.45 47.3 3.4
Q 47 4.25 46.1 4.55
L 45.1 4.7 44.15 4.7 43.3 4.35 43 4.15 42.7 3.85 41.85 0.95 39.6 2.15 41.85 8.2
Q 42.95 10.55 44.75 12.9 47.45 16.25 51.1 17.25 52.45 17.65 54.7 17.65
L 57.35 17.4 60.15 16.6 62.85 15.45 65.1 14 65.1 19.25 67.75 19.25 67.75 -4.55 72.6 -4.55 72.6 -6.6 67.1 -6.6 56.85 -19.25 55.05 -17.35 65.45 -6.6 17.55 -6.6
M 60.15 -0.85
L 59 -0.85
Q 56.95 -0.4 55.6 1.15 54.2 2.7 54.2 4.65 54.2 5.8 54.6 6.9 56.4 10.1 59.95 10.1
L 60.8 10.1 61.75 9.9 63.6 9.1 65.1 8.05 65.1 11.35
Q 64.35 12.1 63.05 12.95
L 60.1 14.45
Q 58.65 15.1 57.45 15.35 56.3 15.6 54.9 15.6 52.35 15.6 49.95 14.4 47.6 13.25 46.25 11.05
L 45.05 9.2 43.8 6.55 46.1 6.4 47.9 5.9
Q 50 4.85 50 2.6
L 50 -4.55 65.1 -4.55 65.1 5.1
Q 64.6 5.85 64.2 6.25 62.9 7.6 61.5 7.75 60.95 7.95 60.05 7.95
L 58.75 7.75
Q 56.75 7 56.75 4.6 56.75 3.65 57 3 57.8 1.45 59.1 1.3 59.6 1.05 60.6 1.05
L 61.85 1.2 63 1.5 62.4 -0.3 61.25 -0.7 60.15 -0.85 Z"/>
</g>
</defs>

<g transform="matrix( 1.04998779296875, 0, 0, 1.04998779296875, 104.7,33.8) ">
<g filter="url(#Filter_1)" transform="matrix( 0.9523773193359375, 0, 0, 0.9523773193359375, -99.7,-32.15) ">
<g transform="matrix( 1.1034698486328125, 0, 0, 1.1034698486328125, 127.85,33.85) ">
<g transform="matrix( 1, 0, 0, 1, 0,0) ">
<use xlink:href="#Symbol_15_copy_0_Layer0_0_FILL"/>
</g>

<g transform="matrix( 1, 0, 0, 1, 0,0) ">
<use xlink:href="#Symbol_15_copy_0_Layer0_1_FILL"/>
</g>

<g transform="matrix( 1, 0, 0, 1, 0,0) ">
<use xlink:href="#Symbol_15_copy_0_Layer0_2_FILL"/>
</g>
</g>
</g>

<g filter="url(#Filter_2)" transform="matrix( 0.9523773193359375, 0, 0, 0.9523773193359375, -99.7,-32.15) ">
<g transform="matrix( 1.04998779296875, 0, 0, 1.04998779296875, 104.6,29.1) ">
<g transform="matrix( 1, 0, 0, 1, 0,0) ">
<use xlink:href="#Symbol_16_0_Layer0_0_FILL"/>
</g>
</g>
</g>
</g>
</svg>
