
<svg xmlns="http://www.w3.org/2000/svg" version="1.1" xmlns:xlink="http://www.w3.org/1999/xlink" preserveAspectRatio="none" x="0px" y="0px" width="128px" height="126px" viewBox="0 0 128 126">
<defs>
<radialGradient id="Gradient_1" gradientUnits="userSpaceOnUse" cx="0" cy="0" r="247.23750000000018" fx="0" fy="0" gradientTransform="matrix( 0.9999999999999992, 0, 0, -0.9999999999999992, 3227.45,656.15) " spreadMethod="pad">
<stop  offset="0%" stop-color="#FFFFFF"/>

<stop  offset="30.19607843137255%" stop-color="#FEFFFF"/>

<stop  offset="50.588235294117645%" stop-color="#F6F7F6"/>

<stop  offset="68.23529411764706%" stop-color="#EBEEE9"/>

<stop  offset="83.92156862745098%" stop-color="#DADFD8"/>

<stop  offset="98.43137254901961%" stop-color="#C5CDC2"/>

<stop  offset="100%" stop-color="#C4CCC0"/>
</radialGradient>

<g id="Right__Wrong__btn_icon_0_Layer0_0_FILL">
<path fill="#33A312" stroke="none" d="
M 3549.95 393.1
Q 3543.1 376.85 3530.55 364.3 3518 351.75 3501.75 344.85 3484.9 337.75 3466.45 337.75
L 2971.35 337.75
Q 2952.9 337.75 2936.05 344.85 2919.8 351.75 2907.25 364.3 2894.7 376.85 2887.85 393.1 2880.7 409.95 2880.7 428.4
L 2880.7 909.05
Q 2880.7 927.5 2887.85 944.35 2894.7 960.6 2907.25 973.15 2919.8 985.7 2936.05 992.55 2952.9 999.7 2971.35 999.7
L 3466.45 999.7
Q 3484.9 999.7 3501.75 992.55 3518 985.7 3530.55 973.15 3543.1 960.6 3549.95 944.35 3557.1 927.5 3557.1 909.05
L 3557.1 428.4
Q 3557.1 409.95 3549.95 393.1 Z"/>
</g>

<g id="Right__Wrong__btn_icon_0_Layer0_1_FILL">
<path fill="#000000" fill-opacity="0.09803921568627451" stroke="none" d="
M 3483.4 491.5
L 3483.25 491.65 3481.4 489.8 3481.25 489.95 3479.4 488.1 3479.25 488.25 3477.4 486.4 3477.2 486.55 3475.35 484.7 3475.2 484.9 3473.35 483.05 3473.2 483.2 3471.35 481.35 3471.2 481.5 3469.35 479.65 3469.15 479.8 3467.3 477.95 3467.15 478.1 3465.3 476.25 3465.15 476.45 3463.3 474.6 3463.15 474.75 3461.3 472.9 3461.1 473.05 3459.25 471.2 3459.1 471.35 3457.25 469.5 3457.1 469.65 3455.25 467.8 3455.1 467.95 3453.25 466.1 3453.05 466.3 3451.2 464.45 3451.05 464.6 3449.2 462.75 3449.05 462.9 3447.2 461.05 3447.05 461.2 3445.2 459.35 3445 459.5 3443.15 457.65 3443 457.85 3441.15 456 3441 456.15 3439.15 454.3 3439 454.45 3437.1 452.6 3436.95 452.75 3435.1 450.9 3434.95 451.05 3433.1 449.2 3432.95 449.35 3431.1 447.5 3180.3 698.3 3178.85 696.85 3178.7 697 3176.85 695.15 3176.7 695.35 3174.85 693.5 3174.7 693.65 3172.85 691.8 3172.65 691.95 3170.8 690.1 3170.65 690.25 3168.8 688.4 3168.65 688.55 3166.8 686.7 3166.6 686.9 3164.75 685 3164.6 685.2 3162.75 683.35 3162.6 683.5 3160.75 681.65 3160.6 681.8 3158.75 679.95 3158.55 680.1 3156.7 678.25 3156.55 678.4 3154.7 676.55 3154.55 676.75 3152.7 674.9 3152.55 675.05 3150.7 673.2 3150.5 673.35 3148.65 671.5 3148.5 671.65 3146.65 669.8 3146.5 669.95 3144.65 668.1 3144.5 668.3 3142.65 666.4 3142.45 666.6 3140.6 664.75 3140.45 664.9 3138.6 663.05 3138.45 663.2 3136.6 661.35 3136.45 661.5 3134.6 659.65 3134.4 659.8 3132.55 657.95 3132.4 658.15 3130.55 656.3 3130.4 656.45 3128.55 654.6 3128.4 654.75 3126.55 652.9 3126.35 653.05 3124.5 651.2 3124.35 651.35 3122.5 649.5 3122.35 649.7 3120.5 647.8 3120.35 648 3118.45 646.15 3118.3 646.3 3116.45 644.45 3116.3 644.6 3114.45 642.75 3114.3 642.9 3112.45 641.05 3112.25 641.2 3110.4 639.35 3110.25 639.55 3108.4 637.7 3108.25 637.85 3106.4 636 3106.25 636.15 3104.4 634.3 3104.2 634.45 3102.35 632.6 3102.2 632.75 3100.35 630.9 3100.2 631.1 3098.35 629.2 3098.2 629.4 3096.35 627.55 3096.15 627.7 3094.3 625.85 3094.15 626 3092.3 624.15 3092.15 624.3 3090.3 622.45 3090.15 622.6 3088.3 620.75 3088.1 620.95 3086.25 619.1 3086.1 619.25 3084.25 617.4 3084.1 617.55 3082.25 615.7 3082.1 615.85 3080.25 614 3080.05 614.15 3078.2 612.3 3078.05 612.5 3076.2 610.6 3076.05 610.8 3074.2 608.95 3074.05 609.1 3072.2 607.25 3072 607.4 3070.15 605.55 3070 605.7 3068.15 603.85 3068 604 3066.15 602.15 3066 602.35 3064.1 600.5 3063.95 600.65 3062.1 598.8 3061.95 598.95 3060.1 597.1 3059.95 597.25 3058.1 595.4 3057.9 595.55 3056.05 593.7 3055.9 593.9 3054.05 592 3053.9 592.2 3052.05 590.35 3051.9 590.5 3050.05 588.65 3049.85 588.8 3048 586.95 3047.85 587.1 3046 585.25 3045.85 585.4 3044 583.55 3043.85 583.75 3042 581.9 3041.8 582.05 3039.95 580.2 3039.8 580.35 3037.95 578.5 3037.8 578.65 3035.95 576.8 3035.8 576.95 3033.95 575.1 3033.75 575.3 3031.9 573.4 3031.75 573.6 3029.9 571.75 3029.75 571.9 3027.9 570.05 3027.75 570.2 3025.9 568.35 3025.7 568.5 3023.85 566.65 2946.85 643.65 3090.9 787.7 3090.85 787.75 3167.9 864.75 3168.05 864.6 3169.9 866.45 3170.05 866.3 3171.9 868.15 3172.05 867.95 3173.9 869.8 3174.1 869.65 3175.95 871.5 3176.1 871.35 3177.95 873.2 3178.1 873.05 3179.95 874.9 3180.1 874.75 3181.95 876.6 3182.15 876.4 3184 878.3 3184.15 878.1 3186 879.95 3186.15 879.8 3188 881.65 3188.15 881.5 3190 883.35 3190.2 883.2 3192.05 885.05 3192.2 884.9 3194.05 886.75 3194.2 886.55 3196.05 888.4 3196.2 888.25 3198.05 890.1 3198.25 889.95 3200.1 891.8 3200.25 891.65 3202.1 893.5 3202.25 893.35 3204.1 895.2 3204.25 895 3206.15 896.9 3206.3 896.7 3208.15 898.55 3208.3 898.4 3210.15 900.25 3210.3 900.1 3212.15 901.95 3212.35 901.8 3214.2 903.65 3214.35 903.5 3216.2 905.35 3216.35 905.15 3218.2 907 3218.35 906.85 3220.2 908.7 3220.4 908.55 3222.25 910.4 3222.4 910.25 3224.25 912.1 3224.4 911.95 3226.25 913.8 3226.4 913.6 3228.25 915.5 3228.45 915.3 3230.3 917.15 3230.45 917 3232.3 918.85 3232.45 918.7 3234.3 920.55 3234.45 920.4 3236.3 922.25 3236.5 922.1 3238.35 923.95 3238.5 923.75 3240.35 925.6 3240.5 925.45 3242.35 927.3 3242.5 927.15 3244.35 929 3244.55 928.85 3246.4 930.7 3246.55 930.55 3248.4 932.4 3248.55 932.2 3250.4 934.1 3250.55 933.9 3252.45 935.75 3252.6 935.6 3254.45 937.45 3254.6 937.3 3256.45 939.15 3256.6 939 3258.45 940.85 3258.6 940.7 3260.5 942.55 3260.65 942.35 3262.5 944.2 3262.65 944.05 3264.5 945.9 3264.65 945.75 3266.5 947.6 3266.7 947.45 3268.55 949.3 3268.7 949.15 3270.55 951 3270.7 950.8 3272.55 952.7 3272.7 952.5 3274.55 954.35 3274.75 954.2 3276.6 956.05 3276.75 955.9 3278.6 957.75 3278.75 957.6 3280.6 959.45 3280.75 959.3 3282.6 961.15 3282.8 960.95 3284.65 962.8 3284.8 962.65 3286.65 964.5 3286.8 964.35 3288.65 966.2 3288.8 966.05 3290.65 967.9 3290.85 967.75 3292.7 969.6 3292.85 969.4 3294.7 971.3 3294.85 971.1 3296.7 972.95 3296.85 972.8 3298.7 974.65 3298.9 974.5 3300.75 976.35 3300.9 976.2 3302.75 978.05 3302.9 977.9 3304.75 979.75 3304.9 979.55 3306.8 981.4 3306.95 981.25 3308.8 983.1 3308.95 982.95 3310.8 984.8 3310.95 984.65 3312.8 986.5 3313 986.35 3314.85 988.2 3315 988.05 3316.85 989.9 3317 989.7 3318.85 991.55 3319 991.4 3320.85 993.25 3321.05 993.1 3322.9 994.95 3323.05 994.8 3324.9 996.65 3325.05 996.5 3326.9 998.35 3327.05 998.15 3328.6 999.7 3466.45 999.7
Q 3484.9 999.7 3501.75 992.55 3518 985.7 3530.55 973.15 3543.1 960.6 3549.95 944.35 3557.1 927.5 3557.1 909.05
L 3557.1 553.55 3555.9 552.35 3555.75 552.5 3553.9 550.65 3553.7 550.85 3551.85 549 3551.7 549.15 3549.85 547.3 3549.7 547.45 3547.85 545.6 3547.7 545.75 3545.85 543.9 3545.65 544.05 3543.8 542.2 3543.65 542.35 3541.8 540.5 3541.65 540.7 3539.8 538.85 3539.65 539 3537.75 537.15 3537.6 537.3 3535.75 535.45 3535.6 535.6 3533.75 533.75 3533.6 533.9 3531.75 532.05 3531.55 532.25 3529.7 530.4 3529.55 530.55 3527.7 528.7 3527.55 528.85 3525.7 527 3525.55 527.15 3523.7 525.3 3523.5 525.45 3521.65 523.6 3521.5 523.75 3519.65 521.9 3519.5 522.1 3517.65 520.25 3517.5 520.4 3515.65 518.55 3515.45 518.7 3513.6 516.85 3513.45 517 3511.6 515.15 3511.45 515.3 3509.6 513.45 3509.45 513.65 3507.6 511.8 3507.4 511.95 3505.55 510.1 3505.4 510.25 3503.55 508.4 3503.4 508.55 3501.55 506.7 3501.4 506.85 3499.55 505 3499.35 505.15 3497.5 503.3 3497.35 503.5 3495.5 501.65 3495.35 501.8 3493.5 499.95 3493.35 500.1 3491.5 498.25 3491.3 498.4 3489.45 496.55 3489.3 496.7 3487.45 494.85 3487.3 495.05 3485.45 493.2 3485.3 493.35 3483.4 491.5 Z"/>
</g>

<g id="Right__Wrong__btn_icon_0_Layer0_2_FILL">
<path fill="url(#Gradient_1)" stroke="none" d="
M 3508.1 524.55
L 3431.1 447.5 3167.9 710.7 3023.85 566.65 2946.85 643.65 3090.9 787.7 3090.85 787.75 3167.9 864.75 3508.1 524.55 Z"/>
</g>
</defs>

<g transform="matrix( 1, 0, 0, 1, 64.4,63) ">
<g transform="matrix( 0.190460205078125, 0, 0, 0.190460205078125, -613.05,-127.35) ">
<use xlink:href="#Right__Wrong__btn_icon_0_Layer0_0_FILL"/>
</g>

<g transform="matrix( 0.190460205078125, 0, 0, 0.190460205078125, -613.05,-127.35) ">
<use xlink:href="#Right__Wrong__btn_icon_0_Layer0_1_FILL"/>
</g>

<g transform="matrix( 0.190460205078125, 0, 0, 0.190460205078125, -613.05,-127.35) ">
<use xlink:href="#Right__Wrong__btn_icon_0_Layer0_2_FILL"/>
</g>
</g>
</svg>
