
<svg xmlns="http://www.w3.org/2000/svg" version="1.1" xmlns:xlink="http://www.w3.org/1999/xlink" preserveAspectRatio="none" x="0px" y="0px" width="128px" height="126px" viewBox="0 0 128 126">
<defs>
<radialGradient id="Gradient_1" gradientUnits="userSpaceOnUse" cx="0" cy="0" r="221.0374999999999" fx="0" fy="0" gradientTransform="matrix( 1.0000000000000004, 0, 0, -1.0000000000000004, 2420.65,668.7) " spreadMethod="pad">
<stop  offset="0%" stop-color="#FFFFFF"/>

<stop  offset="30.19607843137255%" stop-color="#FEFFFF"/>

<stop  offset="50.588235294117645%" stop-color="#F6F7F6"/>

<stop  offset="68.23529411764706%" stop-color="#EBEEE9"/>

<stop  offset="83.92156862745098%" stop-color="#DADFD8"/>

<stop  offset="98.43137254901961%" stop-color="#C5CDC2"/>

<stop  offset="100%" stop-color="#C4CCC0"/>
</radialGradient>

<g id="Right__Wrong__btn_icon_1_Layer0_0_MEMBER_0_FILL">
<path fill="#E02D25" stroke="none" d="
M 2751.7 393.1
Q 2744.85 376.85 2732.3 364.3 2719.75 351.75 2703.5 344.85 2686.65 337.75 2668.2 337.75
L 2173.1 337.75
Q 2154.65 337.75 2137.8 344.85 2121.55 351.75 2109 364.3 2096.45 376.85 2089.6 393.1 2082.45 409.95 2082.45 428.4
L 2082.45 909.05
Q 2082.45 927.5 2089.6 944.35 2096.45 960.6 2109 973.15 2121.55 985.7 2137.8 992.55 2154.65 999.7 2173.1 999.7
L 2668.2 999.7
Q 2686.65 999.7 2703.5 992.55 2719.75 985.7 2732.3 973.15 2744.85 960.6 2751.7 944.35 2758.85 927.5 2758.85 909.05
L 2758.85 428.4
Q 2758.85 409.95 2751.7 393.1 Z"/>
</g>

<g id="Right__Wrong__btn_icon_1_Layer0_0_MEMBER_1_FILL">
<path fill="#000000" fill-opacity="0.09803921568627451" stroke="none" d="
M 2604.95 481.45
L 2604.8 481.65 2602.95 479.8 2602.8 479.95 2600.95 478.1 2600.75 478.25 2598.9 476.4 2598.75 476.55 2596.9 474.7 2596.75 474.85 2594.9 473 2594.75 473.2 2592.9 471.35 2592.7 471.5 2590.85 469.65 2590.7 469.8 2588.85 467.95 2588.7 468.1 2586.85 466.25 2586.7 466.4 2584.85 464.55 2584.65 464.75 2582.8 462.85 2582.65 463.05 2580.8 461.2 2580.65 461.35 2578.8 459.5 2578.65 459.65 2576.8 457.8 2576.6 457.95 2574.75 456.1 2574.6 456.25 2572.75 454.4 2572.6 454.6 2570.75 452.75 2570.6 452.9 2568.75 451.05 2568.55 451.2 2566.7 449.35 2566.55 449.5 2564.7 447.65 2433.05 579.3 2431.6 577.85 2431.45 578 2429.6 576.15 2429.45 576.35 2427.6 574.45 2427.45 574.65 2425.6 572.8 2425.4 572.95 2423.55 571.1 2423.4 571.25 2421.55 569.4 2421.4 569.55 2419.55 567.7 2419.4 567.85 2417.5 566 2417.35 566.2 2415.5 564.35 2415.35 564.5 2413.5 562.65 2413.35 562.8 2411.5 560.95 2411.3 561.1 2409.45 559.25 2409.3 559.4 2407.45 557.55 2407.3 557.75 2405.45 555.85 2405.3 556.05 2403.45 554.2 2403.25 554.35 2401.4 552.5 2401.25 552.65 2399.4 550.8 2399.25 550.95 2397.4 549.1 2397.25 549.25 2395.4 547.4 2395.2 547.6 2393.35 545.75 2393.2 545.9 2391.35 544.05 2391.2 544.2 2389.35 542.35 2389.2 542.5 2387.35 540.65 2387.15 540.8 2385.3 538.95 2385.15 539.15 2383.3 537.25 2383.15 537.45 2381.3 535.6 2381.15 535.75 2379.3 533.9 2379.1 534.05 2377.25 532.2 2377.1 532.35 2375.25 530.5 2375.1 530.65 2373.25 528.8 2373.1 529 2371.25 527.15 2371.05 527.3 2369.2 525.45 2369.05 525.6 2367.2 523.75 2367.05 523.9 2365.2 522.05 2365.05 522.2 2363.15 520.35 2363 520.55 2361.15 518.65 2361 518.85 2359.15 517 2359 517.15 2357.15 515.3 2356.95 515.45 2355.1 513.6 2354.95 513.75 2353.1 511.9 2352.95 512.05 2351.1 510.2 2350.95 510.4 2349.1 508.55 2348.9 508.7 2347.05 506.85 2346.9 507 2345.05 505.15 2344.9 505.3 2343.05 503.45 2342.9 503.6 2341.05 501.75 2340.85 501.95 2339 500.05 2338.85 500.25 2337 498.4 2336.85 498.55 2335 496.7 2334.85 496.85 2333 495 2332.8 495.15 2330.95 493.3 2330.8 493.45 2328.95 491.6 2328.8 491.8 2326.95 489.95 2326.8 490.1 2324.95 488.25 2324.75 488.4 2322.9 486.55 2322.75 486.7 2320.9 484.85 2320.75 485 2318.9 483.15 2318.75 483.35 2316.85 481.45 2316.7 481.65 2314.85 479.8 2314.7 479.95 2312.85 478.1 2312.7 478.25 2310.85 476.4 2310.7 476.55 2308.8 474.7 2308.65 474.85 2306.8 473 2306.65 473.2 2304.8 471.35 2304.65 471.5 2302.8 469.65 2302.6 469.8 2300.75 467.95 2300.6 468.1 2298.75 466.25 2298.6 466.4 2296.75 464.55 2296.6 464.75 2294.75 462.85 2294.55 463.05 2292.7 461.2 2292.55 461.35 2290.7 459.5 2290.55 459.65 2288.7 457.8 2288.55 457.95 2286.7 456.1 2286.5 456.25 2284.65 454.4 2284.5 454.6 2282.65 452.75 2282.5 452.9 2280.65 451.05 2280.5 451.2 2278.65 449.35 2278.45 449.5 2276.6 447.65 2199.6 524.65 2343.65 668.7 2199.6 812.75 2276.6 889.75 2276.8 889.6 2278.65 891.45 2278.8 891.3 2280.65 893.15 2280.8 893 2282.65 894.85 2282.8 894.65 2284.65 896.5 2284.85 896.35 2286.7 898.2 2286.85 898.05 2288.7 899.9 2288.85 899.75 2290.7 901.6 2290.85 901.45 2292.7 903.3 2292.9 903.15 2294.75 905 2294.9 904.8 2296.75 906.65 2296.9 906.5 2298.75 908.35 2298.9 908.2 2300.75 910.05 2300.95 909.9 2302.8 911.75 2302.95 911.6 2304.8 913.45 2304.95 913.25 2306.8 915.1 2306.95 914.95 2308.8 916.8 2309 916.65 2310.85 918.5 2311 918.35 2312.85 920.2 2313 920.05 2314.85 921.9 2315 921.75 2316.85 923.6 2317.05 923.4 2318.9 925.25 2319.05 925.1 2320.9 926.95 2321.05 926.8 2322.9 928.65 2323.05 928.5 2324.95 930.35 2325.1 930.2 2326.95 932.05 2327.1 931.85 2328.95 933.7 2329.1 933.55 2330.95 935.4 2331.15 935.25 2333 937.1 2333.15 936.95 2335 938.8 2335.15 938.65 2337 940.5 2337.15 940.35 2339 942.2 2339.2 942 2341.05 943.85 2341.2 943.7 2343.05 945.55 2343.2 945.4 2345.05 947.25 2345.2 947.1 2347.05 948.95 2347.25 948.8 2349.1 950.65 2349.25 950.45 2351.1 952.3 2351.25 952.15 2353.1 954 2353.25 953.85 2355.1 955.7 2355.3 955.55 2357.15 957.4 2357.3 957.25 2359.15 959.1 2359.3 958.95 2361.15 960.8 2361.3 960.6 2363.15 962.45 2363.35 962.3 2365.2 964.15 2365.35 964 2367.2 965.85 2367.35 965.7 2369.2 967.55 2369.35 967.4 2371.25 969.25 2371.4 969.05 2373.25 970.9 2373.4 970.75 2375.25 972.6 2375.4 972.45 2377.25 974.3 2377.4 974.15 2379.3 976 2379.45 975.85 2381.3 977.7 2381.45 977.55 2383.3 979.4 2383.45 979.2 2385.3 981.05 2385.5 980.9 2387.35 982.75 2387.5 982.6 2389.35 984.45 2389.5 984.3 2391.35 986.15 2391.5 986 2393.35 987.85 2393.55 987.65 2395.4 989.5 2395.55 989.35 2397.4 991.2 2397.55 991.05 2399.4 992.9 2399.55 992.75 2401.4 994.6 2401.6 994.45 2403.45 996.3 2403.6 996.15 2405.45 998 2405.6 997.8 2407.45 999.65 2407.6 999.5 2407.8 999.7 2668.2 999.7
Q 2686.65 999.7 2703.5 992.55 2719.75 985.7 2732.3 973.15 2744.85 960.6 2751.7 944.35 2758.85 927.5 2758.85 909.05
L 2758.85 610.9 2757.95 610 2757.8 610.15 2755.95 608.3 2755.75 608.45 2753.9 606.6 2753.75 606.75 2751.9 604.9 2751.75 605.05 2749.9 603.2 2749.75 603.4 2747.9 601.55 2747.7 601.7 2745.85 599.85 2745.7 600 2743.85 598.15 2743.7 598.3 2741.85 596.45 2741.7 596.6 2739.85 594.75 2739.65 594.95 2737.8 593.05 2737.65 593.25 2735.8 591.4 2735.65 591.55 2733.8 589.7 2733.65 589.85 2731.8 588 2731.6 588.15 2729.75 586.3 2729.6 586.45 2727.75 584.6 2727.6 584.8 2725.75 582.95 2725.6 583.1 2723.75 581.25 2723.55 581.4 2721.7 579.55 2721.55 579.7 2719.7 577.85 2719.55 578 2717.7 576.15 2717.55 576.35 2715.65 574.45 2715.5 574.65 2713.65 572.8 2713.5 572.95 2711.65 571.1 2711.5 571.25 2709.65 569.4 2709.45 569.55 2707.6 567.7 2707.45 567.85 2705.6 566 2705.45 566.2 2703.6 564.35 2703.45 564.5 2701.6 562.65 2701.4 562.8 2699.55 560.95 2699.4 561.1 2697.55 559.25 2697.4 559.4 2695.55 557.55 2695.4 557.75 2693.55 555.85 2693.35 556.05 2691.5 554.2 2691.35 554.35 2689.5 552.5 2689.35 552.65 2687.5 550.8 2687.35 550.95 2685.5 549.1 2685.3 549.25 2683.45 547.4 2683.3 547.6 2681.45 545.75 2681.3 545.9 2679.45 544.05 2679.3 544.2 2677.45 542.35 2677.25 542.5 2675.4 540.65 2675.25 540.8 2673.4 538.95 2673.25 539.15 2671.4 537.25 2671.25 537.45 2669.35 535.6 2669.2 535.75 2667.35 533.9 2667.2 534.05 2665.35 532.2 2665.2 532.35 2663.35 530.5 2663.2 530.65 2661.3 528.8 2661.15 529 2659.3 527.15 2659.15 527.3 2657.3 525.45 2657.15 525.6 2655.3 523.75 2655.1 523.9 2653.25 522.05 2653.1 522.2 2651.25 520.35 2651.1 520.55 2649.25 518.65 2649.1 518.85 2647.25 517 2647.05 517.15 2645.2 515.3 2645.05 515.45 2643.2 513.6 2643.05 513.75 2641.2 511.9 2641.05 512.05 2639.2 510.2 2639 510.4 2637.15 508.55 2637 508.7 2635.15 506.85 2635 507 2633.15 505.15 2633 505.3 2631.15 503.45 2630.95 503.6 2629.1 501.75 2628.95 501.95 2627.1 500.05 2626.95 500.25 2625.1 498.4 2624.95 498.55 2623.1 496.7 2622.9 496.85 2621.05 495 2620.9 495.15 2619.05 493.3 2618.9 493.45 2617.05 491.6 2616.9 491.8 2615 489.95 2614.85 490.1 2613 488.25 2612.85 488.4 2611 486.55 2610.85 486.7 2609 484.85 2608.8 485 2606.95 483.15 2606.8 483.35 2604.95 481.45 Z"/>
</g>

<g id="Right__Wrong__btn_icon_1_Layer0_0_MEMBER_2_FILL">
<path fill="url(#Gradient_1)" stroke="none" d="
M 2420.65 591.7
L 2276.6 447.65 2199.6 524.65 2343.65 668.7 2199.6 812.75 2276.6 889.75 2420.65 745.7 2564.7 889.75 2641.7 812.75 2497.65 668.7 2641.7 524.65 2564.7 447.65 2420.65 591.7 Z"/>
</g>
</defs>

<g transform="matrix( 1, 0, 0, 1, 64.4,63) ">
<g transform="matrix( 0.1904449462890625, 0, 0, 0.1904449462890625, -461,-127.35) ">
<use xlink:href="#Right__Wrong__btn_icon_1_Layer0_0_MEMBER_0_FILL"/>
</g>

<g transform="matrix( 0.1904449462890625, 0, 0, 0.1904449462890625, -461,-127.35) ">
<use xlink:href="#Right__Wrong__btn_icon_1_Layer0_0_MEMBER_1_FILL"/>
</g>

<g transform="matrix( 0.1904449462890625, 0, 0, 0.1904449462890625, -461,-127.35) ">
<use xlink:href="#Right__Wrong__btn_icon_1_Layer0_0_MEMBER_2_FILL"/>
</g>
</g>
</svg>
