
<svg xmlns="http://www.w3.org/2000/svg" version="1.1" xmlns:xlink="http://www.w3.org/1999/xlink" preserveAspectRatio="none" x="0px" y="0px" width="80px" height="80px" viewBox="0 0 80 80">
<defs>
<g id="Symbol_29_1_Layer0_0_FILL">
<path fill="#00CCFF" fill-opacity="0.4" stroke="none" d="
M -14.7 -34.85
Q -21.5 -32 -26.75 -26.75 -32 -21.5 -34.85 -14.7 -37.85 -7.7 -37.85 0 -37.85 7.7 -34.85 14.7 -32 21.5 -26.75 26.75 -21.5 31.95 -14.7 34.85 -7.7 37.85 0 37.85 7.7 37.85 14.7 34.85 21.5 31.95 26.75 26.75 31.95 21.5 34.85 14.7 37.85 7.7 37.85 0 37.85 -7.7 34.85 -14.7 31.95 -21.5 26.75 -26.75 21.5 -32 14.7 -34.85 7.7 -37.85 0 -37.85 -7.7 -37.85 -14.7 -34.85 Z"/>
</g>

<g id="Symbol_26_0_Layer0_0_FILL">
<path fill="#00CCFF" stroke="none" d="
M 7.45 -19.5
Q 7.45 -22.55 5.25 -24.75 3.05 -26.95 0 -26.95 -3.1 -26.95 -5.3 -24.75 -7.45 -22.55 -7.45 -19.5
L -7.45 -4.25 -9.4 -4.25 -9.4 -5.65 -10.05 -5.65 -10.05 -4.25 -10.7 -4.25 -10.7 -5.45 -11.75 -5.45
Q -12.2 -4.45 -12.2 -3.4 -12.2 -2.4 -11.75 -1.4
L -10.7 -1.4 -10.7 -2.6 -10.05 -2.6 -10.05 4.3
Q -10.05 8.45 -7.1 11.4 -4.8 13.7 -1.75 14.2
L -1.8 21.7
Q -4.55 21.8 -6.65 22.3 -9.4 22.95 -9.4 23.8
L -9.4 24.8
Q -9.4 25.7 -6.65 26.3 -3.9 26.95 0 26.95 3.9 26.95 6.65 26.3 9.35 25.7 9.35 24.8
L 9.35 23.8
Q 9.35 22.95 6.65 22.3 4.55 21.8 1.8 21.7
L 1.75 14.2
Q 4.75 13.7 7.05 11.4 9.9 8.55 10.05 4.25
L 10 -2.6 10.65 -2.6 10.65 -1.4 11.75 -1.4
Q 12.2 -2.4 12.2 -3.4 12.2 -4.45 11.75 -5.45
L 10.65 -5.45 10.65 -4.25 10 -4.25 10 -5.65 9.35 -5.65 9.35 -4.25 7.45 -4.25 7.45 -19.5
M 7.35 -2.6
L 9.35 -2.6 9.35 4.3
Q 9.35 4.4 9.35 4.55 9.35 4.7 9.35 4.85 8.85 7.7 7.4 9.6 7.25 9.8 7.15 10
L 7.05 10.05
Q 6.85 10.3 6.65 10.55 3.85 13.25 0 13.25 -3.9 13.25 -6.6 10.55 -9.35 7.8 -9.35 3.9
L -9.4 3.9 -9.4 -2.6 -7.4 -2.6 -7.4 3.75
Q -7.4 4.25 -7.35 4.7 -7 7.45 -4.9 9.3 -2.8 11.15 -0.05 11.15 2.75 11.15 4.9 9.3 6.95 7.45 7.3 4.7 7.35 4.15 7.35 3.75
L 7.35 -2.6 Z"/>
</g>

<path id="Symbol_29_1_Layer0_0_1_STROKES" stroke="#00CCFF" stroke-width="3" stroke-linejoin="round" stroke-linecap="round" fill="none" d="
M 37.85 0
Q 37.85 7.7 34.85 14.7 31.95 21.5 26.75 26.75 21.5 31.95 14.7 34.85 7.7 37.85 0 37.85 -7.7 37.85 -14.7 34.85 -21.5 31.95 -26.75 26.75 -32 21.5 -34.85 14.7 -37.85 7.7 -37.85 0 -37.85 -7.7 -34.85 -14.7 -32 -21.5 -26.75 -26.75 -21.5 -32 -14.7 -34.85 -7.7 -37.85 0 -37.85 7.7 -37.85 14.7 -34.85 21.5 -32 26.75 -26.75 31.95 -21.5 34.85 -14.7 37.85 -7.7 37.85 0 Z"/>
</defs>

<g transform="matrix( 1, 0, 0, 1, 40,40) ">
<g transform="matrix( 1, 0, 0, 1, 0,0) ">
<g transform="matrix( 1, 0, 0, 1, 0,0) ">
<use xlink:href="#Symbol_29_1_Layer0_0_FILL"/>

<use xlink:href="#Symbol_29_1_Layer0_0_1_STROKES"/>
</g>
</g>

<g transform="matrix( 1, 0, 0, 1, 0,0) ">
<use xlink:href="#Symbol_26_0_Layer0_0_FILL"/>
</g>
</g>
</svg>
