
<svg xmlns="http://www.w3.org/2000/svg" version="1.1" xmlns:xlink="http://www.w3.org/1999/xlink" preserveAspectRatio="none" x="0px" y="0px" width="1886px" height="236px" viewBox="0 0 1886 236">
<defs>
<radialGradient id="Gradient_1" gradientUnits="userSpaceOnUse" cx="0" cy="0" r="2008.6705001380892" fx="0" fy="0" gradientTransform="matrix( 0.9999897941757556, -0.004517913714258324, 0.00048539568830874557, 0.10607140393875088, 935.95,754) " spreadMethod="pad">
<stop  offset="0%" stop-color="#81ABD0"/>

<stop  offset="100%" stop-color="#00608A"/>
</radialGradient>

<filter id="Filter_1" x="-20%" y="-20%" width="140%" height="140%" color-interpolation-filters="sRGB">
<feFlood flood-color="#000000" flood-opacity="1" in="SourceGraphic" result="result1"/>

<feComposite in2="SourceGraphic" in="result1" operator="in" result="result2"/>

<feGaussianBlur in="result2" stdDeviation="3.3333333333333335,3.3333333333333335" result="result3"/>

<feOffset dx="0" dy="0" in="result3" result="result4"/>

<feComposite in2="result4" in="SourceGraphic" operator="over" result="result5"/>
</filter>

<g id="Symbol_6_0_Layer0_0_FILL">
<path fill="url(#Gradient_1)" stroke="none" d="
M 1884.45 666.45
Q 1884.45 654.75 1876.15 646.45 1867.9 638.2 1856.2 638.2
L 52.25 638.2
Q 40.55 638.2 32.25 646.45 24 654.75 24 666.45
L 24 826
Q 24 837.7 32.25 845.95 40.55 854.25 52.25 854.25
L 1856.2 854.25
Q 1867.9 854.25 1876.15 845.95 1884.45 837.7 1884.45 826
L 1884.45 666.45 Z"/>
</g>

<path id="Symbol_6_0_Layer0_0_1_STROKES" stroke="#004870" stroke-width="5" stroke-linejoin="round" stroke-linecap="round" fill="none" d="
M 52.25 638.2
L 1856.2 638.2
Q 1867.9 638.2 1876.15 646.45 1884.45 654.75 1884.45 666.45
L 1884.45 826
Q 1884.45 837.7 1876.15 845.95 1867.9 854.25 1856.2 854.25
L 52.25 854.25
Q 40.55 854.25 32.25 845.95 24 837.7 24 826
L 24 666.45
Q 24 654.75 32.25 646.45 40.55 638.2 52.25 638.2 Z"/>
</defs>

<g filter="url(#Filter_1)" transform="matrix( 1, 0, 0, 1, 0,0) ">
<g transform="matrix( 1, 0, 0, 1, 943,118) ">
<g transform="matrix( 1, 0, 0, 1, -954.2,-746.2) ">
<use xlink:href="#Symbol_6_0_Layer0_0_FILL"/>

<use xlink:href="#Symbol_6_0_Layer0_0_1_STROKES"/>
</g>
</g>
</g>
</svg>
