
<svg xmlns="http://www.w3.org/2000/svg" version="1.1" xmlns:xlink="http://www.w3.org/1999/xlink" preserveAspectRatio="none" x="0px" y="0px" width="676px" height="605px" viewBox="0 0 676 605">
<defs>
<filter id="Filter_1" x="-20%" y="-20%" width="140%" height="140%" color-interpolation-filters="sRGB">
<feFlood flood-color="#000000" flood-opacity="1" in="SourceGraphic" result="result1"/>

<feComposite in2="SourceGraphic" in="result1" operator="in" result="result2"/>

<feGaussianBlur in="result2" stdDeviation="7.666666666666667,7.666666666666667" result="result3"/>

<feOffset dx="0" dy="0" in="result3" result="result4"/>

<feComposite in2="result4" in="SourceGraphic" operator="over" result="result5"/>
</filter>

<g id="Symbol_67_0_Layer0_0_FILL">
<path fill="#FFFFFF" stroke="none" d="
M 384.55 -308.45
Q 384.55 -319.85 376.45 -327.95 368.4 -336 357 -336
L -292.45 -336
Q -303.85 -336 -311.95 -327.95 -320 -319.85 -320 -308.45
L -320 268.9
Q -320 280.3 -311.95 288.35 -303.85 296.45 -292.45 296.45
L 357 296.45
Q 368.4 296.45 376.45 288.35 384.55 280.3 384.55 268.9
L 384.55 -308.45 Z"/>
</g>

<path id="Symbol_67_0_Layer0_0_1_STROKES" stroke="#FFB345" stroke-width="10" stroke-linejoin="round" stroke-linecap="round" fill="none" d="
M -292.25321502685546 -284.59794921875
L 292.24782104492186 -284.59794921875
Q 302.5077514648437 -284.59794921875 309.75270233154293 -277.35299835205075 317.0426528930664 -270.0630477905274 317.0426528930664 -259.80311737060543
L 317.0426528930664 259.8083587646484
Q 317.0426528930664 270.06828918457035 309.75270233154293 277.3132400512696 302.5077514648437 284.60319061279296 292.24782104492186 284.60319061279296
L -292.25321502685546 284.60319061279296
Q -302.5131454467774 284.60319061279296 -309.80309600830077 277.3132400512696 -317.048046875 270.06828918457035 -317.048046875 259.8083587646484
L -317.048046875 -259.80311737060543
Q -317.048046875 -270.0630477905274 -309.80309600830077 -277.35299835205075 -302.5131454467774 -284.59794921875 -292.25321502685546 -284.59794921875 Z"/>

<path id="Symbol_66_0_Layer1_0_1_STROKES" stroke="#FFB345" stroke-width="10" stroke-linejoin="round" stroke-linecap="round" fill="none" d="
M -292.25 -284.6
L 292.25 -284.6
Q 302.5 -284.6 309.75 -277.35 317.05 -270.05 317.05 -259.8
L 317.05 259.8
Q 317.05 270.05 309.75 277.3 302.5 284.6 292.25 284.6
L -292.25 284.6
Q -302.5 284.6 -309.8 277.3 -317.05 270.05 -317.05 259.8
L -317.05 -259.8
Q -317.05 -270.05 -309.8 -277.35 -302.5 -284.6 -292.25 -284.6 Z"/>
</defs>

<g transform="matrix( 1, 0, 0, 1, 338,302.5) ">
<g filter="url(#Filter_1)" transform="matrix( 1, 0, 0, 1, -338,-302.5) ">
<g transform="matrix( 1, 0, 0, 1, 338,302.5) ">
<g transform="matrix( 0.899993896484375, 0, 0, 0.899993896484375, -29.05,17.8) ">
<use xlink:href="#Symbol_67_0_Layer0_0_FILL"/>

<use xlink:href="#Symbol_67_0_Layer0_0_1_STROKES" transform="matrix( 1.111114501953125, 0, 0, 1.111114501953125, 32.3,-19.8) "/>
</g>
</g>
</g>

<g transform="matrix( 1, 0, 0, 1, 0,0) ">
<use xlink:href="#Symbol_66_0_Layer1_0_1_STROKES"/>
</g>
</g>
</svg>
