
<svg xmlns="http://www.w3.org/2000/svg" version="1.1" xmlns:xlink="http://www.w3.org/1999/xlink" preserveAspectRatio="none" x="0px" y="0px" width="247px" height="69px" viewBox="0 0 247 69">
<defs>
<linearGradient id="Gradient_1" gradientUnits="userSpaceOnUse" x1="50.1" y1="20.05" x2="50.1" y2="-20.05" spreadMethod="pad">
<stop  offset="0%" stop-color="#2654BD"/>

<stop  offset="100%" stop-color="#507DE0"/>
</linearGradient>

<linearGradient id="Gradient_2" gradientUnits="userSpaceOnUse" x1="-595.925" y1="-34.45" x2="-595.875" y2="-0.05000000000000071" spreadMethod="pad">
<stop  offset="31.372549019607842%" stop-color="#FFFFFF" stop-opacity="0.09803921568627451"/>

<stop  offset="100%" stop-color="#FFFFFF" stop-opacity="0"/>
</linearGradient>

<filter id="Filter_1" x="-20%" y="-20.619486121875553%" width="140%" height="141.2389722437511%" color-interpolation-filters="sRGB">
<feGaussianBlur in="SourceGraphic" stdDeviation="1.3333333333333333,1.3333333333333333" result="result1"/>
</filter>
</defs>

<g id="Layer_1">
<g transform="matrix( -0.8573455810546875, 0, 0, 0.8573455810546875, 123.55,34.5) ">
<g id="Layer_1">
<g transform="matrix( 1, 0, 0, 1, 0,0) ">
<g id="Layer_1">
<g filter="url(#Filter_1)" transform="matrix( -1.1663818359375, 0, 0, 1.1663818359375, 144.1,-40.2) ">
<g transform="matrix( -0.8573455810546875, 0, 0, 0.8573455810546875, 123.55,34.5) ">
<g id="Layer_1">
<g transform="matrix( 1, 0, 0, 1, 0,0) ">
<g>
<g>
<path fill="#000000" fill-opacity="0.4980392156862745" stroke="none" d="
M -126.5 -35.8
Q -126.5314453125 -35.775 -126.6 -35.8 -129.0251953125 -35.475 -131.4 -35.2 -131.4724609375 -35.1646484375 -131.6 -35.15 -134.604296875 -34.567578125 -137.25 -33.25 -137.3208984375 -33.16640625 -137.45 -33.1 -139.9396484375 -31.5392578125 -140.6 -29.15
L -140.6 -29.15
Q -141.5626953125 -25.725 -140.65 -22.35 -140.3603515625 -21.1234375 -139.35 -19.7 -139.29765625 -19.666015625 -139.3 -19.65 -138.23125 -18.2056640625 -136.35 -17.4
L -136.3 -17.35
Q -135.08125 -16.73125 -132.95 -16.15 -132.88515625 -16.1140625 -132.85 -16.1 -130.8048828125 -15.5724609375 -128.55 -15.15 -128.5072265625 -15.150390625 -128.5 -15.15 -126.3546875 -14.80078125 -125 -14.55 -124.9322265625 -14.537890625 -124.9 -14.55 -122.562890625 -14.1748046875 -120.2 -13.9 -120.109375 -13.86171875 -120.05 -13.85 -118.3 -13.7001953125 -116.5 -13.55 -116.4447265625 -13.549609375 -116.4 -13.55 -114.5875 -13.460546875 -112.8 -13.3 -112.7212890625 -13.2625 -112.7 -13.25 -110.5884765625 -13.099609375 -108.4 -13
L -108.4 -13
Q -106.125 -12.9 -103.9 -12.8 -103.3830078125 -12.7791015625 -102.9 -12.75 -103.6736328125 -11.02734375 -104 -8.95 -104.13359375 -8.2904296875 -104.2 -7.5 -104.212109375 -7.2416015625 -104.2 -7 -103.7533203125 -2.4646484375 -101.65 0.55 -101.5841796875 0.598828125 -101.55 0.65 -100.5875 1.9408203125 -99.35 2.95 -100.6263671875 5.0513671875 -101.1 7.3
L -101.05 7.15
Q -101.2689453125 7.9662109375 -101.3 8.85 -101.4203125 10.294921875 -101.3 11.8 -101.2890625 11.855859375 -101.3 11.9 -100.590625 17.123046875 -96.9 20.2 -97.46015625 21.7427734375 -97.65 23.4
L -97.65 23.4
Q -97.9013671875 26.1228515625 -97.1 29.1
L -97.1 29.15
Q -95.6005859375 36.259765625 -84.2 37.1 -84.108203125 37.1009765625 -84.05 37.1 -76.8482421875 37.3546875 -68.2 37 -68.1310546875 37.001171875 -68.1 37 -62.036328125 36.51796875 -57.65 35.4
L -57.6 35.4
Q -48.1234375 32.966796875 -40.8 25.6 -40.0859375 24.925 -39.45 24.2
L -39.45 24.2
Q -30.0056640625 13.819140625 -30 -0.45
L -30 -0.5
Q -30 -1.05 -30 -1.55 -29.99921875 -1.593359375 -30 -1.65 -30.4400390625 -15.2107421875 -39.45 -25.15
L -39.4 -25.05
Q -40.046875 -25.8408203125 -40.8 -26.6 -47.698046875 -33.4337890625 -56.45 -35.95 -56.5322265625 -35.9537109375 -56.65 -36 -62.6029296875 -37.2384765625 -69 -37.35
L -90.05 -37.3
Q -90.0796875 -37.3005859375 -90.15 -37.3 -92.13671875 -37.2505859375 -94.05 -37.25 -96.3267578125 -37.2517578125 -98.5 -37.15 -100.5111328125 -37.148828125 -102.5 -37.1 -104.3625 -37.0505859375 -106.25 -36.95 -108.8869140625 -36.849609375 -111.4 -36.75 -111.4212890625 -36.75078125 -111.5 -36.75 -114.023828125 -36.551171875 -116.5 -36.45
L -116.55 -36.45
Q -119.0494140625 -36.3001953125 -121.45 -36.2
L -121.5 -36.2
Q -123.9875 -36.0388671875 -126.5 -35.8
M 141.15 -6.2
Q 141.1548828125 -19.1466796875 131.95 -28.3 122.8466796875 -37.4548828125 109.9 -37.45
L -37.95 -37.5
Q -39.1890625 -37.5044921875 -40.1 -36.65 -40.95390625 -35.744921875 -40.95 -34.5
L -40.95 -31.45
Q -40.950390625 -30.7119140625 -40.6 -30.05 -40.2447265625 -29.393359375 -39.65 -29 -30.123046875 -22.5134765625 -26.9 -11.1
L -26.9 -11.05
Q -25.5396484375 -6.5087890625 -25.2 -1.1 -25.2037109375 -1.036328125 -25.2 -1 -25.4796875 4.8912109375 -27.1 10
L -27.05 10
Q -30.4251953125 20.6162109375 -39.75 27.35 -40.3021484375 27.8060546875 -40.65 28.45 -40.9509765625 29.0912109375 -40.95 29.8
L -40.95 34.4
Q -40.9517578125 35.6380859375 -40.1 36.5 -39.19375 37.401171875 -37.95 37.4
L 109.9 37.5
Q 122.8466796875 37.5048828125 131.95 28.3 141.1548828125 19.1966796875 141.15 6.25
L 141.15 -6.2 Z"/>
</g>
</g>
</g>
</g>
</g>
</g>
</g>

<g id="Layer_2">
<g transform="matrix( 1, 0, 0, 1, 0,0) ">
<g>
<g>
<path fill="url(#Gradient_1)" stroke="none" d="
M -126.2 -32.8
Q -128.65 -32.5 -131 -32.2 -133.6 -31.7 -135.85 -30.55 -137.3 -29.65 -137.7 -28.3 -138.45 -25.7 -137.75 -23.1 -137.55 -22.35 -136.9 -21.45 -136.25 -20.6 -135.1 -20.1 -134.05 -19.55 -132.1 -19 -130.15 -18.5 -128 -18.1 -125.85 -17.75 -124.45 -17.5 -122.15 -17.15 -119.8 -16.85 -118.05 -16.7 -116.25 -16.55 -114.35 -16.45 -112.45 -16.25 -110.4 -16.1 -108.25 -16 -106 -15.9 -103.75 -15.8 -101.4 -15.7 -99 -15.6 -97.8 -15.6 -96.55 -15.6 -100.35 -13.15 -101.05 -8.35 -101.15 -7.85 -101.2 -7.25 -100.85 -3.6 -99.15 -1.15 -97.95 0.45 -96.15 1.55 -95.5 1.9 -94.85 2.2 -97.5 4.85 -98.15 7.95 -98.3 8.5 -98.3 9.1 -98.4 10.3 -98.3 11.55 -97.7 16.25 -93.9 18.7 -93.5 18.9 -93.05 19.15 -94.4 21.25 -94.65 23.7 -94.85 25.9 -94.2 28.35 -92.8 33.45 -83.95 34.1 -76.85 34.35 -68.3 34 -62.55 33.55 -58.35 32.5 -49.65 30.25 -42.9 23.5 -42.25 22.85 -41.65 22.2 -33 12.65 -33 -0.45
L -33 -0.5
Q -33 -1.05 -33 -1.55 -33.4 -14 -41.65 -23.1 -42.25 -23.8 -42.9 -24.45 -49.25 -30.75 -57.25 -33.05 -62.95 -34.25 -69.05 -34.35
L -90.05 -34.3
Q -92.1 -34.25 -94.05 -34.25 -96.25 -34.25 -98.35 -34.15 -100.4 -34.15 -102.4 -34.1 -104.25 -34.05 -106.1 -33.95 -108.75 -33.85 -111.25 -33.75 -113.85 -33.55 -116.35 -33.45 -118.9 -33.3 -121.3 -33.2 -123.75 -33.05 -126.2 -32.8 Z"/>
</g>
</g>

<g>
<path stroke="#FFFFFF" stroke-width="2" stroke-linejoin="round" stroke-linecap="round" fill="none" d="
M -94.05 -34.25
Q -96.25 -34.25 -98.35 -34.15 -100.4 -34.15 -102.4 -34.1 -104.25 -34.05 -106.1 -33.95 -108.75 -33.85 -111.25 -33.75 -113.85 -33.55 -116.35 -33.45 -118.9 -33.3 -121.3 -33.2 -123.75 -33.05 -126.2 -32.8 -128.65 -32.5 -131 -32.2 -133.6 -31.7 -135.85 -30.55 -137.3 -29.65 -137.7 -28.3 -138.45 -25.7 -137.75 -23.1 -137.55 -22.35 -136.9 -21.45 -136.25 -20.6 -135.1 -20.1 -134.05 -19.55 -132.1 -19 -130.15 -18.5 -128 -18.1 -125.85 -17.75 -124.45 -17.5 -122.15 -17.15 -119.8 -16.85 -118.05 -16.7 -116.25 -16.55 -114.35 -16.45 -112.45 -16.25 -110.4 -16.1 -108.25 -16 -106 -15.9 -103.75 -15.8 -101.4 -15.7 -99 -15.6 -97.8 -15.6 -96.55 -15.6 -100.35 -13.15 -101.05 -8.35 -101.15 -7.85 -101.2 -7.25 -100.85 -3.6 -99.15 -1.15 -97.95 0.45 -96.15 1.55 -95.5 1.9 -94.85 2.2 -97.5 4.85 -98.15 7.95 -98.3 8.5 -98.3 9.1 -98.4 10.3 -98.3 11.55 -97.7 16.25 -93.9 18.7 -93.5 18.9 -93.05 19.15 -94.4 21.25 -94.65 23.7 -94.85 25.9 -94.2 28.35 -92.8 33.45 -83.95 34.1 -76.85 34.35 -68.3 34 -62.55 33.55 -58.35 32.5 -49.65 30.25 -42.9 23.5 -42.25 22.85 -41.65 22.2 -33 12.65 -33 -0.45
L -33 -0.5
Q -33 -1.05 -33 -1.55 -33.4 -14 -41.65 -23.1 -42.25 -23.8 -42.9 -24.45 -49.25 -30.75 -57.25 -33.05 -62.95 -34.25 -69.05 -34.35
L -90.05 -34.3
Q -92.1 -34.25 -94.05 -34.25 Z"/>
</g>
</g>

<g transform="matrix( 1, 0, 0, 1, 0,0) ">
<g>
<g>
<path fill="url(#Gradient_1)" stroke="none" d="
M 138.15 -6.2
Q 138.15 -17.9 129.85 -26.15 121.6 -34.45 109.9 -34.45
L -37.95 -34.5 -37.95 -31.45
Q -27.55 -24.4 -24 -11.9 -22.55 -7 -22.2 -1.15 -22.45 5.3 -24.2 10.9 -27.85 22.45 -37.95 29.8
L -37.95 34.4 109.9 34.5
Q 121.6 34.5 129.85 26.2 138.15 17.95 138.15 6.25
L 138.15 -6.2 Z"/>
</g>
</g>

<g>
<path stroke="#FFFFFF" stroke-width="2" stroke-linejoin="round" stroke-linecap="round" fill="none" d="
M 109.9 -34.45
L -37.95 -34.5 -37.95 -31.45
Q -27.55 -24.4 -24 -11.9 -22.55 -7 -22.2 -1.15 -22.45 5.3 -24.2 10.9 -27.85 22.45 -37.95 29.8
L -37.95 34.4 109.9 34.5
Q 121.6 34.5 129.85 26.2 138.15 17.95 138.15 6.25
L 138.15 -6.2
Q 138.15 -17.9 129.85 -26.15 121.6 -34.45 109.9 -34.45 Z"/>
</g>
</g>
</g>

<g id="Layer_3">
<g transform="matrix( 1, 0, 0, 1, 0,0) ">
<g>
<g>
<path fill="url(#Gradient_2)" stroke="none" d="
M 119.2 -32.95
Q 117.8041015625 -33.2 116.3 -33.2
L -36 -33.2
Q -36.996875 -33.2 -37.95 -33.1
L -37.95 -31.45
Q -27.55 -24.4 -24 -11.9 -22.55 -7 -22.2 -1.15 -22.25 0.1421875 -22.35 1.4
L 116.3 1.4
Q 123.15 1.4 127.95 -3.65 132.8 -8.7 132.8 -15.9 132.8 -22.3091796875 128.95 -27.05 128.4826171875 -27.5953125 127.95 -28.15 124.2041015625 -32.091015625 119.2 -32.95 Z"/>
</g>
</g>
</g>
</g>
</g>
</g>

<g id="text">
<g transform="matrix( -1.322906494140625, 0, 0, 1.322906494140625, 54.15,-0.15) ">
<g id="Layer_1">
<g transform="matrix( 1, 0, 0, 1, 0,0) ">
<g>
<g>
<path fill="#FFFFFF" stroke="none" d="
M 33.35 12.2
L 35.2 12.2 35.2 10.45 33.35 10.45 33.35 12.2
M 38.65 -13.25
L 38.65 -11.2 40.85 -11.2 40.85 -13.25 38.65 -13.25
M 11.9 -7.65
L 11.9 -6.35 22 -6.35 22 1.4 21.8 2.1 16.6 -1.5 17.05 -1.9 17.7 -2.2 18.4 -2.4
Q 18.55 -2.4 19.1 -2.4
L 19.9 -2.3
Q 20.4 -2.15 20.55 -1.95
L 20.3 -3.4 19.9 -3.55 19.1 -3.7 18.4 -3.7
Q 17.95 -3.7 17.55 -3.6 17.15 -3.55 16.7 -3.35 15.9 -3 15.25 -2.35 13.9 -1 13.9 0.8 13.9 1.75 14.25 2.6 14.6 3.4 15.4 4.1 16.15 4.75 16.95 5.05 17.7 5.3 18.65 5.3
L 19.55 5.25
Q 20.1 5.15 20.45 4.95
L 21.3 4.55
Q 21.75 4.25 22 3.85
L 22 8.65 23.7 8.65 23.7 -6.35 36.4 -6.35 36.4 -2.7 32.05 -2.7
Q 30.25 -2.7 29.1 -1.55 27.9 -0.4 27.9 1.35 27.9 2.85 28.5 4 29.1 5.1 30.35 6.15 32.45 8 35.2 8 35.6 8 36 7.95 36.4 7.9 37 7.8 37.9 7.45 38.55 6.95 40 5.85 40 4.05
L 39.95 3.35
Q 39.7 2.25 38.8 1.6 37.85 1 36.75 1 35.4 1 34.55 1.75 33.7 2.5 33.7 3.95 33.7 4.45 33.9 5.25
L 34.55 6.4 34.7 6.6 34.9 6.8 33.35 6.4 32.25 5.9
Q 29.6 4.3 29.6 1.25 29.6 0.7 29.8 0.1 30.25 -0.85 31.2 -1.35 31.55 -1.5 31.75 -1.55 31.95 -1.6 32.4 -1.6
L 38.05 -1.6 38.05 -6.35 42.1 -6.35 42.1 -7.65 38.85 -7.65 32.35 -15.6 31.25 -14.4 37.8 -7.65 11.9 -7.65
M 15.75 -0.4
L 15.9 -0.75 21.1 2.95 20.7 3.3 20.4 3.5
Q 20.1 3.75 19.95 3.8 19.8 3.9 19.55 3.95
L 19.2 4.05 18.7 4.05
Q 18.2 4.05 17.5 3.85 16.9 3.55 16.45 3.1 15.95 2.65 15.75 2.1 15.55 1.55 15.55 0.8
L 15.55 0.4 15.75 -0.4
M 36.15 2.3
Q 36.4 2.2 36.95 2.2 37.65 2.2 38.05 2.75
L 38.3 3.35 38.4 4.05 38.25 5.1
Q 37.75 6.65 36.5 6.65
L 36.05 6.4 35.8 6.15
Q 35.1 5.45 35.1 4.05
L 35.2 3.35 35.55 2.75
Q 35.8 2.4 36.15 2.3
M 0.2 -6.35
L 0.2 -7.65 -2.9 -7.65 -9.4 -15.6 -10.5 -14.4 -3.95 -7.65 -30.4 -7.65 -30.4 -6.35 -27.35 -6.35 -27.35 0.05 -27.8 0.25 -28.9 0.5 -30.35 0.5 -32.1 -0.25 -32.9 -0.7 -33.55 -0.95 -33.75 -0.9
Q -31.95 -1.9 -31.95 -3.9 -31.95 -5.45 -32.9 -6.5 -34.1 -7.65 -35.6 -7.65 -37.6 -7.65 -39.15 -6.4
L -40.2 -5.5
Q -40.4 -5.3 -40.45 -5.25 -40.5 -5.15 -40.55 -5.05
L -39.3 -4.1 -38.15 -5.25 -37.5 -5.75
Q -36.5 -6.35 -35.7 -6.35 -35.2 -6.35 -34.6 -6.15 -33.75 -5.75 -33.55 -4.85 -33.4 -4.55 -33.4 -3.9 -33.4 -3.25 -33.75 -2.65 -34.55 -1.45 -36 -1.05 -36.15 -1 -36.6 -0.95 -37 -0.95 -37.35 -0.95
L -36.85 0.25 -36.5 0.25
Q -36.2 0.05 -35.8 0.05
L -35.25 0.05
Q -34.35 0.05 -33.45 0.55 -32.5 1.05 -32.3 1.9 -32.1 2.25 -32.1 2.45 -32.05 2.7 -32.05 3.2 -32.05 3.7 -32.25 4.25 -33.05 6.05 -34.5 6.05 -36.65 6.05 -38.55 3.15
L -40.35 0.25 -41.65 1.1
Q -41.65 1.95 -39.55 4.35 -38.35 5.8 -37.1 6.55 -36.45 6.95 -35.85 7.1 -35.25 7.25 -34.6 7.25
L -33.75 7.25
Q -30.45 6.65 -30.45 3.25
L -30.45 2.55 -30.9 1.25 -30.55 1.45 -29.55 1.7 -28.3 1.7 -27.35 1.5 -27.35 8.65 -25.75 8.65 -25.75 -6.35 -20.75 -6.35 -20.75 8.65 -19.1 8.65 -19.1 -6.35 -11.65 -6.35 -11.65 -1.25 -14.1 -1.2 -14.3 -1
Q -14.35 -0.95 -14.35 -0.7 -14.35 -0.25 -14 0.35 -13.1 1.85 -11.7 2.85 -11.05 3.25 -10.7 3.25
L -10.25 3.15
Q -10.1 2.95 -10 2.65
L -10 -6.35 -5.05 -6.35 -5.05 8.65 -3.35 8.65 -3.35 -6.35 0.2 -6.35 Z"/>
</g>
</g>
</g>
</g>
</g>
</g>
</g>
</g>
</svg>
