
<svg xmlns="http://www.w3.org/2000/svg" version="1.1" xmlns:xlink="http://www.w3.org/1999/xlink" preserveAspectRatio="none" x="0px" y="0px" width="276px" height="204px" viewBox="0 0 276 204">
<defs>
<filter id="Filter_1" x="-20%" y="-20%" width="140%" height="140%" color-interpolation-filters="sRGB">
<feFlood flood-color="#FFCC00" flood-opacity="1" in="SourceGraphic" result="result1"/>

<feGaussianBlur in="SourceGraphic" stdDeviation="2.6666666666666665,2.6666666666666665" result="result2"/>

<feComposite in2="result2" in="result1" operator="in" result="result3"/>

<feComposite in2="result3" in="SourceGraphic" operator="over" result="result4"/>
</filter>
</defs>

<g id="Layer_1">
<g transform="matrix( -0.624664306640625, 0, 0, 0.624664306640625, 138.3,102.35) ">
<g id="Layer_1">
<g filter="url(#Filter_1)" transform="matrix( -1.6008453369140625, 0, 0, 1.6008453369140625, 221.35,-163.8) ">
<g transform="matrix( -0.624664306640625, 0, 0, 0.624664306640625, 138.3,102.35) ">
<g id="Layer_1">
<g transform="matrix( -2.24560546875, 0, 0, 2.24560546875, 7.45,7.35) ">
<g>
<g>
<path fill="#333333" stroke="none" d="
M -46.1 46.85
Q -46.1 46.7 -46.1 46.55
L -49.9 46.55
Q -49.95 46.85 -49.9 47.15 -49.75 48.85 -49.2 50.05 -48.55 51.25 -47.75 51.2 -46.9 51.15 -46.45 49.85 -45.95 48.6 -46.1 46.85
M -7.5 46.55
Q -7.5 46.7 -7.5 46.85 -7.35 48.6 -6.8 49.75 -6.15 50.95 -5.35 50.9 -4.55 50.85 -4.1 49.55 -3.55 48.3 -3.7 46.55
L -7.5 46.55 Z"/>

<path fill="#000000" stroke="none" d="
M -46.1 46.55
Q -46.1 46.7 -46.1 46.85 -45.95 48.6 -46.45 49.85 -46.9 51.15 -47.75 51.2 -48.55 51.25 -49.2 50.05 -49.75 48.85 -49.9 47.15 -49.95 46.85 -49.9 46.55
L -50.15 46.55 -51.15 44.95 -67.35 44.95
Q -66.6 52.1 -62.95 57.3 -58.65 63.55 -52.85 63.3 -47.05 63.1 -43.3 56.55 -40.7 52.1 -40 46.55
L -46.1 46.55
M -7.5 46.85
Q -7.5 46.7 -7.5 46.55
L -12.55 46.55
Q -13.7 51.95 -21.7 53.35 -20.9 54.95 -19.9 56.45 -15.7 62.6 -10.1 62.35 -4.45 62.1 -0.85 55.65 1.55 51.6 2.25 46.55
L -3.7 46.55
Q -3.55 48.3 -4.1 49.55 -4.55 50.85 -5.35 50.9 -6.15 50.95 -6.8 49.75 -7.35 48.6 -7.5 46.85
M 26.6 20.75
Q 24.9 21.55 23.05 23.2 18.2 30 10.05 34.8 8.55 35.75 6.95 36.55
L 8.75 36.55
Q 8.8 36.6 8.9 36.7 9.4 37.15 9.8 37.55 10.9 38.9 11.1 40.3 11.35 42.1 9.9 44 10.05 45.3 10.3 46.55
L 11 46.55 10.3 46.55
Q 10.65 48.25 11.2 49.85 11.9 52 12.85 54.1 16.75 61.65 22.45 63.3 28.35 65.05 32.7 59.9 35.75 56.55 37 51.6 37.75 49 37.95 45.95 38.35 37 34.7 29.5 31.45 22.9 26.6 20.75
M 25.85 36.7
Q 25.9 35.05 26.1 33.55 26.7 30.25 27.9 30.1 29.2 30 30.45 33.1 31.7 36.1 32.2 40.6 32.7 45.05 32.1 48.3 31.6 51.55 30.3 51.7 29.05 51.85 27.8 48.8 27.45 47.95 27.15 47 26.4 44.5 26.05 41.3 25.75 38.85 25.85 36.7
M 57.7 34.8
Q 55.6 35.85 53.3 36.5 53 39.5 53.35 42.8 53.45 43.95 53.6 45.05 54.8 52.1 58.8 56.95 63.3 62.65 68.8 62.1 74.35 61.45 77.7 55 80.85 48.6 80.1 40.3 80.05 40.15 80.05 40 79.15 31.45 74.6 25.8 72.05 22.7 69.25 21.5 67.95 22.75 66.95 25.15 63.7 31.65 57.7 34.8
M 68.4 33.55
Q 68.95 30.4 70.2 30.25 71.5 30.1 72.75 33.1 74 35.95 74.45 40.3 74.9 44.5 74.3 47.65 73.7 50.75 72.4 50.9 71.15 51.05 69.9 48.15 69.75 47.75 69.6 47.3 68.65 44.6 68.25 40.95 68 39.1 68 37.45 68 35.3 68.4 33.55 Z"/>

<path fill="#0C0A08" stroke="none" d="
M -52.65 24.95
Q -55.2 25.05 -57.45 25.3
L -57.45 32.4
Q -55.2 32.65 -52.65 32.75
L -52.65 24.95
M -46.6 24.95
Q -47.6 24.85 -48.55 24.85 -49.75 24.85 -50.9 24.95
L -50.9 32.8
Q -49.75 32.8 -48.55 32.8 -47.6 32.8 -46.6 32.8
L -46.6 24.95
M -67.6 28.9
Q -67.6 29.75 -66 30.5
L -65.85 30.5 -65.8 27.1
Q -67.6 27.9 -67.6 28.9
M -62.05 25.95
Q -62.95 26.15 -63.65 26.4
L -63.65 31.25
Q -62.95 31.45 -62.05 31.65 -60.85 31.85 -59.5 32.1
L -59.5 25.5
Q -60.85 25.75 -62.05 25.95
M -32.25 26.75
L -32.3 31
Q -29.45 30 -29.45 28.9 -29.45 27.7 -32.25 26.75
M -40.4 32.45
L -40.4 25.2
Q -42.4 25 -44.55 24.95
L -44.55 32.75
Q -44.45 32.75 -44.35 32.75 -42.7 32.65 -41.25 32.55 -40.8 32.5 -40.4 32.45
M -33.95 26.25
Q -34.45 26.1 -35.05 25.95 -36.7 25.65 -38.5 25.45
L -38.45 32.25
Q -36.7 32 -35.05 31.65 -34.5 31.55 -33.95 31.4
L -33.95 26.25 Z"/>

<path fill="#6E0708" stroke="none" d="
M -57.45 25.3
Q -58.5 25.4 -59.5 25.5
L -59.5 32.1
Q -59.3 32.1 -59.05 32.15 -58.3 32.25 -57.45 32.4
L -57.45 25.3
M -50.9 24.95
Q -51.8 24.95 -52.65 24.95
L -52.65 32.75
Q -51.8 32.8 -50.9 32.8
L -50.9 24.95
M -44.55 24.95
Q -44.85 24.95 -45.15 24.95 -45.9 24.95 -46.6 24.95
L -46.6 32.8
Q -45.6 32.8 -44.55 32.75
L -44.55 24.95
M -73.9 28.25
Q -74.05 27.8 -74.15 27.4
L -74.15 27.35
Q -74.2 26.95 -74.35 26.6 -74.9 27.25 -75.85 27.75 -78.05 29.05 -81.15 29.05 -82.1 29.05 -82.95 28.95 -83.3 29 -83.6 29.1 -81.8 29.65 -79.75 29.65 -79.25 29.65 -78.85 29.65 -78.7 29.6 -78.55 29.6 -75.9 29.4 -73.9 28.25
M -64.05 26.5
Q -65.05 26.75 -65.8 27.1
L -65.85 30.5 -65.85 30.55
Q -65.05 30.85 -64 31.15 -63.85 31.2 -63.65 31.25
L -63.65 26.4
Q -63.9 26.45 -64.05 26.5
M -74.75 20.7
Q -76.95 19.75 -79.75 19.75 -83.25 19.75 -85.85 21.2
L -85.75 21.3
Q -83.8 20.4 -81.15 20.4 -78.45 20.4 -76.45 21.3 -76.4 21.35 -76.3 21.4 -76.1 21.5 -75.85 21.6 -75.3 21.95 -74.8 22.35 -74.85 21.55 -74.75 20.7
M -38.5 25.45
Q -39.45 25.3 -40.4 25.2
L -40.4 32.45
Q -39.45 32.35 -38.45 32.25
L -38.5 25.45
M -32.25 26.75
Q -33.05 26.45 -33.95 26.25
L -33.95 31.4
Q -33.05 31.15 -32.3 31
L -32.25 26.75
M -24.45 27.95
L -24.45 27.85
Q -24.454296875 27.745703125 -24.5 27.7 -24.95 25.8 -31.25 24.5 -37.75 23.15 -46.75 23.1 -47.2 23.1 -47.6 23.1 -48.4 23.1 -49.1 23.1 -56.75 23.2 -62.5 24.2 -63.25 24.35 -64.05 24.5 -69.95 25.75 -70.65 27.45 -70.8 27.7 -70.8 27.95 -70.8 29.65 -66.15 30.85 -65.2 31.15 -64.05 31.35
L -64 31.15
Q -65.05 30.85 -65.85 30.55 -65.9478515625 30.501171875 -66 30.5 -67.6 29.75 -67.6 28.9 -67.6 27.9 -65.8 27.1 -65.05 26.75 -64.05 26.5 -63.9 26.45 -63.65 26.4 -62.95 26.15 -62.05 25.95 -60.85 25.75 -59.5 25.5 -58.5 25.4 -57.45 25.3 -55.2 25.05 -52.65 24.95 -51.8 24.95 -50.9 24.95 -49.75 24.85 -48.55 24.85 -47.6 24.85 -46.6 24.95 -45.9 24.95 -45.15 24.95 -44.85 24.95 -44.55 24.95 -42.4 25 -40.4 25.2 -39.45 25.3 -38.5 25.45 -36.7 25.65 -35.05 25.95 -34.45 26.1 -33.95 26.25 -33.05 26.45 -32.25 26.75 -29.45 27.7 -29.45 28.9 -29.45 30 -32.3 31 -33.05 31.15 -33.95 31.4 -34.5 31.55 -35.05 31.65 -36.7 32 -38.45 32.25
L -38.35 32.4
Q -34.5 32 -31.25 31.35 -24.45 30 -24.45 27.95
M -17 20.9
L -17 20.95
Q -15.95 20.55 -14.65 20.3 -13.55 20.15 -12.4 20.15 -9.05 20.15 -6.65 21.5 -6.2 21.75 -5.8 22.05 -4.25 23.25 -4.25 24.8 -4.25 26.75 -6.65 28.1 -9.05 29.5 -12.4 29.5
L -12.4 29.7
Q -11.55 29.75 -10.6 29.75 -6.9 29.75 -4.25 28.25 -2.35 27.2 -1.85 25.8 -1.6 25.25 -1.6 24.6 -1.6 24.4 -1.6 24.2 -1.65 24.15 -1.6 24.1 -1.95 22.25 -4.25 20.9 -6.9 19.4 -10.6 19.4 -14.35 19.4 -17 20.9
M -46.05 -10.5
Q -47.4 -11.1 -48.55 -11.5 -48.4 -11.1 -48.4 -10.65 -48.4 -8.05 -50.5 -5.95 -51.55 -4.85 -52.5 -4.4 -51.1 -4.35 -49.4 -4.35
L -48.9 -4.35
Q -48.842578125 -4.3515625 -48.6 -4.4 -47.3 -7.6 -46.05 -10.5
M 81.1 27.75
Q 82.45 31.4 82.65 36.35
L 89.5 36.35
Q 95.45 30.65 93.8 16.9 92.2 26.4 81.1 27.75
M 93.05 -4.5
L 88.5 -4.55 88.5 -4.2 88.5 -4.15
Q 90.15 0.7 91.35 4.95 100.25 -1.95 93.05 -4.5
M 24.9 -5.55
L 26 -5.55
Q 29.95 -6.6 28.25 -9.95 25.9 -11.8 23.2 -12.2 28.8 -8.85 24.4 -5.5 24.65 -5.55 24.9 -5.55 Z"/>

<path fill="#B7030A" stroke="none" d="
M -78.55 29.6
Q -78.7 29.6 -78.85 29.65 -79.15 29.85 -79.4 30.1 -82.6 32.35 -87.2 33.25 -86.05 35.05 -84.4 36.55
L -70.1 36.55
Q -72.75 32.15 -73.9 28.25 -75.9 29.4 -78.55 29.6
M -49.1 23.1
Q -49.2 22.4 -49.2 21.7 -62.15 21.6 -74.65 19.8 -74.75 20.25 -74.75 20.7 -74.85 21.55 -74.8 22.35 -74.8 24.45 -74.35 26.6 -74.2 26.95 -74.15 27.35
L -74.15 27.4 -70.65 27.45
Q -69.95 25.75 -64.05 24.5 -63.25 24.35 -62.5 24.2 -56.75 23.2 -49.1 23.1
M -24.45 27.85
L -24.45 27.95
Q -24.45 30 -31.25 31.35 -34.5 32 -38.35 32.4 -39.4 32.5 -40.4 32.55 -40.8 32.6 -41.2 32.6 -42.7 32.7 -44.35 32.75 -44.45 32.75 -44.55 32.75 -45.6 32.8 -46.6 32.8 -47.6 32.8 -48.55 32.8 -49.75 32.8 -50.9 32.8 -51.8 32.8 -52.65 32.75 -55.2 32.65 -57.45 32.4 -58.3 32.25 -59.05 32.15 -59.3 32.1 -59.5 32.1
L -59.55 32.1
Q -60.85 31.95 -62.1 31.7 -62.95 31.6 -63.7 31.45 -63.9 31.4 -64.05 31.35 -65.2 31.15 -66.15 30.85 -70.8 29.65 -70.8 27.95 -70.8 27.7 -70.65 27.45
L -74.15 27.4
Q -74.05 27.8 -73.9 28.25 -72.75 32.15 -70.1 36.55
L -14.15 36.55
Q -17.75 32 -18.95 27.7
L -18.95 27.6 -24.45 27.7 -24.45 27.85
M -19.55 22.55
Q -19.45 21 -19.05 19.45 -34.35 21.7 -49.2 21.7 -49.2 22.4 -49.1 23.1 -48.4 23.1 -47.6 23.1 -47.2 23.1 -46.75 23.1 -37.75 23.15 -31.25 24.5 -24.95 25.8 -24.5 27.7
L -24.45 27.7 -18.95 27.6 -18.95 27.55
Q -20.25 26.6 -20.45 25.35 -20.5 25.1 -20.5 24.8 -20.5 23.55 -19.55 22.55
M 26.75 18.65
Q 27.35 14.4 27.2 10.75 21.35 12.95 16.15 18.15 7.85 24.5 -1.6 24.2 -1.6 24.4 -1.6 24.6 -1.6 25.25 -1.85 25.8 -2.35 27.2 -4.25 28.25 -6.9 29.75 -10.6 29.75 -11.55 29.75 -12.4 29.7 -13.25 29.6 -14.05 29.4 -15.05 29.3 -15.85 29.05 -17.1 28.7 -18.1 28.1 -18.55 27.9 -18.9 27.6
L -18.95 27.7
Q -17.75 32 -14.15 36.55
L 6.95 36.55
Q 8.55 35.75 10.05 34.8 18.2 30 23.05 23.2 24.9 21.55 26.6 20.75 33.7 17.3 38.8 26.6
L 39.1 26.5
Q 37 17.5 26.75 18.65
M 66.35 20.75
Q 69.1 13.9 69.05 7.1 59.75 13.6 44.3 10 35.15 7.7 27.2 10.75 27.35 14.4 26.75 18.65 37 17.5 39.1 26.5 39.4 27.9 39.55 29.6
L 39.55 30.55
Q 39.7 33.75 38.45 37.35 47 38.3 53.3 36.5 55.6 35.85 57.7 34.8 63.5 27.7 66.35 20.75
M 38.95 -66.4
Q 17.6 -67 24.95 -56.4
L 51.05 -56.6
Q 56.7 -46.1 60.5 -33.2 64.25 -20.6 66.35 -5.55
L 69.45 -5.55
Q 67.4 -20.3 63.75 -32.75 60.35 -44.25 55.6 -53.85 75.9 -36.75 84.95 -5.55
L 75.7 -5.55
Q 75.65 -1.05 72.8 3.8 72.65 3.95 72.55 4.1 70.9 5.8 69.05 7.1 69.1 13.9 66.35 20.75 63.5 27.7 57.7 34.8 63.7 31.65 66.95 25.15 67.95 22.75 69.25 21.5 72.8 17.8 77.8 22.4 79.85 24.6 81.1 27.75 92.2 26.4 93.8 16.9 93.15 11.5 91.35 4.95 90.15 0.7 88.5 -4.15
L 88.5 -4.2
Q 88.4953125 -4.36875 88.45 -4.55 78.65 -46.4 44.6 -63.9 41.8 -65.3 38.95 -66.4
M 85.3 5.7
Q 86.1 8.35 85.7 10.5 85.35 12.75 83.95 13.2 82.5 13.6 80.95 12 79.35 10.45 78.55 7.75 77.75 5.05 78.2 2.85 78.55 0.7 80 0.25 81.35 -0.15 82.95 1.35 84.45 3 85.3 5.7
M 85.7 10.5
Q 86.1 8.35 85.3 5.7 84.45 3 82.95 1.35 81.35 -0.15 80 0.25 78.55 0.7 78.2 2.85 77.75 5.05 78.55 7.75 79.35 10.45 80.95 12 82.5 13.6 83.95 13.2 85.35 12.75 85.7 10.5 Z"/>

<path fill="#C3BEDF" stroke="none" d="
M -75.85 21.6
Q -76.1 21.5 -76.3 21.4 -76.05 26.8 -82.95 28.95 -82.1 29.05 -81.15 29.05 -78.05 29.05 -75.85 27.75 -74.9 27.25 -74.35 26.6 -74.8 24.45 -74.8 22.35 -75.3 21.95 -75.85 21.6
M -6.65 28.1
Q -4.25 26.75 -4.25 24.8 -4.25 23.25 -5.8 22.05 -7.2 27.3 -15.85 29.05 -15.05 29.3 -14.05 29.4 -13.25 29.5 -12.4 29.5 -9.05 29.5 -6.65 28.1
M 9.15 44.85
Q 9.55 44.4 9.9 44 11.35 42.1 11.1 40.3
L -87.5 40.3
Q -87.8 42.4 -85.25 44.95
L -67.35 44.95 -51.15 44.95 9.15 44.85
M 82.45 44.25
L 90.15 44.25
Q 92.75 41.95 92.3 39.6 92.25 39.55 92.25 39.5
L 80.35 39.5
Q 80.2 39.85 80.2 40.3
L 81.25 40.3 80.2 40.3
Q 80.05 42.4 82.45 44.25
M 65.7 3.75
Q 67.25 3.25 67.25 2.6 67.25 1.95 65.7 1.4 64.2 0.9 62.1 0.9 60 0.9 58.5 1.4 57 1.95 57 2.6 57 3.25 58.5 3.75 60 4.25 62.1 4.25 64.2 4.25 65.7 3.75 Z"/>

<path fill="#E5E3EE" stroke="none" d="
M -76.3 21.4
Q -76.4 21.35 -76.45 21.3 -78.45 20.4 -81.15 20.4 -83.8 20.4 -85.75 21.3 -86.15 21.4 -86.5 21.6 -88.7 22.9 -88.7 24.7 -88.7 26.55 -86.5 27.75 -86.35 27.9 -86.15 27.95 -84.75 28.7 -82.95 28.95 -76.05 26.8 -76.3 21.4
M -18.1 21.5
Q -18.95 22 -19.55 22.55 -20.5 23.55 -20.5 24.8 -20.5 25.1 -20.45 25.35 -20.25 26.6 -18.95 27.55
L -18.9 27.6
Q -18.55 27.9 -18.1 28.1 -17.1 28.7 -15.85 29.05 -7.2 27.3 -5.8 22.05 -6.2 21.75 -6.65 21.5 -9.05 20.15 -12.4 20.15 -13.55 20.15 -14.65 20.3 -15.95 20.55 -17 20.95 -17.1 21 -17.15 21.1
L -17.25 21.1
Q -17.75 21.25 -18.1 21.5 Z"/>

<path fill="#242424" stroke="none" d="
M -12.55 46.55
L -31.3 46.55
Q -30.2 53.05 -21.85 53.3
L -21.85 53.35
Q -21.8 53.35 -21.7 53.35 -13.7 51.95 -12.55 46.55
M 9.9 44
Q 9.55 44.4 9.15 44.85
L -51.15 44.95 -50.15 46.55 -49.9 46.55 -46.1 46.55 -40 46.55 -31.3 46.55 -12.55 46.55 -7.5 46.55 -3.7 46.55 2.25 46.55 10.3 46.55
Q 10.05 45.3 9.9 44
M 46.85 45.05
L 53.6 45.05
Q 53.45 43.95 53.35 42.8 53 39.5 53.3 36.5 47 38.3 38.45 37.35 39.7 33.75 39.55 30.55
L 39.55 29.6
Q 39.3 28.05 38.8 26.6 33.7 17.3 26.6 20.75 31.45 22.9 34.7 29.5 38.35 37 37.95 45.95 37.75 49 37 51.6 46 51.25 46.85 45.05
M 82.65 36.35
Q 82.45 31.4 81.1 27.75 79.85 24.6 77.8 22.4 72.8 17.8 69.25 21.5 72.05 22.7 74.6 25.8 79.15 31.45 80.05 40 80.05 40.15 80.1 40.3
L 80.2 40.3
Q 80.2 39.85 80.35 39.5 80.8 38 82.65 36.35 Z"/>

<path fill="#E21106" stroke="none" d="
M -49.3 -4.05
L -49.4 -4.35
Q -68.7 -1.7 -78.95 6.6 -80.35 7.7 -81.55 8.95 -87.3 14.65 -89.4 22.65 -89.95 28.75 -87.2 33.25 -82.6 32.35 -79.4 30.1
L -79.75 29.65
Q -81.8 29.65 -83.6 29.1 -84.75 28.75 -85.85 28.15 -86.05 28.05 -86.15 27.95 -86.35 27.9 -86.5 27.75 -88.7 26.55 -88.7 24.7 -88.7 22.9 -86.5 21.6 -86.2 21.4 -85.85 21.2 -83.25 19.75 -79.75 19.75 -76.95 19.75 -74.75 20.7 -74.75 20.25 -74.65 19.8 -74.15 15.5 -71.55 11.6 -69.85 9.05 -67.2 6.6 -60.95 0.75 -49.3 -4.05
M -84.15 16.2
Q -78.55 3.35 -60.65 -1.1 -75.1 5.65 -84.15 16.2
M -48.45 -4.4
L -48.6 -4.35
Q -48.95 -4.2 -49.3 -4.05 -60.95 0.75 -67.2 6.6 -69.85 9.05 -71.55 11.6 -74.15 15.5 -74.65 19.8 -62.15 21.6 -49.2 21.7 -49.2 21.4 -49.2 21.25 -49.35 16 -48.05 11.6 -47.3 8.95 -45.95 6.6 -39.7 -4.6 -21.5 -8.8 -32.8 -8.45 -43.35 -5.8 -44.05 -5.65 -44.8 -5.45 -46.6 -5 -48.45 -4.4
M -69.15 14.1
Q -63.5 1.2 -45.65 -3.25 -60.1 3.5 -69.15 14.1
M -58.85 -8.6
Q -58.55 -5.3 -53.5 -4.5 -53 -4.5 -52.5 -4.4 -51.55 -4.85 -50.5 -5.95 -48.4 -8.05 -48.4 -10.65 -48.4 -11.1 -48.55 -11.5 -57.9 -15.2 -58.85 -8.6
M -56.4 -10.35
Q -55.45 -11.05 -54.2 -11.05
L -53.8 -11.05
Q -55 -10.5 -56.2 -9.1 -56.9 -7.95 -57.4 -7.45 -57.5 -7.7 -57.5 -8.3 -57.5 -9.55 -56.4 -10.35
M 66.35 -5.55
Q 66.35 -5.5 66.35 -5.45 68.95 0.8 69.05 7.1 70.9 5.8 72.55 4.1 72.65 3.95 72.8 3.8 75.65 -1.05 75.7 -5.55
L 72.9 -5.55 69.45 -5.55 66.35 -5.55
M 20.1 -5.35
Q 18.4 -5.05 17.3 -4.95 26.6 -0.8 27.2 10.75 35.15 7.7 44.3 10 59.75 13.6 69.05 7.1 68.95 0.8 66.35 -5.45 66.35 -5.5 66.35 -5.55
L 39.1 -5.55 26 -5.55 24.9 -5.55
Q 24.65 -5.55 24.4 -5.5 21.95 -5.45 20.1 -5.35
M 67.25 2.6
Q 67.25 3.25 65.7 3.75 64.2 4.25 62.1 4.25 60 4.25 58.5 3.75 57 3.25 57 2.6 57 1.95 58.5 1.4 60 0.9 62.1 0.9 64.2 0.9 65.7 1.4 67.25 1.95 67.25 2.6
M 17.3 -4.95
Q 16.8 -4.95 16.3 -4.9
L 16.3 -4.85
Q 14.8 -4.75 13.35 -4.55 6.15 -3.7 0.35 -0.95 -16.35 9.05 -19.05 19.45 -19.45 21 -19.55 22.55 -18.95 22 -18.1 21.5 -17.75 21.25 -17.25 21.1
L -17.15 21.1
Q -17.15 21 -17 20.9 -14.35 19.4 -10.6 19.4 -6.9 19.4 -4.25 20.9 -1.95 22.25 -1.6 24.1 -1.65 24.15 -1.6 24.2 7.85 24.5 16.15 18.15 21.35 12.95 27.2 10.75 26.6 -0.8 17.3 -4.95
M -13.55 14.6
Q -7.95 1.7 9.95 -2.75 -4.55 4 -13.55 14.6
M 16 -6.6
L 16.1 -6.5
Q 18 -5.05 20.1 -5.35 21.95 -5.45 24.4 -5.5 28.8 -8.85 23.2 -12.2 20.2 -12.65 16.75 -11.3 13.65 -8.95 16 -6.6
M 15.45 -8.4
Q 15.45 -9.8 16.6 -10.55 17.45 -11.15 18.95 -11.1 18.35 -10.75 17.6 -10 16.3 -8.8 15.95 -7.5 15.45 -7.9 15.45 -8.4
M 24.95 -56.4
Q 17.6 -67 38.95 -66.4 9.75 -77.55 -22.8 -56.8 -30.7 -46.75 -46.05 -10.5 -47.3 -7.6 -48.6 -4.4 -48.55 -4.4 -48.45 -4.4 -46.6 -5 -44.8 -5.45 -34.9 -31.1 -20.5 -55.85
L 16.95 -56.15 16.8 -54.15 13.35 -4.85
Q -4.85 -9.35 -21.5 -8.8 -39.7 -4.6 -45.95 6.6 -47.3 8.95 -48.05 11.6 -49.35 16 -49.2 21.25 -49.2 21.4 -49.2 21.7 -34.35 21.7 -19.05 19.45 -16.35 9.05 0.35 -0.95 6.15 -3.7 13.35 -4.55 14.8 -4.75 16.3 -4.85 16 -4.9 16.25 -4.9
L 16.3 -4.9 16.1 -6.5 16 -6.6
Q 13.65 -8.95 16.75 -11.3
L 20.3 -56.35 24.95 -56.4 Z"/>

<path fill="#FFFFFF" stroke="none" d="
M -60.65 -1.1
Q -78.55 3.35 -84.15 16.2 -75.1 5.65 -60.65 -1.1
M -45.65 -3.25
Q -63.5 1.2 -69.15 14.1 -60.1 3.5 -45.65 -3.25
M -54.2 -11.05
Q -55.45 -11.05 -56.4 -10.35 -57.5 -9.55 -57.5 -8.3 -57.5 -7.7 -57.4 -7.45 -56.9 -7.95 -56.2 -9.1 -55 -10.5 -53.8 -11.05
L -54.2 -11.05
M 89.5 36.35
L 82.65 36.35
Q 80.8 38 80.35 39.5
L 92.25 39.5
Q 91.9 37.9 90.15 36.35
L 89.5 36.35
M 9.95 -2.75
Q -7.95 1.7 -13.55 14.6 -4.55 4 9.95 -2.75
M 16.6 -10.55
Q 15.45 -9.8 15.45 -8.4 15.45 -7.9 15.95 -7.5 16.3 -8.8 17.6 -10 18.35 -10.75 18.95 -11.1 17.45 -11.15 16.6 -10.55
M 16.8 -54.15
L 16.95 -56.15 -20.5 -55.85
Q -34.9 -31.1 -44.8 -5.45 -44.05 -5.65 -43.35 -5.8 -18.3 -54.7 16.8 -54.15 Z"/>

<path fill="#F1EFFA" stroke="none" d="
M 8.75 36.55
L 6.95 36.55 -14.15 36.55 -70.1 36.55 -84.4 36.55
Q -87.3 38.2 -87.5 40.3
L 11.1 40.3
Q 10.9 38.9 9.8 37.55 9.4 37.15 8.9 36.7 8.8 36.6 8.75 36.55 Z"/>

<path fill="#D1D2D3" stroke="none" d="
M 26.55 35.9
Q 26.1 35.9 25.85 36.7 25.75 38.85 26.05 41.3 26.4 44.5 27.15 47 27.45 47.3 27.8 47.3 28.45 47.25 28.8 45.5 29.05 43.8 28.8 41.4 28.55 39.1 27.85 37.4 27.2 35.8 26.55 35.9
M 69.6 47.3
Q 69.85 47.45 70.1 47.45 70.8 47.35 71.05 45.7 71.4 44 71.2 41.7 70.95 39.45 70.25 37.85 69.6 36.2 68.9 36.35 68.4 36.35 68 37.45 68 39.1 68.25 40.95 68.65 44.6 69.6 47.3 Z"/>

<path fill="#99999A" stroke="none" d="
M 26.1 33.55
Q 25.9 35.05 25.85 36.7 26.1 35.9 26.55 35.9 27.2 35.8 27.85 37.4 28.55 39.1 28.8 41.4 29.05 43.8 28.8 45.5 28.45 47.25 27.8 47.3 27.45 47.3 27.15 47 27.45 47.95 27.8 48.8 29.05 51.85 30.3 51.7 31.6 51.55 32.1 48.3 32.7 45.05 32.2 40.6 31.7 36.1 30.45 33.1 29.2 30 27.9 30.1 26.7 30.25 26.1 33.55
M 70.2 30.25
Q 68.95 30.4 68.4 33.55 68 35.3 68 37.45 68.4 36.35 68.9 36.35 69.6 36.2 70.25 37.85 70.95 39.45 71.2 41.7 71.4 44 71.05 45.7 70.8 47.35 70.1 47.45 69.85 47.45 69.6 47.3 69.75 47.75 69.9 48.15 71.15 51.05 72.4 50.9 73.7 50.75 74.3 47.65 74.9 44.5 74.45 40.3 74 35.95 72.75 33.1 71.5 30.1 70.2 30.25 Z"/>

<path fill="#DEE3F5" stroke="none" d="
M 13.35 -4.85
L 16.8 -54.15
Q -18.3 -54.7 -43.35 -5.8 -32.8 -8.45 -21.5 -8.8 -4.85 -9.35 13.35 -4.85
M 72.9 -5.55
Q 72.2 -11.15 70.35 -12.3 73.3 -30.7 63.75 -32.75 67.4 -20.3 69.45 -5.55
L 72.9 -5.55
M 70.35 -12.3
Q 72.2 -11.15 72.9 -5.55
L 75.7 -5.55 84.95 -5.55
Q 75.9 -36.75 55.6 -53.85 60.35 -44.25 63.75 -32.75 73.3 -30.7 70.35 -12.3
M 60.5 -33.2
Q 54.95 -35.3 49.65 -29.15 46.15 -24.7 44.45 -15.15 40.55 -13.85 39.1 -5.55
L 66.35 -5.55
Q 64.25 -20.6 60.5 -33.2
M 24.95 -56.4
L 20.3 -56.35 16.75 -11.3
Q 20.2 -12.65 23.2 -12.2 25.9 -11.8 28.25 -9.95 29.95 -6.6 26 -5.55
L 39.1 -5.55
Q 40.55 -13.85 44.45 -15.15 46.15 -24.7 49.65 -29.15 54.95 -35.3 60.5 -33.2 56.7 -46.1 51.05 -56.6
L 24.95 -56.4 Z"/>
</g>
</g>

<g transform="matrix( -0.4453125, 0, 0, 0.4453125, 3.3,-3.25) ">
<path stroke="#000000" stroke-width="1" stroke-linejoin="round" stroke-linecap="round" fill="none" d="
M -80.0163330078125 -141.75820312500002
Q -14.4446533203125 -166.7967041015625 58.6498046875 -120.200390625 76.390087890625 -97.6320556640625 110.8601318359375 -16.228857421875 113.667138671875 -9.716601562500001 116.58642578125 -2.5306640625000014 116.4741455078125 -2.5306640625000014 116.24958496093751 -2.5306640625000014 112.09521484375 -3.8780273437500004 108.053125 -4.8885498046875 85.821630859375 -62.488330078124996 53.484912109375 -118.0670654296875
L -30.613012695312502 -118.74074707031251 -30.276171875 -114.24953613281251 -22.5288330078125 -3.5411865234374993
Q 18.3411865234375 -13.646411132812501 55.730517578125 -12.411328125000002 96.60053710937501 -2.9797851562499993 110.63557128906251 22.17099609375 113.667138671875 27.448168945312496 115.3513427734375 33.3990234375 118.2706298828125 43.2796875 117.93378906250001 55.0691162109375 117.93378906250001 55.40595703125 117.93378906250001 56.079638671875
M 50.2287841796875 51.0270263671875
Q 44.16564941406251 27.6727294921875 6.6640380859375 5.2166748046875 -6.360473632812501 -0.958740234375 -22.5288330078125 -2.8675048828125007 -25.7849609375 -3.3166259765625004 -29.153369140625 -3.5411865234374993 -28.4796875 -3.6534667968750014 -29.0410888671875 -3.6534667968750014
L -29.153369140625 -3.6534667968750014 -28.704248046875005 -7.246435546875 -28.4796875 -7.470996093749999
Q -23.2025146484375 -12.748168945312498 -30.1638916015625 -18.025341796875004
L -38.135791015624996 -119.1898681640625 -48.5778564453125 -119.30214843750001 -107.18815917968749 -119.75126953125
Q -119.875830078125 -96.172412109375 -128.409130859375 -67.20410156250001 -136.8301513671875 -38.90947265625 -141.5459228515625 -5.113110351562501
L -148.5072998046875 -5.113110351562501
Q -143.90380859375003 -38.235791015625 -135.7073486328125 -66.1935791015625 -128.07229003906252 -92.0180419921875 -117.4056640625 -113.5758544921875 -162.99145507812503 -75.1760009765625 -183.3141845703125 -5.113110351562501
L -162.542333984375 -5.113110351562501
M -141.5459228515625 53.9463134765625
Q -147.721337890625 38.563916015625 -147.60905761718752 23.293798828125
M -122.12143554687499 85.49707031249999
Q -135.145947265625 69.553271484375 -141.5459228515625 53.9463134765625
M -122.12143554687499 85.49707031249999
Q -135.595068359375 78.4234130859375 -142.8932861328125 63.8269775390625 -145.1388916015625 58.4375244140625 -148.0581787109375 55.630517578125 -156.03007812500002 47.32177734375 -167.25810546875002 57.6515625 -171.8615966796875 62.591894531250006 -174.668603515625 69.6655517578125
M -203.18779296875002 45.300732421875
Q -201.72814941406253 33.174462890625 -197.6860595703125 18.4657470703125 -194.99133300781253 8.921923828125 -191.286083984375 -1.9692626953125014
L -191.286083984375 -2.0254028320312507
Q -191.27555770874025 -2.460488891601564 -191.1738037109375 -2.8675048828125007 -169.16687011718753 -96.84609375000001 -92.70400390625 -136.144189453125 -86.41630859374999 -139.288037109375 -80.0163330078125 -141.75820312500002
M -31.398974609375 -3.7657470703125
Q -30.276171875 -3.7657470703125 -29.153369140625 -3.6534667968750014
L -29.153369140625 -3.5411865234374993
M -37.686669921875 -4.663989257812499
Q -33.86914062499999 -3.9903076171875007 -31.398974609375 -3.7657470703125 -52.28310546875 5.553515624999999 -53.63046875 31.4902587890625
M -147.60905761718752 23.293798828125
Q -147.3844970703125 9.146484375 -141.5459228515625 -4.8885498046875 -141.5459228515625 -5.000830078125 -141.5459228515625 -5.113110351562501
L -80.353173828125 -5.113110351562501 -50.9357421875 -5.113110351562501 -48.46557617187499 -5.113110351562501
Q -47.90417480468749 -5.113110351562501 -47.34277343749999 -5.000830078125 -41.8410400390625 -4.8885498046875 -37.686669921875 -4.663989257812499 -32.9708984375 -3.9903076171875007 -28.704248046875005 -7.246435546875
M -44.648046875 -20.04638671875
Q -37.91123046875 -21.0569091796875 -30.1638916015625 -18.025341796875004
M -50.9357421875 -5.113110351562501
Q -59.80588378906249 -7.470996093749999 -55.9883544921875 -14.993774414062498 -50.71118164062499 -19.148144531250004 -44.648046875 -20.04638671875
M -162.542333984375 -5.113110351562501
L -156.25463867187503 -5.113110351562501 -148.5072998046875 -5.113110351562501
M -191.1738037109375 -2.8675048828125007
L -191.286083984375 -2.8675048828125007 -201.50358886718752 -2.7552246093750004
Q -217.6719482421875 2.9710693359375 -197.6860595703125 18.4657470703125
M -184.10014648437502 20.149951171875
Q -185.896630859375 26.1008056640625 -184.998388671875 30.928857421875 -184.2124267578125 35.9814697265625 -181.0685791015625 36.991992187499996 -177.812451171875 37.890234375 -174.3317626953125 34.297265625 -170.7387939453125 30.816577148437496 -168.94230957031252 24.7534423828125 -167.1458251953125 18.6903076171875 -168.15634765625 13.749975585937499 -168.94230957031252 8.921923828125 -172.1984375 7.9114013671875 -175.2300048828125 7.0131591796874995 -178.8229736328125 10.3815673828125 -182.1913818359375 14.08681640625 -184.10014648437502 20.149951171875 Z
M -199.81938476562502 96.27597656249999
Q -200.8299072265625 101.5531494140625 -194.99133300781253 106.7180419921875
L -177.7001708984375 106.7180419921875
Q -172.31071777343752 102.563671875 -172.64755859375 97.84790039062499
L -172.422998046875 97.84790039062499
Q -174.1072021484375 116.48642578124999 -167.033544921875 130.85830078125 -159.5107666015625 145.3424560546875 -147.04765625000002 146.802099609375 -134.69682617187502 148.03718261718748 -124.5916015625 135.23723144531252 -115.60917968749999 124.34604492187499 -112.914453125 108.51452636718749
L -97.7566162109375 108.51452636718749
Q -95.8478515625 122.4372802734375 -75.63740234375 123.22324218749999 -72.8303955078125 134.3389892578125 -65.981298828125 141.86176757812498 -56.2129150390625 153.4266357421875 -42.9638427734375 149.496826171875 -30.1638916015625 145.79157714843748 -21.4060302734375 128.837255859375 -19.272705078125 124.121484375 -17.70078125 119.29343261718749 -16.4656982421875 115.7004638671875 -15.679736328125003 111.88293457031249
L 2.3973876953125 111.88293457031249
Q 3.9693115234375003 123.22324218749999 9.3587646484375 132.3179443359375 17.4429443359375 146.802099609375 30.130615234375 147.3635009765625 42.706005859375004 147.92490234375 52.137548828125 134.11442871093752 54.383154296875 130.74602050781252 56.179638671875004 127.15305175781249 56.40419921875 127.15305175781249 56.51647949218751 127.15305175781249
L 56.51647949218751 127.04077148437499
Q 75.26728515625 126.47937011718749 77.73745117187501 111.88293457031249
L 97.27421875 111.88293457031249
Q 98.84614257812501 124.34604492187499 104.684716796875 134.3389892578125 113.1057373046875 149.047705078125 126.1302490234375 149.496826171875 139.15476074218748 150.0582275390625 148.81086425781248 136.023193359375 157.00732421874997 124.34604492187499 158.69152832031247 108.2899658203125
L 198.8878662109375 108.2899658203125
Q 204.61416015625 102.563671875 203.940478515625 97.84790039062499
M -174.668603515625 69.6655517578125
Q -177.7001708984375 77.86201171875 -178.14929199218753 88.97775878906249
L -193.531689453125 88.97775878906249
Q -206.8930419921875 76.1778076171875 -203.18779296875002 45.300732421875
M -193.531689453125 88.97775878906249
L -194.99133300781253 88.97775878906249
Q -198.92114257812503 92.458447265625 -199.7071044921875 96.051416015625
M -172.9843994140625 96.051416015625
Q -172.64755859375 96.83737792968749 -172.64755859375 97.84790039062499
M -140.086279296875 10.493847656249999
Q -143.5669677734375 11.7289306640625 -143.5669677734375 13.188574218749999 -143.5669677734375 14.6482177734375 -140.086279296875 15.7710205078125 -136.71787109375 16.8938232421875 -132.00209960937502 16.8938232421875 -127.286328125 16.8938232421875 -123.917919921875 15.7710205078125 -120.54951171875 14.6482177734375 -120.54951171875 13.188574218749999 -120.54951171875 11.7289306640625 -123.917919921875 10.493847656249999 -127.286328125 9.371044921875 -132.00209960937502 9.371044921875 -136.71787109375 9.371044921875 -140.086279296875 10.493847656249999 Z
M -112.24077148437499 89.314599609375
Q -117.4056640625 87.85495605468749 -122.12143554687499 85.49707031249999
M -112.24077148437499 89.314599609375
Q -111.56708984375 96.051416015625 -112.3530517578125 103.46191406249999 -112.5776123046875 106.0443603515625 -112.914453125 108.51452636718749
M -148.844140625 113.56713867187499
Q -149.1809814453125 114.5776611328125 -149.51782226562503 115.4759033203125 -152.32482910156253 121.98815917968749 -155.13183593750003 121.651318359375 -158.051123046875 121.3144775390625 -159.39848632812502 114.3531005859375 -160.74584960937503 107.279443359375 -159.7353271484375 97.84790039062499 -158.7248046875 88.0795166015625 -155.9177978515625 81.67954101562499 -153.110791015625 74.94272460937499 -150.19150390625 75.2795654296875 -147.3844970703125 75.61640625 -146.14941406250003 82.69006347656249 -145.251171875 86.61987304687499 -145.251171875 91.4479248046875 -146.14941406250003 88.97775878906249 -147.27221679687503 88.97775878906249 -148.844140625 88.64091796875 -150.3037841796875 92.34616699218749 -151.8757080078125 95.9391357421875 -152.437109375 100.991748046875 -152.88623046875003 106.156640625 -152.10026855468752 109.974169921875 -151.53886718750002 113.67941894531249 -149.966943359375 113.9039794921875 -149.4055419921875 113.9039794921875 -148.844140625 113.56713867187499 Z
M -148.844140625 113.56713867187499
Q -146.71081542968753 107.50400390624999 -145.8125732421875 99.3075439453125 -145.251171875 95.15317382812499 -145.251171875 91.4479248046875
M -148.0581787109375 55.630517578125
Q -154.34587402343752 58.325244140625 -160.07216796875 65.28662109375 -170.28967285156253 77.97429199218749 -172.31071777343752 97.17421875 -172.31071777343752 97.5110595703125 -172.422998046875 97.84790039062499
M -53.63046875 31.4902587890625
Q -53.9673095703125 39.686718750000004 -52.6199462890625 49.2305419921875 -75.63740234375 46.648095703125 -80.353173828125 66.858544921875 -81.02685546875 70.002392578125 -81.36369628906249 73.81992187499999
L -81.36369628906249 75.9532470703125
Q -81.700537109375 83.1391845703125 -78.8935302734375 91.22336425781249 -98.09345703125 93.35668945312499 -112.24077148437499 89.314599609375
M -52.28310546875 53.9463134765625
Q -48.46557617187499 55.7427978515625 -44.311206054687496 59.448046875 -33.42001953125 74.7181640625 -15.118334960937503 85.49707031249999 -11.749926757812503 87.6303955078125 -8.156958007812499 89.42687988281249
L -12.1990478515625 89.42687988281249
Q -12.311328125000003 89.53916015624999 -12.535888671875 89.763720703125 -13.65869140625 90.7742431640625 -14.556933593750003 91.67248535156249 -17.027099609375 94.704052734375 -17.476220703125 97.84790039062499 -18.0376220703125 101.88999023437499 -14.781494140625 106.156640625 -15.118334960937503 109.07592773437499 -15.679736328125003 111.88293457031249
L -17.25166015625 111.88293457031249
M 122.3127197265625 108.2899658203125
L -13.0972900390625 108.06540527343749
Q -13.995532226562503 107.0548828125 -14.781494140625 106.156640625
M -81.36369628906249 73.81992187499999
Q -80.80229492187499 70.3392333984375 -79.67949218749999 67.08310546875 -68.226904296875 46.198974609375 -52.28310546875 53.9463134765625 -63.17429199218749 58.774365234375 -70.472509765625 73.595361328125 -78.6689697265625 90.43740234375 -77.7707275390625 110.5355712890625 -77.3216064453125 117.38466796875 -75.63740234375 123.22324218749999
M -53.51818847656249 112.89345703125
Q -54.1918701171875 115.0267822265625 -54.977832031249996 116.93554687499999 -57.7848388671875 123.78464355468749 -60.591845703125 123.447802734375 -63.511132812499994 123.11096191406249 -64.633935546875 115.81274414062499 -65.981298828125 108.51452636718749 -64.85849609375 98.52158203124999 -63.73569335937499 88.41635742187499 -60.92868652343749 81.67954101562499 -58.12167968749999 74.7181640625 -55.20239257812499 74.94272460937499 -52.507666015625 75.2795654296875 -51.160302734375 82.69006347656249 -50.71118164062499 86.05847167968749 -50.5989013671875 89.763720703125 -51.160302734375 87.967236328125 -52.170825195312496 87.967236328125 -53.63046875 87.74267578124999 -55.0901123046875 91.33564453125 -56.6620361328125 95.15317382812499 -57.2234375 100.31806640625 -57.7848388671875 105.70751953124999 -57.2234375 109.525048828125 -56.4374755859375 113.4548583984375 -54.977832031249996 113.56713867187499 -54.1918701171875 113.56713867187499 -53.51818847656249 112.89345703125 Z
M -53.51818847656249 112.89345703125
Q -51.83398437499999 107.279443359375 -51.048022460937496 100.09350585937499 -50.3743408203125 94.59177246093749 -50.5989013671875 89.763720703125
M -178.14929199218753 88.97775878906249
Q -173.99492187500002 92.6830078125 -172.9843994140625 96.051416015625
M 116.4741455078125 -18.474462890625
Q 137.47055664062498 -26.783203125 139.6038818359375 -11.962207031250001 138.9302001953125 -4.551708984375001 127.589892578125 -2.7552246093750004
M 110.8601318359375 -16.228857421875
Q 113.89169921875 -17.576220703125003 116.4741455078125 -18.474462890625
M 125.344287109375 -2.5306640625000014
Q 122.200439453125 -2.4183837890624993 118.38291015625 -2.4183837890624993
L 117.260107421875 -2.4183837890624993
Q 117.13116054534913 -2.4218925476074222 116.58642578125 -2.5306640625000014
L 116.58642578125 -2.4183837890624993 116.24958496093751 -2.5306640625000014
M 117.260107421875 -2.4183837890624993
Q 117.13028335571289 -2.4183837890624993 116.58642578125 -2.4183837890624993 117.37238769531251 -2.08154296875 118.158349609375 -1.7447021484375007 144.31965332031248 9.0342041015625 158.35468749999998 22.17099609375 164.30554199218747 27.6727294921875 168.1230712890625 33.3990234375 173.9616455078125 42.156884765625 175.0844482421875 51.81298828125
M 117.93378906250001 56.079638671875
Q 117.93378906250001 57.6515625 117.709228515625 59.223486328125006 116.1373046875 59.223486328125006 114.3408203125 59.223486328125006 113.44257812500001 59.223486328125006 112.4320556640625 59.223486328125006 92.2216064453125 59.3357666015625 77.6251708984375 62.367333984375 63.477856445312504 65.28662109375 62.467333984375 69.553271484375
L 62.355053710937504 69.553271484375 50.004223632812504 69.3287109375 50.004223632812504 69.2164306640625
Q 52.9235107421875 67.08310546875 53.372631835937504 64.2760986328125 53.484912109375 63.714697265625006 53.484912109375 63.041015625 53.484912109375 60.2340087890625 51.3515869140625 57.9884033203125 51.127026367187504 54.50771484375 50.2287841796875 51.0270263671875
M 118.38291015625 -2.4183837890624993
Q 161.72309570312498 3.5324707031249996 184.74055175781248 22.17099609375 187.88439941406247 24.641162109375003 190.5791259765625 27.448168945312496 203.491357421875 40.248120117187504 208.20712890625 58.2129638671875 209.44221191406248 71.9111572265625 203.26679687499998 82.0163818359375
M 186.5370361328125 73.9322021484375
Q 191.14052734375 73.9322021484375 195.18261718749997 72.69711914062499 197.7650634765625 71.9111572265625 200.23522949218747 70.5637939453125 200.6843505859375 70.3392333984375 200.9089111328125 70.1146728515625 201.35803222656247 70.002392578125 201.694873046875 69.6655517578125 206.63520507812498 66.9708251953125 206.63520507812498 62.816455078125 206.63520507812498 58.774365234375 201.694873046875 55.855078125000006 201.02119140624998 55.40595703125 200.23522949218747 54.9568359375 194.3966552734375 51.7007080078125 186.5370361328125 51.7007080078125 180.24934082031248 51.7007080078125 175.3090087890625 53.834033203125 175.3090087890625 52.8235107421875 175.0844482421875 51.81298828125
M 104.7969970703125 -5.674511718750001
Q 106.3689208984375 -5.337670898437501 108.053125 -4.8885498046875
M 55.730517578125 -12.411328125000002
Q 81.105859375 -11.625366210937498 104.7969970703125 -5.674511718750001
M 45.62529296875 54.3954345703125
Q 43.267407226562504 53.4971923828125 40.348120117187506 52.935791015625 37.8779541015625 52.5989501953125 35.2955078125 52.5989501953125 27.7727294921875 52.5989501953125 22.383276367187502 55.630517578125 21.37275390625 56.1919189453125 20.47451171875 56.8656005859375 16.9938232421875 59.5603271484375 16.9938232421875 63.041015625 16.9938232421875 67.4199462890625 22.383276367187502 70.451513671875 27.7727294921875 73.595361328125 35.2955078125 73.595361328125
M 35.2955078125 74.04448242187499
Q 33.3867431640625 74.1567626953125 31.25341796875 74.1567626953125 22.944677734375002 74.1567626953125 16.9938232421875 70.7883544921875 12.7271728515625 68.43046875 11.6043701171875 65.28662109375 11.04296875 64.0515380859375 11.04296875 62.591894531250006 11.04296875 62.1427734375 11.04296875 61.69365234375
M 16.9938232421875 54.283154296875
Q 11.8289306640625 57.3147216796875 11.04296875 61.469091796875006
M 31.25341796875 50.91474609375
Q 22.944677734375002 50.91474609375 16.9938232421875 54.283154296875
M 45.62529296875 54.283154296875
Q 39.6744384765625 50.91474609375 31.25341796875 50.91474609375
M 45.9621337890625 54.732275390625006
Q 45.9621337890625 54.50771484375 45.62529296875 54.283154296875
M 45.9621337890625 54.732275390625006
Q 45.84985351562501 54.50771484375 45.62529296875 54.3954345703125
M 51.3515869140625 57.9884033203125
Q 50.004223632812504 56.7533203125 48.09545898437501 55.630517578125 47.3094970703125 55.0691162109375 46.1866943359375 54.732275390625006
L 45.9621337890625 54.732275390625006
M 62.355053710937504 69.94625244140624
L 62.355053710937504 70.1146728515625
Q 62.355053710937504 74.7181640625 77.6251708984375 77.74973144531249 84.923388671875 79.209375 93.5689697265625 80.1076171875 95.92685546875 80.332177734375 98.1724609375 80.44445800781249 99.070703125 80.55673828124999 99.96894531250001 80.55673828124999 103.33735351562501 80.781298828125 107.0426025390625 80.8935791015625 107.26716308593751 80.8935791015625 107.4917236328125 80.8935791015625 109.849609375 81.00585937499999 112.09521484375 81.00585937499999 114.3408203125 81.00585937499999 116.4741455078125 81.00585937499999 119.1688720703125 81.00585937499999 121.751318359375 81.00585937499999 123.77236328125 81.00585937499999 125.6811279296875 80.8935791015625 131.407421875 80.6690185546875 136.46003417968748 80.1076171875 138.368798828125 79.7707763671875 140.0530029296875 79.5462158203125 140.614404296875 79.43393554687499 141.063525390625 79.43393554687499
L 141.1758056640625 79.43393554687499
Q 144.0950927734375 79.09709472656249 146.902099609375 78.53569335937499 148.81086425781248 78.31113281249999 150.49506835937498 77.97429199218749 150.94418945312498 77.86201171875 151.2810302734375 77.74973144531249 153.86347656249998 77.3006103515625 155.9968017578125 76.62692871093749 166.4388671875 73.9322021484375 166.4388671875 70.1146728515625 166.4388671875 69.553271484375 166.1020263671875 68.9918701171875
L 173.9616455078125 68.87958984375
Q 173.7370849609375 69.77783203125 173.400244140625 70.7883544921875 170.8177978515625 79.5462158203125 164.86694335937497 89.42687988281249
L 39.2253173828125 89.42687988281249
Q 47.3094970703125 79.209375 50.004223632812504 69.553271484375
L 50.004223632812504 69.3287109375 49.891943359375 69.3287109375 50.004223632812504 69.2164306640625
M 62.467333984375 69.553271484375
Q 62.36470279693604 69.65590267181396 62.355053710937504 69.94625244140624
M 93.905810546875 64.5006591796875
Q 89.86372070312501 64.9497802734375 86.1584716796875 65.6234619140625 84.81110839843751 65.960302734375 83.68830566406251 66.2971435546875 81.6672607421875 66.7462646484375 79.8707763671875 67.4199462890625 73.5830810546875 69.553271484375 73.5830810546875 72.247998046875 73.5830810546875 74.7181640625 79.983056640625 76.96376953125 81.6672607421875 77.3006103515625 83.68830566406251 77.86201171875 84.923388671875 78.1988525390625 86.1584716796875 78.4234130859375 89.86372070312501 79.209375 93.79353027343751 79.7707763671875
M 98.1724609375 63.9392578125
Q 96.03913574218751 64.163818359375 93.905810546875 64.5006591796875
L 93.79353027343751 79.7707763671875
Q 96.03913574218751 79.99533691406249 98.1724609375 80.2198974609375 99.070703125 80.332177734375 100.0812255859375 80.44445800781249
L 99.96894531250001 80.55673828124999
M 98.1724609375 63.9392578125
L 98.1724609375 80.2198974609375
M 83.68830566406251 77.86201171875
L 83.68830566406251 66.2971435546875
M 79.8707763671875 67.4199462890625
L 79.983056640625 76.96376953125
M 35.2955078125 73.595361328125
Q 37.2042724609375 73.595361328125 39.0007568359375 73.37080078125 37.2042724609375 73.81992187499999 35.2955078125 74.04448242187499
M 49.891943359375 69.3287109375
Q 49.1059814453125 70.002392578125 48.09545898437501 70.451513671875 45.84985351562501 71.79887695312499 43.0428466796875 72.5848388671875 41.2463623046875 73.146240234375 39.0007568359375 73.37080078125
M 24.292041015625 111.88293457031249
Q 24.292041015625 112.219775390625 24.292041015625 112.55661621093749 23.9552001953125 116.48642578124999 22.7201171875 119.0688720703125 21.260473632812502 121.7635986328125 19.4639892578125 121.651318359375 17.6675048828125 121.53903808593749 16.656982421875 118.61975097656249 15.4218994140625 115.81274414062499 15.758740234375 111.88293457031249
L 24.292041015625 111.88293457031249 Z
M 24.292041015625 111.88293457031249
L 35.6323486328125 111.88293457031249
Q 38.214794921875 124.0092041015625 56.179638671875004 127.15305175781249
M 35.6323486328125 111.88293457031249
L 77.73745117187501 111.88293457031249
M 179.12653808593748 55.181396484375
Q 183.61774902343748 53.1603515625 189.6808837890625 53.1603515625 195.63173828125 53.1603515625 200.0106689453125 55.181396484375 200.9089111328125 55.40595703125 201.694873046875 55.855078125000006
M 178.789697265625 55.40595703125
Q 178.34057617187497 55.630517578125 177.77917480468747 55.855078125000006 176.544091796875 56.6410400390625 175.4212890625 57.539282226562506 175.53356933593747 55.7427978515625 175.3090087890625 53.834033203125
M 117.709228515625 59.223486328125006
Q 134.8881103515625 59.448046875 147.800341796875 61.69365234375 149.4845458984375 62.030493164062506 151.2810302734375 62.367333984375 164.53010253906248 65.1743408203125 166.1020263671875 68.9918701171875
M 155.21083984375 68.205908203125
Q 153.5266357421875 67.4199462890625 151.2810302734375 66.858544921875 150.94418945312498 66.7462646484375 150.38278808593748 66.633984375 148.81086425781248 66.0725830078125 146.7898193359375 65.6234619140625 144.0950927734375 65.1743408203125 141.063525390625 64.612939453125 138.817919921875 64.38837890625 136.46003417968748 64.163818359375 131.407421875 63.6024169921875 125.6811279296875 63.3778564453125 123.77236328125 63.3778564453125 121.751318359375 63.3778564453125 119.1688720703125 63.153295898437506 116.4741455078125 63.153295898437506 114.3408203125 63.153295898437506 112.09521484375 63.3778564453125 110.523291015625 63.3778564453125 108.8390869140625 63.3778564453125 108.1654052734375 63.3778564453125 107.4917236328125 63.3778564453125 102.663671875 63.49013671875 98.1724609375 63.9392578125
M 155.6599609375 75.840966796875
Q 159.25292968749997 74.1567626953125 159.25292968749997 72.247998046875 159.25292968749997 70.002392578125 155.21083984375 68.205908203125
L 155.32312011718747 75.840966796875 155.32312011718747 75.9532470703125
Q 153.5266357421875 76.62692871093749 151.16875 77.3006103515625 150.8319091796875 77.41289062499999 150.38278808593748 77.5251708984375
L 150.38278808593748 66.633984375
M 155.32312011718747 75.9532470703125
Q 155.54285612106324 75.84359836578369 155.6599609375 75.840966796875
M 141.063525390625 79.43393554687499
Q 144.0950927734375 78.87253417968749 146.7898193359375 78.4234130859375 148.81086425781248 77.97429199218749 150.38278808593748 77.5251708984375
M 174.41076660156247 67.08310546875
Q 175.645849609375 68.5427490234375 177.77917480468747 69.6655517578125 182.7195068359375 72.5848388671875 189.6808837890625 72.5848388671875 191.81420898437497 72.5848388671875 193.72297363281248 72.36027832031249
M 174.41076660156247 67.08310546875
Q 174.07392578124998 67.8690673828125 173.9616455078125 68.7673095703125
L 173.9616455078125 68.87958984375
M 184.51599121093747 73.9322021484375
Q 185.4142333984375 73.9322021484375 186.5370361328125 73.9322021484375
M 173.400244140625 70.7883544921875
Q 177.891455078125 73.37080078125 183.8423095703125 73.81992187499999
M 100.0812255859375 80.44445800781249
Q 103.33735351562501 80.6690185546875 107.0426025390625 80.8935791015625
M 112.09521484375 81.00585937499999
L 112.09521484375 63.3778564453125
M 107.4917236328125 63.3778564453125
L 107.4917236328125 80.8935791015625
M 125.6811279296875 80.8935791015625
L 125.6811279296875 63.3778564453125
M 141.063525390625 79.43393554687499
L 141.063525390625 64.612939453125
M 121.751318359375 63.3778564453125
L 121.751318359375 81.00585937499999
M 136.46003417968748 64.163818359375
L 136.46003417968748 80.1076171875
M 110.972412109375 111.88293457031249
Q 110.972412109375 112.219775390625 110.972412109375 112.55661621093749 110.63557128906251 116.48642578124999 111.75837402343751 119.29343261718749 112.768896484375 122.2127197265625 114.6776611328125 122.325 116.4741455078125 122.4372802734375 117.93378906250001 119.74255371093749 119.1688720703125 117.04782714843749 119.505712890625 113.2302978515625 119.61799316406251 112.55661621093749 119.505712890625 111.88293457031249
L 120.0671142578125 111.88293457031249 122.3127197265625 108.2899658203125 158.69152832031247 108.2899658203125
M 119.505712890625 111.88293457031249
L 110.972412109375 111.88293457031249 97.27421875 111.88293457031249
M 175.4212890625 57.539282226562506
Q 175.4212890625 62.2550537109375 174.41076660156247 67.08310546875
M 193.72297363281248 72.36027832031249
Q 197.7650634765625 71.79887695312499 200.9089111328125 70.1146728515625
M 203.26679687499998 82.0163818359375
Q 200.6843505859375 86.05847167968749 196.9791015625 89.42687988281249
L 164.86694335937497 89.42687988281249
M 203.940478515625 97.84790039062499
Q 203.491357421875 93.13212890625 196.9791015625 89.42687988281249
M 2.3973876953125 111.88293457031249
L 15.758740234375 111.88293457031249
M -8.156958007812499 89.42687988281249
L 39.2253173828125 89.42687988281249"/>
</g>

<g transform="matrix( -0.4453125, 0, 0, 0.4453125, 3.3,-3.25) ">
<path stroke="#010101" stroke-opacity="0" stroke-width="1" stroke-linejoin="round" stroke-linecap="round" fill="none" d="
M -128.409130859375 -67.20410156250001
Q -115.9460205078125 -71.919873046875 -104.0443115234375 -58.1093994140625 -96.1846923828125 -48.116455078125 -92.3671630859375 -26.6709228515625 -83.60930175781249 -23.751635742187503 -80.353173828125 -5.113110351562501
M -135.7073486328125 -66.1935791015625
Q -157.15288085937502 -61.59008789062499 -150.5283447265625 -20.270947265625004 -154.68271484375 -17.6885009765625 -156.25463867187503 -5.113110351562501"/>
</g>

<g transform="matrix( -0.4453125, 0, 0, 0.4453125, 3.3,-3.25) ">
<path stroke="#FFCC00" stroke-width="0.05" stroke-linejoin="round" stroke-linecap="round" fill="none" d="
M -172.64755859375 97.84790039062499
L -175.0054443359375 97.84790039062499"/>
</g>

<g transform="matrix( -0.4453125, 0, 0, 0.4453125, 3.3,-3.25) ">
<path stroke="#CCFF00" stroke-width="0.05" stroke-linejoin="round" stroke-linecap="round" fill="none" d="
M 203.940478515625 97.84790039062499
L 208.7685302734375 97.84790039062499"/>
</g>
</g>
</g>
</g>
</g>
</g>
</g>
</g>
</svg>
