
<svg xmlns="http://www.w3.org/2000/svg" version="1.1" xmlns:xlink="http://www.w3.org/1999/xlink" preserveAspectRatio="none" x="0px" y="0px" width="286px" height="81px" viewBox="0 0 286 81">
<defs/>

<g id="Layer_1">
<g transform="matrix( 1.455230712890625, 0, 0, 1.455230712890625, 143,-95.5) ">
<g id="Text">
<g transform="matrix( 1, 0, 0, 1, 18.25,93.45) ">
<g id="Layer_1">
<g transform="matrix( 1, 0, 0, 1, 0,0) ">
<g>
<g>
<path fill="#000000" stroke="none" d="
M -25.15 -10.8
L -25.15 -8.95 -9.9 -8.95 -9.9 -3.9 -16.15 -3.9
Q -18.5 -3.9 -20.3 -2.25 -22.1 -0.55 -22.1 1.95 -22.1 5.65 -19.05 8.45 -16.6359375 10.743359375 -13.5 11.2
L -20.6 18.9 -17.9 18.9 -11.85 12 -6.3 18.9 -3.65 18.9 -10.45 11.15
Q -8.391015625 10.829296875 -6.6 9.55 -5.2 8.5 -4.3 7
L -6.25 5.9 -7.45 7.45
Q -9.45 9.45 -12.3 9.45 -15.35 9.45 -17.55 7.15 -19.7 4.8 -19.7 2.15 -19.7 1.15 -19.4 0.65 -18.6 -1 -17.3 -1.6 -16.8 -1.8 -16.55 -1.9 -16.25 -1.95 -15.65 -1.95
L -7.6 -1.95 -7.6 -8.95 10.75 -8.95 10.75 2.3
Q 10.75 3.15 9.8 4.1 8.1 5.75 6.5 5.75 5.8 5.75 4.85 5.45 2.65 4.3 2.65 1.5 2.65 -0.35 3.7 -1.7 4.8 -3.05 6.7 -3.05
L 7.35 -3.05 8.05 -2.8 8.25 -2.6 8.7 -2.5 8.7 -4.45
Q 8.4 -4.65 7.5 -4.75
L 6.25 -4.85 5.05 -4.75
Q 3.25 -4.3 1.9 -3.1 0.1 -1.45 0.1 1.25 0.1 3.9 2.05 5.7 4.05 7.45 6.55 7.45 9.05 7.45 10.75 5.8
L 10.75 12.45 13.1 12.45 13.1 2.85
Q 13.1 2.1 13.45 1.15 13.95 0.05 14.4 -0.6 16 -2.6 17.85 -2.6 20 -2.6 20.8 -1 21.25 -0.1 21.25 1.2 21.25 2.1 20.75 3.35 19.75 5.65 17.85 7.55 17.45 7.95 17.15 8.05
L 19.05 9.55 21.4 6.85
Q 23.75 3.9 23.75 1.35 23.75 -1.15 22 -2.75 20.1 -4.45 17.6 -4.45 15.85 -4.45 14.4 -3.35
L 13.1 -2.15 13.1 -8.95 26.05 -8.95 26.05 -10.8 -25.15 -10.8 Z"/>
</g>
</g>
</g>
</g>
</g>
</g>
</g>
</g>
</svg>
