
<svg xmlns="http://www.w3.org/2000/svg" version="1.1" xmlns:xlink="http://www.w3.org/1999/xlink" preserveAspectRatio="none" x="0px" y="0px" width="286px" height="81px" viewBox="0 0 286 81">
<defs/>

<g id="Layer_1">
<g transform="matrix( 1.455230712890625, 0, 0, 1.455230712890625, 143,-95.5) ">
<g id="Text">
<g transform="matrix( 1, 0, 0, 1, 18.25,93.45) ">
<g id="Layer_1">
<g transform="matrix( 1, 0, 0, 1, 0,0) ">
<g>
<g>
<path fill="#000000" stroke="none" d="
M 19.1 -0.35
Q 17.3 -0.35 16.55 -1.45
L 14.7 -4.6 12.85 -3.25 17.4 4.2
Q 19.55 7.45 21.8 10 23.65 12.25 24.3 12.45
L 25.95 10.9 21.35 5.8 18.15 1.15
Q 18.3 1.3 18.95 1.4
L 19.8 1.4
Q 20.7 1.4 21.6 1.05 24.65 -0.15 24.65 -3.05
L 24.65 -8.95 28.25 -8.95 28.25 -10.8 -27.55 -10.8 -27.55 -8.95 -13.8 -8.95 -13.8 2.3
Q -13.8 3.15 -14.75 4.1 -16.45 5.75 -18.05 5.75 -18.75 5.75 -19.7 5.45 -21.9 4.3 -21.9 1.5 -21.9 -0.35 -20.85 -1.7 -19.75 -3.05 -17.85 -3.05
L -17.2 -3.05 -16.5 -2.8 -16.3 -2.6 -15.85 -2.5 -15.85 -4.45
Q -16.15 -4.65 -17.05 -4.75
L -18.3 -4.85 -19.5 -4.75
Q -21.3 -4.3 -22.65 -3.1 -24.45 -1.45 -24.45 1.25 -24.45 3.9 -22.5 5.7 -20.5 7.45 -18 7.45 -15.5 7.45 -13.8 5.8
L -13.8 12.45 -11.45 12.45 -11.45 2.85
Q -11.45 2.1 -11.1 1.15 -10.6 0.05 -10.15 -0.6 -8.55 -2.6 -6.7 -2.6 -4.55 -2.6 -3.75 -1 -3.3 -0.1 -3.3 1.2 -3.3 2.1 -3.8 3.35 -4.8 5.65 -6.7 7.55 -7.1 7.95 -7.4 8.05
L -5.5 9.55 -3.15 6.85
Q -0.8 3.9 -0.8 1.35 -0.8 -1.15 -2.55 -2.75 -4.45 -4.45 -6.95 -4.45 -8.7 -4.45 -10.15 -3.35
L -11.45 -2.15 -11.45 -8.95 5.1 -8.95 5.1 12.45 7.45 12.45 7.45 -8.95 22.25 -8.95 22.25 -3.25
Q 22 -1.65 21.3 -1 20.6 -0.35 19.1 -0.35 Z"/>
</g>
</g>
</g>
</g>
</g>
</g>
</g>
</g>
</svg>
