
<svg xmlns="http://www.w3.org/2000/svg" version="1.1" xmlns:xlink="http://www.w3.org/1999/xlink" preserveAspectRatio="none" x="0px" y="0px" width="286px" height="81px" viewBox="0 0 286 81">
<defs/>

<g id="Layer_1">
<g transform="matrix( 1.455230712890625, 0, 0, 1.455230712890625, 143,-95.5) ">
<g id="Text">
<g transform="matrix( 1, 0, 0, 1, 18.25,93.45) ">
<g id="Layer_1">
<g transform="matrix( 1, 0, 0, 1, 0,0) ">
<g>
<g>
<path fill="#000000" stroke="none" d="
M 4.75 -4.2
Q 4.1 -4.5 3.3 -4.5
L 2.1 -4.35 0.85 -3.75 -1.25 -2.15 -1.25 -8.95 16.9 -8.95 16.9 -3.9 10.65 -3.9
Q 8.3 -3.9 6.5 -2.25 4.7 -0.55 4.7 1.95 4.7 5.65 7.75 8.45 10.75 11.3 14.85 11.3 17.75 11.3 20.2 9.55 21.6 8.5 22.5 7
L 20.55 5.9 19.35 7.45
Q 17.35 9.45 14.5 9.45 11.45 9.45 9.25 7.15 7.1 4.8 7.1 2.15 7.1 1.15 7.4 0.65 8.2 -1 9.5 -1.6 10 -1.8 10.25 -1.9 10.55 -1.95 11.15 -1.95
L 19.2 -1.95 19.2 -8.95 35.05 -8.95 35.05 -3.25
Q 34.8 -1.65 34.1 -1 33.4 -0.35 31.9 -0.35 30.1 -0.35 29.35 -1.45
L 27.5 -4.6 25.65 -3.25 30.2 4.2
Q 32.35 7.45 34.6 10 36.45 12.25 37.1 12.45
L 38.75 10.9 34.15 5.8 30.95 1.15
Q 31.1 1.3 31.75 1.4
L 32.6 1.4
Q 33.5 1.4 34.4 1.05 37.45 -0.15 37.45 -3.05
L 37.45 -8.95 41.05 -8.95 41.05 -10.8 -22.05 -10.8 -31.25 -22.1 -32.85 -20.4 -23.55 -10.8 -39.4 -10.8 -39.4 -8.95 -24.15 -8.95 -24.15 -3.9 -30.4 -3.9
Q -32.75 -3.9 -34.55 -2.25 -36.35 -0.55 -36.35 1.95 -36.35 5.65 -33.3 8.45 -31.55625 10.106640625 -29.45 10.8
L -30.6 10.8 -38.05 18.9 -35.35 18.9 -29.3 12 -23.75 18.9 -21.1 18.9 -27.9 11.15
Q -27.05859375 11.3 -26.2 11.3 -23.3 11.3 -20.85 9.55 -19.45 8.5 -18.55 7
L -20.5 5.9 -21.7 7.45
Q -23.7 9.45 -26.55 9.45 -29.6 9.45 -31.8 7.15 -33.95 4.8 -33.95 2.15 -33.95 1.15 -33.65 0.65 -32.85 -1 -31.55 -1.6 -31.05 -1.8 -30.8 -1.9 -30.5 -1.95 -29.9 -1.95
L -21.85 -1.95 -21.85 -8.95 -3.6 -8.95 -3.6 2.3
Q -3.6 3.15 -4.55 4.1 -6.2 5.75 -7.8 5.75 -8.3 5.75 -8.6 5.65 -8.95 5.55 -9.35 5.4 -10.15 5 -10.65 4.35 -11.75 3.05 -11.75 1.15 -11.4 -0.8 -10.35 -1.9 -9.25 -2.95 -7.65 -2.95
L -6.65 -2.85 -5.6 -2.5 -5.6 -4.4 -6.75 -4.75 -7.95 -4.85 -9.15 -4.75
Q -11.05 -4.25 -12.35 -3 -14.25 -1.15 -14.25 1.25 -14.25 3.95 -12.35 5.7 -10.45 7.45 -7.75 7.45 -5.25 7.45 -3.6 5.8
L -3.6 12.45 -1.25 12.45 -1.25 2.85
Q -1.25 2.05 -0.95 1.25 0.1 -1.75 2.35 -2.3
L 3.55 -2.6 4.3 -2.65 4.7 -2.6 5 -2.6 4.75 -4.2 Z"/>
</g>
</g>
</g>
</g>
</g>
</g>
</g>
</g>
</svg>
