
<svg xmlns="http://www.w3.org/2000/svg" version="1.1" xmlns:xlink="http://www.w3.org/1999/xlink" preserveAspectRatio="none" x="0px" y="0px" width="286px" height="81px" viewBox="0 0 286 81">
<defs/>

<g id="Layer_1">
<g transform="matrix( 1.455230712890625, 0, 0, 1.455230712890625, 143,-95.5) ">
<g id="Text">
<g transform="matrix( 1, 0, 0, 1, 18.25,93.45) ">
<g id="Layer_1">
<g transform="matrix( 1, 0, 0, 1, 0,0) ">
<g>
<g>
<path fill="#000000" stroke="none" d="
M 6.9 -8.95
L 6.9 -1.1 6.6 -0.45
Q 6.4 -0.15 6 0
L 5 0.1
Q 3.15 0.1 2.35 -1.45
L 1 -4 -0.95 -2.75 1.95 2.2 7.45 10.15
Q 8.75 12.2 9.6 12.45
L 11.4 10.9 8.35 7.5 4.35 1.7
Q 4.7 1.9 4.95 1.9
L 5.45 1.95 5.9 1.85
Q 6.05 1.7 6.45 1.7
L 7.45 1.45
Q 8.65 0.9 8.95 -0.05
L 9.2 -1 9.2 -8.95 17.65 -8.95 17.65 -1.1 9.75 -1.1 11.35 0.75 17.65 0.75 17.65 12.45 20.05 12.45 20.05 -8.95 23.75 -8.95 23.75 -10.8 -23.25 -10.8 -23.25 -8.95 -8.85 -8.95 -8.85 2.15 -9.1 3.15 -16.6 -2 -15.9 -2.6 -15 -3 -14 -3.3
Q -13.75 -3.3 -13 -3.3
L -11.8 -3.15
Q -11.15 -2.95 -10.95 -2.65
L -11.25 -4.75 -11.65 -4.8 -11.85 -4.9 -13 -5.1 -14 -5.1
Q -14.6 -5.1 -15.2 -5 -15.8 -4.95 -16.4 -4.65 -17.6 -4.1 -18.5 -3.2 -20.35 -1.35 -20.35 1.25 -20.35 2.65 -19.95 3.85 -19.4 5 -18.3 5.95 -17.2 6.9 -16.1 7.3 -14.95 7.7 -13.65 7.7
L -12.35 7.6
Q -11.6 7.45 -11.05 7.2
L -9.9 6.6
Q -9.25 6.15 -8.85 5.6
L -8.85 12.45 -6.45 12.45 -6.45 -8.95 6.9 -8.95
M -17.75 -0.45
L -17.55 -0.9 -10.15 4.3 -10.7 4.8 -11.15 5.1
Q -11.55 5.45 -11.8 5.55 -12 5.65 -12.35 5.75
L -12.85 5.9 -13.6 5.9
Q -14.25 5.9 -15.3 5.6 -16.15 5.2 -16.8 4.55 -17.5 3.9 -17.8 3.1 -18.1 2.3 -18.1 1.25
L -18.1 0.65 -17.75 -0.45 Z"/>
</g>
</g>
</g>
</g>
</g>
</g>
</g>
</g>
</svg>
