
<svg xmlns="http://www.w3.org/2000/svg" version="1.1" xmlns:xlink="http://www.w3.org/1999/xlink" preserveAspectRatio="none" x="0px" y="0px" width="247px" height="69px" viewBox="0 0 247 69">
<defs>
<linearGradient id="Gradient_1" gradientUnits="userSpaceOnUse" x1="50.1" y1="20.05" x2="50.1" y2="-20.05" spreadMethod="pad">
<stop  offset="0%" stop-color="#2654BD"/>

<stop  offset="100%" stop-color="#507DE0"/>
</linearGradient>

<linearGradient id="Gradient_2" gradientUnits="userSpaceOnUse" x1="-595.925" y1="-34.45" x2="-595.875" y2="-0.05000000000000071" spreadMethod="pad">
<stop  offset="31.372549019607842%" stop-color="#FFFFFF" stop-opacity="0.09803921568627451"/>

<stop  offset="100%" stop-color="#FFFFFF" stop-opacity="0"/>
</linearGradient>

<filter id="Filter_1" x="-20%" y="-20.619486121875553%" width="140%" height="141.2389722437511%" color-interpolation-filters="sRGB">
<feGaussianBlur in="SourceGraphic" stdDeviation="1.3333333333333333,1.3333333333333333" result="result1"/>
</filter>
</defs>

<g id="Layer_1">
<g transform="matrix( 0.8573455810546875, 0, 0, 0.8573455810546875, 123.5,34.5) ">
<g id="Layer_1">
<g transform="matrix( 1, 0, 0, 1, 0,0) ">
<g id="Layer_1">
<g filter="url(#Filter_1)" transform="matrix( 1.1663818359375, 0, 0, 1.1663818359375, -144,-40.2) ">
<g transform="matrix( 0.8573455810546875, 0, 0, 0.8573455810546875, 123.5,34.5) ">
<g id="Layer_1">
<g transform="matrix( 1, 0, 0, 1, 0,0) ">
<g>
<g>
<path fill="#000000" fill-opacity="0.4980392156862745" stroke="none" d="
M -126.5 -35.8
Q -126.5314453125 -35.775 -126.6 -35.8 -129.0251953125 -35.475 -131.4 -35.2 -131.4724609375 -35.1646484375 -131.6 -35.15 -134.604296875 -34.567578125 -137.25 -33.25 -137.3208984375 -33.16640625 -137.45 -33.1 -139.9396484375 -31.5392578125 -140.6 -29.15
L -140.6 -29.15
Q -141.5626953125 -25.725 -140.65 -22.35 -140.3603515625 -21.1234375 -139.35 -19.7 -139.29765625 -19.666015625 -139.3 -19.65 -138.23125 -18.2056640625 -136.35 -17.4
L -136.3 -17.35
Q -135.08125 -16.73125 -132.95 -16.15 -132.88515625 -16.1140625 -132.85 -16.1 -130.8048828125 -15.5724609375 -128.55 -15.15 -128.5072265625 -15.150390625 -128.5 -15.15 -126.3546875 -14.80078125 -125 -14.55 -124.9322265625 -14.537890625 -124.9 -14.55 -122.562890625 -14.1748046875 -120.2 -13.9 -120.109375 -13.86171875 -120.05 -13.85 -118.3 -13.7001953125 -116.5 -13.55 -116.4447265625 -13.549609375 -116.4 -13.55 -114.5875 -13.460546875 -112.8 -13.3 -112.7212890625 -13.2625 -112.7 -13.25 -110.5884765625 -13.099609375 -108.4 -13
L -108.4 -13
Q -106.125 -12.9 -103.9 -12.8 -103.3830078125 -12.7791015625 -102.9 -12.75 -103.6736328125 -11.02734375 -104 -8.95 -104.13359375 -8.2904296875 -104.2 -7.5 -104.212109375 -7.2416015625 -104.2 -7 -103.7533203125 -2.4646484375 -101.65 0.55 -101.5841796875 0.598828125 -101.55 0.65 -100.5875 1.9408203125 -99.35 2.95 -100.6263671875 5.0513671875 -101.1 7.3
L -101.05 7.15
Q -101.2689453125 7.9662109375 -101.3 8.85 -101.4203125 10.294921875 -101.3 11.8 -101.2890625 11.855859375 -101.3 11.9 -100.590625 17.123046875 -96.9 20.2 -97.46015625 21.7427734375 -97.65 23.4
L -97.65 23.4
Q -97.9013671875 26.1228515625 -97.1 29.1
L -97.1 29.15
Q -95.6005859375 36.259765625 -84.2 37.1 -84.108203125 37.1009765625 -84.05 37.1 -76.8482421875 37.3546875 -68.2 37 -68.1310546875 37.001171875 -68.1 37 -62.036328125 36.51796875 -57.65 35.4
L -57.6 35.4
Q -48.1234375 32.966796875 -40.8 25.6 -40.0859375 24.925 -39.45 24.2
L -39.45 24.2
Q -30.0056640625 13.819140625 -30 -0.45
L -30 -0.5
Q -30 -1.05 -30 -1.55 -29.99921875 -1.593359375 -30 -1.65 -30.4400390625 -15.2107421875 -39.45 -25.15
L -39.4 -25.05
Q -40.046875 -25.8408203125 -40.8 -26.6 -47.698046875 -33.4337890625 -56.45 -35.95 -56.5322265625 -35.9537109375 -56.65 -36 -62.6029296875 -37.2384765625 -69 -37.35
L -90.05 -37.3
Q -90.0796875 -37.3005859375 -90.15 -37.3 -92.13671875 -37.2505859375 -94.05 -37.25 -96.3267578125 -37.2517578125 -98.5 -37.15 -100.5111328125 -37.148828125 -102.5 -37.1 -104.3625 -37.0505859375 -106.25 -36.95 -108.8869140625 -36.849609375 -111.4 -36.75 -111.4212890625 -36.75078125 -111.5 -36.75 -114.023828125 -36.551171875 -116.5 -36.45
L -116.55 -36.45
Q -119.0494140625 -36.3001953125 -121.45 -36.2
L -121.5 -36.2
Q -123.9875 -36.0388671875 -126.5 -35.8
M 141.15 -6.2
Q 141.1548828125 -19.1466796875 131.95 -28.3 122.8466796875 -37.4548828125 109.9 -37.45
L -37.95 -37.5
Q -39.1890625 -37.5044921875 -40.1 -36.65 -40.95390625 -35.744921875 -40.95 -34.5
L -40.95 -31.45
Q -40.950390625 -30.7119140625 -40.6 -30.05 -40.2447265625 -29.393359375 -39.65 -29 -30.123046875 -22.5134765625 -26.9 -11.1
L -26.9 -11.05
Q -25.5396484375 -6.5087890625 -25.2 -1.1 -25.2037109375 -1.036328125 -25.2 -1 -25.4796875 4.8912109375 -27.1 10
L -27.05 10
Q -30.4251953125 20.6162109375 -39.75 27.35 -40.3021484375 27.8060546875 -40.65 28.45 -40.9509765625 29.0912109375 -40.95 29.8
L -40.95 34.4
Q -40.9517578125 35.6380859375 -40.1 36.5 -39.19375 37.401171875 -37.95 37.4
L 109.9 37.5
Q 122.8466796875 37.5048828125 131.95 28.3 141.1548828125 19.1966796875 141.15 6.25
L 141.15 -6.2 Z"/>
</g>
</g>
</g>
</g>
</g>
</g>
</g>

<g id="Layer_2">
<g transform="matrix( 1, 0, 0, 1, 0,0) ">
<g>
<g>
<path fill="url(#Gradient_1)" stroke="none" d="
M -126.2 -32.8
Q -128.65 -32.5 -131 -32.2 -133.6 -31.7 -135.85 -30.55 -137.3 -29.65 -137.7 -28.3 -138.45 -25.7 -137.75 -23.1 -137.55 -22.35 -136.9 -21.45 -136.25 -20.6 -135.1 -20.1 -134.05 -19.55 -132.1 -19 -130.15 -18.5 -128 -18.1 -125.85 -17.75 -124.45 -17.5 -122.15 -17.15 -119.8 -16.85 -118.05 -16.7 -116.25 -16.55 -114.35 -16.45 -112.45 -16.25 -110.4 -16.1 -108.25 -16 -106 -15.9 -103.75 -15.8 -101.4 -15.7 -99 -15.6 -97.8 -15.6 -96.55 -15.6 -100.35 -13.15 -101.05 -8.35 -101.15 -7.85 -101.2 -7.25 -100.85 -3.6 -99.15 -1.15 -97.95 0.45 -96.15 1.55 -95.5 1.9 -94.85 2.2 -97.5 4.85 -98.15 7.95 -98.3 8.5 -98.3 9.1 -98.4 10.3 -98.3 11.55 -97.7 16.25 -93.9 18.7 -93.5 18.9 -93.05 19.15 -94.4 21.25 -94.65 23.7 -94.85 25.9 -94.2 28.35 -92.8 33.45 -83.95 34.1 -76.85 34.35 -68.3 34 -62.55 33.55 -58.35 32.5 -49.65 30.25 -42.9 23.5 -42.25 22.85 -41.65 22.2 -33 12.65 -33 -0.45
L -33 -0.5
Q -33 -1.05 -33 -1.55 -33.4 -14 -41.65 -23.1 -42.25 -23.8 -42.9 -24.45 -49.25 -30.75 -57.25 -33.05 -62.95 -34.25 -69.05 -34.35
L -90.05 -34.3
Q -92.1 -34.25 -94.05 -34.25 -96.25 -34.25 -98.35 -34.15 -100.4 -34.15 -102.4 -34.1 -104.25 -34.05 -106.1 -33.95 -108.75 -33.85 -111.25 -33.75 -113.85 -33.55 -116.35 -33.45 -118.9 -33.3 -121.3 -33.2 -123.75 -33.05 -126.2 -32.8 Z"/>
</g>
</g>

<g>
<path stroke="#FFFFFF" stroke-width="2" stroke-linejoin="round" stroke-linecap="round" fill="none" d="
M -94.05 -34.25
Q -96.25 -34.25 -98.35 -34.15 -100.4 -34.15 -102.4 -34.1 -104.25 -34.05 -106.1 -33.95 -108.75 -33.85 -111.25 -33.75 -113.85 -33.55 -116.35 -33.45 -118.9 -33.3 -121.3 -33.2 -123.75 -33.05 -126.2 -32.8 -128.65 -32.5 -131 -32.2 -133.6 -31.7 -135.85 -30.55 -137.3 -29.65 -137.7 -28.3 -138.45 -25.7 -137.75 -23.1 -137.55 -22.35 -136.9 -21.45 -136.25 -20.6 -135.1 -20.1 -134.05 -19.55 -132.1 -19 -130.15 -18.5 -128 -18.1 -125.85 -17.75 -124.45 -17.5 -122.15 -17.15 -119.8 -16.85 -118.05 -16.7 -116.25 -16.55 -114.35 -16.45 -112.45 -16.25 -110.4 -16.1 -108.25 -16 -106 -15.9 -103.75 -15.8 -101.4 -15.7 -99 -15.6 -97.8 -15.6 -96.55 -15.6 -100.35 -13.15 -101.05 -8.35 -101.15 -7.85 -101.2 -7.25 -100.85 -3.6 -99.15 -1.15 -97.95 0.45 -96.15 1.55 -95.5 1.9 -94.85 2.2 -97.5 4.85 -98.15 7.95 -98.3 8.5 -98.3 9.1 -98.4 10.3 -98.3 11.55 -97.7 16.25 -93.9 18.7 -93.5 18.9 -93.05 19.15 -94.4 21.25 -94.65 23.7 -94.85 25.9 -94.2 28.35 -92.8 33.45 -83.95 34.1 -76.85 34.35 -68.3 34 -62.55 33.55 -58.35 32.5 -49.65 30.25 -42.9 23.5 -42.25 22.85 -41.65 22.2 -33 12.65 -33 -0.45
L -33 -0.5
Q -33 -1.05 -33 -1.55 -33.4 -14 -41.65 -23.1 -42.25 -23.8 -42.9 -24.45 -49.25 -30.75 -57.25 -33.05 -62.95 -34.25 -69.05 -34.35
L -90.05 -34.3
Q -92.1 -34.25 -94.05 -34.25 Z"/>
</g>
</g>

<g transform="matrix( 1, 0, 0, 1, 0,0) ">
<g>
<g>
<path fill="url(#Gradient_1)" stroke="none" d="
M 138.15 -6.2
Q 138.15 -17.9 129.85 -26.15 121.6 -34.45 109.9 -34.45
L -37.95 -34.5 -37.95 -31.45
Q -27.55 -24.4 -24 -11.9 -22.55 -7 -22.2 -1.15 -22.45 5.3 -24.2 10.9 -27.85 22.45 -37.95 29.8
L -37.95 34.4 109.9 34.5
Q 121.6 34.5 129.85 26.2 138.15 17.95 138.15 6.25
L 138.15 -6.2 Z"/>
</g>
</g>

<g>
<path stroke="#FFFFFF" stroke-width="2" stroke-linejoin="round" stroke-linecap="round" fill="none" d="
M 109.9 -34.45
L -37.95 -34.5 -37.95 -31.45
Q -27.55 -24.4 -24 -11.9 -22.55 -7 -22.2 -1.15 -22.45 5.3 -24.2 10.9 -27.85 22.45 -37.95 29.8
L -37.95 34.4 109.9 34.5
Q 121.6 34.5 129.85 26.2 138.15 17.95 138.15 6.25
L 138.15 -6.2
Q 138.15 -17.9 129.85 -26.15 121.6 -34.45 109.9 -34.45 Z"/>
</g>
</g>
</g>

<g id="Layer_3">
<g transform="matrix( 1, 0, 0, 1, 0,0) ">
<g>
<g>
<path fill="url(#Gradient_2)" stroke="none" d="
M 119.2 -32.95
Q 117.8041015625 -33.2 116.3 -33.2
L -36 -33.2
Q -36.996875 -33.2 -37.95 -33.1
L -37.95 -31.45
Q -27.55 -24.4 -24 -11.9 -22.55 -7 -22.2 -1.15 -22.25 0.1421875 -22.35 1.4
L 116.3 1.4
Q 123.15 1.4 127.95 -3.65 132.8 -8.7 132.8 -15.9 132.8 -22.3091796875 128.95 -27.05 128.4826171875 -27.5953125 127.95 -28.15 124.2041015625 -32.091015625 119.2 -32.95 Z"/>
</g>
</g>
</g>
</g>
</g>
</g>

<g id="text">
<g transform="matrix( 1.322906494140625, 0, 0, 1.322906494140625, 53.85,-0.15) ">
<g id="Layer_1">
<g transform="matrix( 1, 0, 0, 1, 0,0.5) ">
<g>
<g>
<path fill="#FFFFFF" stroke="none" d="
M -41.45 -8.7
L -41.05 -8.15 -50.1 -8.15 -50.1 -6.75 -47.45 -6.75 -47.45 -0.45
Q -47.45 0.35 -47.1 1.35 -45.7 4.25 -42.7 4.25 -41.35 4.25 -40.15 3.45
L -39.7 3.15 -39.1 2.6 -39.1 9.4 -37.25 9.4 -37.25 -6.75 -31.95 -6.75 -31.95 9.4 -30.2 9.4 -30.2 -6.75 -24.15 -6.75
Q -24.45 -6.55 -24.65 -6.2
L -25.15 -5.55 -25.45 -4.7
Q -25.45 -4.5 -25.45 -3.8 -25.45 -2.25 -23.9 -1.05
L -23.6 -0.85 -22.85 -0.45 -22.3 -0.25
Q -24.15 1.25 -24.15 3.5 -24.15 5.75 -22.7 7.05 -21.25 8.4 -18.95 8.4 -17.2 8.4 -15.45 7.75 -11.55 6.3 -10 3.15 -9.55 2.3 -9.4 1.5 -9.2 0.75 -9.2 -0.25 -9.2 -2.15 -10.55 -3.15
L -11.95 -3.85 -11.95 -6.75 -7.65 -6.75 -7.65 -8.15 -10.6 -8.15 -17.6 -16.75 -18.8 -15.45 -11.75 -8.15 -30.55 -8.15 -32.75 -11.8
Q -33.85 -13.45 -35.45 -14.55 -36.8 -15.5 -37.95 -15.5 -40.75 -15.5 -41.75 -12.6 -42 -11.9 -42.05 -11.65 -42.05 -11.4 -42.05 -10.9
L -42.05 -10.15 -41.8 -9.4 -41.45 -8.7
M -45.7 -0.25
L -45.7 -6.75 -39.1 -6.75 -39.1 0.6 -40.05 1.75 -40.7 2.3
Q -41.75 2.95 -42.8 2.95
L -43.8 2.75
Q -45.7 1.7 -45.7 -0.25
M -39.65 -13.3
Q -39 -14.15 -37.9 -14.15 -36.7 -14.15 -35.05 -12.25 -32.3 -9.1 -32.3 -8.25
L -32.35 -8.15 -39.05 -8.15 -39.25 -8.45 -39.7 -9.35
Q -39.8 -9.55 -39.9 -9.8 -40 -10.05 -40.1 -10.4 -40.2 -10.8 -40.2 -11.2
L -40.2 -11.85
Q -39.95 -12.8 -39.65 -13.3
M -21.15 -1.3
Q -21.9 -1.4 -22.6 -1.9 -23.75 -2.9 -23.75 -3.95
L -23.6 -4.6 -23.2 -5.45
Q -22.5 -6.75 -21.9 -6.75
L -13.7 -6.75 -13.7 -3.75 -14.95 -3.05
Q -16.2 -1.95 -16.2 -0.25
L -16.05 1.15 -15.5 2.65 -14.75 4.05 -13.9 5.05 -15.35 6.1
Q -16.9 7.1 -18.75 7.1 -20.1 7.1 -21.35 6.05 -22.45 4.85 -22.45 3.4 -22.45 1.95 -21.35 0.95 -20.25 -0.1 -18.8 -0.1
L -18.45 -0.1 -18.3 -0.05 -18.2 -0.1 -18.85 -1.4 -19.05 -1.3 -21.15 -1.3
M -12.75 -2.5
Q -11.15 -2.5 -11 -1.05
L -10.9 -0.25
Q -10.9 0.3 -10.95 0.65 -11 1.05 -11.1 1.4 -11.7 2.9 -12.1 3.35
L -12.5 3.9 -12.7 4.05 -13.3 3.45 -13.65 2.9
Q -14.1 2.15 -14.3 1.55 -14.5 0.95 -14.55 0.7 -14.6 0.4 -14.6 -0.15
L -14.5 -1 -14.15 -1.75
Q -13.55 -2.5 -12.75 -2.5
M 42.4 -16.25
L 42.4 -14.4 44.4 -14.4 44.4 -16.25 42.4 -16.25
M 38 -15.05
Q 38.4 -12.8 39.7 -11.55 41.05 -10.25 43.45 -10.25 44.55 -10.25 45.65 -10.55 46.6 -10.95 47.25 -11.65 48.85 -13.15 48.85 -15.1
L 47.1 -15.05
Q 47.1 -14.25 46.85 -13.5 45.8 -11.55 43.45 -11.55 41.85 -11.55 40.8 -12.5 39.75 -13.5 39.75 -15.1
L 38 -15.05
M 5.3 -8.15
L 5.3 -6.75 22.65 -6.75 22.65 -2.45 14.5 -2.4
Q 14.8 -2.2 15.05 -1.85
L 15.9 -0.55
Q 16.5 0.2 16.9 1.45 17.2 2.45 17.2 3.25 17.2 4.35 16.65 5.1 16.1 5.85 15.05 5.85 13.25 5.85 11.55 3.5 10.2 1.55 9.45 -0.75
L 8.85 -2.65 8.75 -3.1 8.75 -3.35 7.3 -2.25 7.45 -1.5 8.1 0.25
Q 9.15 3.05 10.55 4.8 12.65 7.2 14.9 7.2 15.9 7.2 16.65 6.9 18.15 6.25 18.65 4.8 18.9 4.15 18.9 3.8 18.9 3.5 18.9 3.15
L 18.8 2.25 17.85 -0.45
Q 17.6 -1 17.4 -1.1
L 22.65 -1.1 22.65 9.4 24.45 9.4 24.45 -6.75 30 -6.75 30 9.4 31.8 9.4 31.8 -6.75 37.1 -6.75 37.1 2 45 9.45 45.2 9.55 45.3 9.65
Q 45.75 10.1 45.75 10.6
L 45.65 10.9 45.65 11.1 45.3 11.35 45 11.5 44.4 11.5 44.2 11.6 43.65 11.5 43.4 11.5 44.95 12.95 46.25 12.65
Q 47.55 11.9 47.55 10.75
L 47.45 10 47.2 9.4 38.95 1.6 38.95 -6.75 45.4 -6.75 45.4 -0.75 45.2 0 44.8 0.75
Q 44.2 1.35 43.5 1.35
L 44.8 2.4 45.7 2
Q 46.2 1.75 46.5 1.35 47.2 0.65 47.2 -0.35
L 47.2 -6.75 49.5 -6.75 49.5 -8.15 5.3 -8.15 Z"/>
</g>
</g>
</g>
</g>
</g>
</g>
</g>
</g>
</svg>
