
<svg xmlns="http://www.w3.org/2000/svg" version="1.1" xmlns:xlink="http://www.w3.org/1999/xlink" preserveAspectRatio="none" x="0px" y="0px" width="192px" height="69px" viewBox="0 0 192 69">
<defs>
<linearGradient id="Gradient_1" gradientUnits="userSpaceOnUse" x1="669.8" y1="944.6875" x2="669.8" y2="897.7125000000001" spreadMethod="pad">
<stop  offset="0%" stop-color="#2654BD"/>

<stop  offset="100%" stop-color="#507DE0"/>
</linearGradient>

<linearGradient id="Gradient_2" gradientUnits="userSpaceOnUse" x1="8.3125" y1="887.05" x2="8.3875" y2="921.45" spreadMethod="pad">
<stop  offset="31.372549019607842%" stop-color="#FFFFFF" stop-opacity="0.09803921568627451"/>

<stop  offset="100%" stop-color="#FFFFFF" stop-opacity="0"/>
</linearGradient>

<filter id="Filter_1" x="-20%" y="-20.748659036221326%" width="140%" height="141.49731807244265%" color-interpolation-filters="sRGB">
<feGaussianBlur in="SourceGraphic" stdDeviation="1.3333333333333333,1.3333333333333333" result="result1"/>
</filter>
</defs>

<g id="Layer_1">
<g transform="matrix( 0.857330322265625, 0, 0, 0.857330322265625, 96,34.5) ">
<g id="Layer_1">
<g filter="url(#Filter_1)" transform="matrix( 1.1663970947265625, 0, 0, 1.1663970947265625, -111.95,-40.2) ">
<g transform="matrix( 0.857330322265625, 0, 0, 0.857330322265625, 96,34.5) ">
<g id="Layer_1">
<g transform="matrix( 1, 0, 0, 1, 0,0) ">
<g>
<g>
<path fill="#000000" fill-opacity="0.4980392156862745" stroke="none" d="
M 110.85 -5.85
Q 110.8548828125 -18.7966796875 101.65 -27.95 92.545703125 -37.0505859375 79.6 -37.05
L -79.6 -37.05
Q -92.4904296875 -37.0505859375 -101.7 -27.95 -110.8005859375 -18.7958984375 -110.8 -5.85
L -110.8 5.85
Q -110.8005859375 18.7404296875 -101.7 27.9 -92.4904296875 37.0505859375 -79.6 37.05
L 79.6 37.05
Q 92.545703125 37.050390625 101.65 27.9 110.8548828125 18.7412109375 110.85 5.85
L 110.85 -5.85 Z"/>
</g>
</g>
</g>
</g>
</g>
</g>
</g>

<g id="Layer_3">
<g transform="matrix( 1, 0, 0, 1, -671.6,-918.95) ">
<g>
<g>
<path fill="url(#Gradient_1)" stroke="none" d="
M 563.8 913.1
L 563.8 924.8
Q 563.8 936.45 572.05 944.75 580.35 953 592 953
L 751.2 953
Q 762.9 953 771.15 944.75 779.45 936.45 779.45 924.8
L 779.45 913.1
Q 779.45 901.4 771.15 893.15 762.9 884.9 751.2 884.9
L 592 884.9
Q 580.35 884.9 572.05 893.15 563.8 901.4 563.8 913.1 Z"/>
</g>
</g>

<g>
<path stroke="#FFFFFF" stroke-width="2" stroke-linejoin="round" stroke-linecap="round" fill="none" d="
M 592 884.9
L 751.2 884.9
Q 762.9 884.9 771.15 893.15 779.45 901.4 779.45 913.1
L 779.45 924.8
Q 779.45 936.45 771.15 944.75 762.9 953 751.2 953
L 592 953
Q 580.35 953 572.05 944.75 563.8 936.45 563.8 924.8
L 563.8 913.1
Q 563.8 901.4 572.05 893.15 580.35 884.9 592 884.9 Z"/>
</g>
</g>
</g>

<g id="Layer_4">
<g transform="matrix( 1, 0, 0, 1, -676.2,-921.1) ">
<g>
<g>
<path fill="url(#Gradient_2)" stroke="none" d="
M 583.55 917.85
Q 588.6 922.9 595.8 922.9
L 755.6 922.9
Q 762.8 922.9 767.85 917.85 772.9 912.8 772.9 905.6 772.9 898.4 767.85 893.35 762.8 888.3 755.6 888.3
L 595.8 888.3
Q 588.6 888.3 583.55 893.35 578.5 898.4 578.5 905.6 578.5 912.8 583.55 917.85 Z"/>
</g>
</g>
</g>
</g>
</g>

<g transform="matrix( 1.1429901123046875, 0, 0, 1.1429901123046875, 93.45,35.05) ">
<g id="Layer_1">
<g transform="matrix( 1, 0, 0, 1, 0,0.5) ">
<g>
<g>
<path fill="#FFFFFF" stroke="none" d="
M -67.1 -8.15
L -67.1 -6.75 -54.85 -6.75 -54.3 -6.2 -53.95 -5.75
Q -53.05 -4.55 -53.05 -3.6 -53.05 -2.25 -53.85 -1.65 -54.05 -1.5 -54.5 -1.4
L -55.5 -1.3 -59.2 -1.3 -58.55 0.2 -55.45 0.2
Q -54.75 0.2 -54.1 0.5 -53.1 1 -52.65 1.95 -52.2 2.85 -52.2 4.05 -52.2 5.4 -52.75 6.3 -53.2 6.85 -53.75 7.15 -54.3 7.4 -55.3 7.4 -55.85 7.4 -56.35 7.25 -58.65 6.45 -60.9 2.45
L -61.45 1.4 -63.35 -3.2 -64.85 -2.25 -64.65 -1.35 -63.75 0.7
Q -62.3 3.85 -60.4 6 -57.9 8.8 -55.3 8.8 -51.9 8.8 -50.7 6.05 -50.35 5.2 -50.35 4.25 -50.35 2.7 -51.05 1.5 -51.8 0.35 -52.55 0
L -53.2 -0.35
Q -51.4 -1.5 -51.4 -3.45
L -51.55 -4.6
Q -51.8 -5.35 -52.1 -5.8
L -52.8 -6.75 -33.5 -6.75 -33.5 -3.1 -47.65 -3.1 -47.65 -1.75 -42.85 -1.75 -43.7 -0.9 -44 -0.4
Q -44.45 0.3 -44.45 1.25 -44.45 3.55 -41.95 6.55
L -39.5 9.25 -38.45 7.95 -40.6 5.7
Q -42.75 3.15 -42.75 1.25 -42.75 -0.1 -41.75 -0.95 -40.7 -1.75 -39.6 -1.75
L -33.5 -1.75 -33.5 9.4 -31.7 9.4 -31.7 -6.75 -20.5 -6.75 -20.5 -2.5
Q -20.7 -1.25 -21.2 -0.75 -21.75 -0.25 -22.85 -0.25 -24.25 -0.25 -24.8 -1.1
L -26.2 -3.5 -27.6 -2.5 -24.15 3.15
Q -22.55 5.65 -20.85 7.55 -19.45 9.25 -18.95 9.4
L -17.7 8.25 -21.15 4.35 -23.6 0.85
Q -23.5 0.95 -23 1.05
L -22.35 1.05
Q -21.65 1.05 -21 0.8 -18.7 -0.1 -18.7 -2.35
L -18.7 -6.75 -15.95 -6.75 -15.95 -8.15 -67.1 -8.15
M 59.1 -16.25
L 59.1 -14.4 61.1 -14.4 61.1 -16.25 59.1 -16.25
M 60.15 -11.55
Q 58.55 -11.55 57.5 -12.5 56.45 -13.5 56.45 -15.1
L 54.7 -15.05
Q 55.1 -12.8 56.4 -11.55 57.75 -10.25 60.15 -10.25 61.25 -10.25 62.35 -10.55 63.3 -10.95 63.95 -11.65 65.55 -13.15 65.55 -15.1
L 63.8 -15.05
Q 63.8 -14.25 63.55 -13.5 62.5 -11.55 60.15 -11.55
M 33.75 -0.55
Q 33.75 -1.2 33.95 -1.6 34.45 -2.7 35.35 -2.8 35.7 -2.95 36.4 -2.95
L 37.25 -2.85 38 -2.65 37.6 -3.9 36.8 -4.15 36.05 -4.25 35.3 -4.25
Q 33.9 -3.95 32.95 -2.9 32.05 -1.85 32.05 -0.5 32.05 0.25 32.3 1 33.55 3.2 35.95 3.2
L 36.5 3.2 37.15 3.05 38.4 2.5 38.85 2.25 39.4 1.8 39.4 -0.2
Q 39.1 0.3 38.85 0.6 37.9 1.5 37 1.6 36.6 1.75 36 1.75
L 35.1 1.6
Q 33.75 1.1 33.75 -0.55
M 4.2 -15.8
Q 3.1 -15.8 2.05 -15.45 0.6 -14.85 -0.3 -13.55 -0.8 -12.9 -0.95 -12.3 -1.1 -11.7 -1.1 -10.75
L -1.1 -10.2 -0.55 -8.15 -3.65 -8.15 -3.65 -6.75 -0.65 -6.75 -0.65 9.4 1.15 9.4 1.15 -6.75 15.15 -6.75 15.15 -3.6 10.1 -3.6
Q 8.65 -3.6 7.65 -2.35 6.7 -1.1 6.7 0.45 6.7 2.3 7.4 3.5 8.15 4.75 9.85 5.55 11.55 6.35 14.2 6.35
L 14.45 6.35 14.7 6.3 16.6 10.1 18.85 10.1 17.75 8.65 16.35 5.8 17.1 5.3
Q 17.65 4.65 17.65 3.6
L 17.55 2.9
Q 17.2 2.1 16.6 1.85 16.3 1.7 16 1.7 15 1.7 14.55 2.35
L 14.2 3.05
Q 14.2 3.2 14.2 3.8
L 14.2 4.15
Q 14.2 4.3 14.2 4.65
L 14.2 4.85 14.35 5.05 12.55 4.9 11.35 4.65
Q 8.4 3.5 8.4 0.45
L 8.55 -0.5 9.1 -1.35
Q 10 -2.15 10.8 -2.15
L 17.1 -2.15 17.1 -6.75 27.45 -6.75 27.45 -2 27.35 -1.35
Q 27.15 -0.75 26.5 -0.55
L 25.85 -0.45 25.2 -0.45 24.65 -0.7 24.2 -1.05 23.65 -3.05 22.1 -2.2 23.65 1.9
Q 24.35 3.5 25.6 5.1 27.45 7.35 29.9 8.05 30.85 8.3 32.35 8.3
L 34.15 8.15 36.05 7.6 37.9 6.8 39.4 5.85 39.4 4.05
Q 38.95 4.55 38.05 5.1
L 36.05 6.15
Q 35.05 6.6 34.25 6.75 33.45 6.9 32.5 6.9 30.75 6.9 29.15 6.1 27.55 5.3 26.6 3.85
L 25.8 2.6 24.95 0.8 26.55 0.7 27.75 0.35
Q 29.15 -0.35 29.15 -1.9
L 29.15 -6.75 39.45 -6.75 39.45 9.4 41.25 9.4 41.25 -6.75 46.75 -6.75 46.75 9.4 48.55 9.4 48.55 -6.75 53.8 -6.75 53.8 2 61.7 9.45 61.9 9.55 62 9.65
Q 62.45 10.1 62.45 10.6
L 62.35 10.9 62.35 11.1 62 11.35 61.7 11.5 61.1 11.5 60.9 11.6 60.35 11.5 60.1 11.5 61.65 12.95 62.95 12.65
Q 64.25 11.9 64.25 10.75
L 64.15 10 63.9 9.4 55.65 1.6 55.65 -6.75 62.1 -6.75 62.1 -0.75 61.9 0 61.5 0.75
Q 60.9 1.35 60.2 1.35
L 61.5 2.4 62.4 2
Q 62.9 1.75 63.2 1.35 63.9 0.65 63.9 -0.35
L 63.9 -6.75 66.2 -6.75 66.2 -8.15 16.85 -8.15 12.4 -12.2
Q 11.35 -13.05 10 -13.85 6.8 -15.8 4.2 -15.8
M 6.4 -13.9
Q 7.8 -13.45 8.85 -12.75
L 11.65 -10.8
Q 12.25 -10.35 12.9 -9.75
L 14.55 -8.15 1.15 -8.15 1 -8.4 0.75 -9.05 0.55 -9.85 0.55 -10.5
Q 0.55 -11.25 0.75 -12.1 1.5 -13.7 2.7 -14.1 3.25 -14.35 4.1 -14.35 5.05 -14.35 6.4 -13.9 Z"/>
</g>
</g>
</g>
</g>
</g>
</g>
</svg>
