
<svg xmlns="http://www.w3.org/2000/svg" version="1.1" xmlns:xlink="http://www.w3.org/1999/xlink" preserveAspectRatio="none" x="0px" y="0px" width="152px" height="82px" viewBox="0 0 152 82">
<defs>
<linearGradient id="Gradient_1" gradientUnits="userSpaceOnUse" x1="-8.75" y1="41.475" x2="-8.75" y2="-41.37500000000001" spreadMethod="pad">
<stop  offset="0%" stop-color="#214566"/>

<stop  offset="100%" stop-color="#43719F"/>
</linearGradient>

<linearGradient id="Gradient_2" gradientUnits="userSpaceOnUse" x1="0" y1="41.400000000000006" x2="0" y2="-41.400000000000006" spreadMethod="pad">
<stop  offset="0.7843137254901961%" stop-color="#133556"/>

<stop  offset="100%" stop-color="#2A8EF0"/>
</linearGradient>

<linearGradient id="Gradient_3" gradientUnits="userSpaceOnUse" x1="0" y1="41.475" x2="0" y2="-41.37500000000001" spreadMethod="pad">
<stop  offset="0%" stop-color="#214F7C"/>

<stop  offset="100%" stop-color="#1F76CB"/>
</linearGradient>

<filter id="Filter_1" x="-20%" y="-20%" width="140%" height="140%" color-interpolation-filters="sRGB">
<feFlood flood-color="#000000" flood-opacity="1" in="SourceGraphic" result="result1"/>

<feComposite in2="SourceGraphic" in="result1" operator="in" result="result2"/>

<feGaussianBlur in="result2" stdDeviation="1.3333333333333333,1.3333333333333333" result="result3"/>

<feOffset dx="1.4142135623730951" dy="1.4142135623730951" in="result3" result="result4"/>

<feComposite in2="result4" in="SourceGraphic" operator="over" result="result5"/>
</filter>

<g id="Duplicate_Items_Folder_Symbol_20_copy_2_0_Layer0_0_FILL">
<path fill="url(#Gradient_1)" stroke="none" d="
M 46.2 -23.4
Q 46.2 -41.4 28.2 -41.4
L -45.7 -41.4
Q -63.7 -41.4 -63.7 -23.4
L -63.7 23.45
Q -63.7 41.45 -45.7 41.45
L 28.2 41.45
Q 46.2 41.45 46.2 23.45
L 46.2 -23.4 Z"/>
</g>

<g id="Duplicate_Items_Folder_Symbol_20_copy_2_0_Layer0_1_FILL">
<path fill="url(#Gradient_2)" stroke="none" d="
M 16.2 -41.4
L 2.4 -41.4 -14.65 -41.4 -17.8 -41.4 -47.75 -41.4 -58.4 -41.4
Q -76.4 -41.4 -76.4 -23.4
L -76.4 23.45
Q -76.4 41.45 -58.4 41.45
L -23.4 41.45 -17.8 41.45 -14.65 41.45 2.4 41.45 16.2 41.45 58.4 41.45
Q 76.4 41.45 76.4 23.45
L 76.4 -23.4
Q 76.4 -41.4 58.4 -41.4
L 16.2 -41.4 Z"/>
</g>

<g id="Duplicate_Items_Folder_Symbol_20_copy_2_0_Layer0_2_FILL">
<path fill="url(#Gradient_3)" stroke="none" d="
M 72.4 -23.4
Q 72.3998046875 -37.4 58.4 -37.4
L -58.4 -37.4
Q -72.4 -37.3998046875 -72.4 -23.4
L -72.4 23.45
Q -72.3998046875 37.45 -58.4 37.45
L 58.4 37.45
Q 72.4 37.4498046875 72.4 23.45
L 72.4 -23.4 Z"/>
</g>

<g id="Duplicate_Items_Folder_Symbol_12_copy_0_Layer0_0_FILL">
<path fill="#DBDBDB" stroke="none" d="
M 0.35 46.45
Q 3.15 46.45 5.15 44.45 7.15 42.45 7.15 39.65
L 7.15 39.3 4.15 39.3 4.15 39.45 -3.5 39.45 -3.5 39.3 -6.5 39.3 -6.5 39.65
Q -6.5 42.45 -4.5 44.45
L -4.5 44.5
Q -2.45 46.45 0.35 46.45 Z"/>
</g>

<g id="Duplicate_Items_Folder_Symbol_12_copy_0_Layer0_1_FILL">
<path fill="#DBDBDB" stroke="none" d="
M -49.1 24.65
L -56.4 38.6 56.45 38.6 48.3 24.65 -49.1 24.65 Z"/>

<path fill="#EEEEEE" stroke="none" d="
M 56.45 -38.95
L 48.45 -52.65 -0.7 -3.6 -49.05 -52.85 -56.4 -39.15 -56.4 38.6 -49.1 24.65 48.3 24.65 56.45 38.6 56.45 -38.95 Z"/>
</g>

<g id="Duplicate_Items_Folder_Symbol_12_copy_0_Layer0_2_FILL">
<path fill="#F7F7F7" stroke="none" d="
M 0.45 31.1
L 0.45 -37
Q -21.3302734375 -48.647265625 -49.05 -52.85
L -49.1 24.65
Q -24.55 25.6 0.45 31.1 Z"/>

<path fill="#FFFFFF" stroke="none" d="
M 48.3 -52.7
Q 22.456640625 -49.4599609375 0.45 -37
L 0.45 31.1
Q 26.4 24.1 48.3 24.65
L 48.3 -52.7 Z"/>
</g>

<g id="Duplicate_Items_Folder_Symbol_12_copy_0_Layer0_3_FILL">
<path fill="#A8A8A8" stroke="none" d="
M -6 20.95
Q -5.6 21.05 -5.15 20.9 -4.7 20.6 -4.45 20.2 -4.25 19.75 -4.3 19.4 -4.45 19.05 -4.85 18.95 -22.8 14.75 -41 14.35 -41.45 14.35 -41.85 14.65 -42.3 15 -42.45 15.45 -42.65 15.85 -42.4 16.15 -42.2 16.45 -41.75 16.45 -23.7 16.85 -6 20.95
M -4.45 11.9
Q -4.25 11.45 -4.3 11.1 -4.4 10.7 -4.8 10.6 -21.9 6 -41 5.2 -41.45 5.15 -41.9 5.5 -42.3 5.8 -42.45 6.25 -42.65 6.6 -42.4 6.95 -42.2 7.25 -41.75 7.3 -22.95 8.05 -6 12.6 -5.6 12.7 -5.15 12.55 -4.7 12.35 -4.45 11.9
M -40.6 -4.1
Q -41.05 -4.15 -41.45 -3.85 -41.85 -3.6 -41.95 -3.2 -42.1 -2.75 -41.85 -2.45 -41.6 -2.15 -41.15 -2.05 -24.25 -1.05 -5.95 4.35 -5.55 4.45 -5.1 4.3 -4.65 4.05 -4.4 3.65 -4.25 3.3 -4.35 2.9 -4.5 2.55 -4.9 2.45 -23.45 -3.1 -40.6 -4.1
M -41 -13.2
Q -41.45 -13.25 -41.85 -12.95 -42.3 -12.65 -42.45 -12.2 -42.65 -11.85 -42.4 -11.5 -42.2 -11.2 -41.75 -11.1 -24.25 -9.35 -6 -3.95 -5.6 -3.85 -5.1 -4.05 -4.7 -4.3 -4.4 -4.7 -4.2 -5.1 -4.3 -5.45 -4.45 -5.8 -4.85 -5.95 -23.35 -11.3 -41 -13.2
M -41.05 -22.75
Q -41.5 -22.75 -41.9 -22.5 -42.3 -22.3 -42.45 -21.85 -42.6 -21.45 -42.35 -21.15 -42.2 -20.8 -41.75 -20.7 -24.25 -18.45 -6 -11.95 -5.6 -11.8 -5.1 -11.95 -4.7 -12.2 -4.4 -12.55 -4.2 -12.95 -4.3 -13.35 -4.45 -13.7 -4.85 -13.85 -23.35 -20.45 -41.05 -22.75
M -41.05 -42.05
Q -41.5 -42.1 -41.9 -41.9 -42.35 -41.65 -42.45 -41.25 -42.6 -40.9 -42.35 -40.5 -42.15 -40.15 -41.7 -40.1 -23 -36.35 -6.05 -27.6 -5.65 -27.45 -5.2 -27.5 -4.75 -27.65 -4.45 -28 -4.25 -28.4 -4.3 -28.8 -4.4 -29.15 -4.8 -29.35 -22.1 -38.2 -41.05 -42.05
M -41.05 -32.25
Q -41.5 -32.3 -41.9 -32.05 -42.35 -31.85 -42.45 -31.45 -42.6 -31 -42.35 -30.65 -42.2 -30.3 -41.75 -30.25 -25.8 -27.95 -6 -19.9 -5.6 -19.75 -5.15 -19.85 -4.7 -20.05 -4.45 -20.45 -4.25 -20.85 -4.3 -21.2 -4.45 -21.6 -4.85 -21.75 -24.9 -29.85 -41.05 -32.25
M 42.95 14.65
Q 42.55 14.3 42.05 14.35 23.65 15 5.45 19.35 5.05 19.45 4.9 19.8 4.85 20.2 5.05 20.6 5.3 21 5.75 21.3 6.2 21.45 6.6 21.35 24.55 17 42.8 16.45 43.25 16.4 43.5 16.15 43.75 15.8 43.55 15.4 43.4 14.95 42.95 14.65
M 43 5.45
Q 42.55 5.15 42.05 5.2 22.75 6.2 5.4 11.05 5 11.15 4.9 11.5 4.85 11.9 5.05 12.35 5.3 12.75 5.75 12.95 6.2 13.15 6.6 13 23.75 8.25 42.8 7.25 43.25 7.25 43.5 6.95 43.75 6.6 43.55 6.2 43.4 5.75 43 5.45
M 42.55 -3.9
Q 42.1 -4.15 41.65 -4.1 24.3 -2.9 5.5 2.85 5.1 2.95 4.95 3.35 4.85 3.7 5 4.1 5.25 4.45 5.7 4.7 6.15 4.85 6.55 4.75 25.1 -0.9 42.25 -2.1 42.7 -2.15 42.95 -2.45 43.15 -2.8 43.05 -3.2 42.95 -3.6 42.55 -3.9
M 5.7 -3.65
Q 6.2 -3.45 6.6 -3.55 25.1 -9.15 42.8 -11.15 43.25 -11.2 43.5 -11.5 43.75 -11.85 43.55 -12.25 43.4 -12.7 42.95 -12.95 42.55 -13.25 42.05 -13.2 24.15 -11.15 5.45 -5.55 5.05 -5.4 4.9 -5.05 4.75 -4.65 5 -4.25 5.3 -3.85 5.7 -3.65
M 5.45 -13.45
Q 5.05 -13.3 4.9 -12.9 4.75 -12.55 5 -12.15 5.3 -11.75 5.7 -11.55 6.2 -11.4 6.6 -11.55 25.1 -18.25 42.8 -20.75 43.25 -20.85 43.45 -21.15 43.65 -21.5 43.55 -21.9 43.4 -22.3 43 -22.5 42.6 -22.8 42.1 -22.75 24.15 -20.25 5.45 -13.45
M 5.45 -21.35
Q 5.05 -21.2 4.9 -20.8 4.85 -20.4 5.05 -20.05 5.3 -19.65 5.75 -19.45 6.2 -19.35 6.6 -19.5 26.7 -27.8 42.8 -30.3 43.25 -30.35 43.45 -30.65 43.65 -31.05 43.55 -31.45 43.45 -31.85 43 -32.05 42.6 -32.3 42.1 -32.25 25.75 -29.7 5.45 -21.35
M 5.8 -27.1
Q 6.25 -27.05 6.65 -27.25 23.8 -36.15 42.75 -40.15 43.2 -40.2 43.45 -40.55 43.65 -40.9 43.55 -41.25 43.45 -41.7 42.95 -41.9 42.6 -42.1 42.15 -42 22.9 -38 5.35 -28.9 5 -28.75 4.85 -28.35 4.8 -27.95 5.05 -27.6 5.3 -27.25 5.8 -27.1 Z"/>
</g>
</defs>

<g transform="matrix( 0.9949951171875, 0, 0, 0.9949951171875, 76.4,43.7) ">
<g transform="matrix( 1, 0, 0, 1, 0,-2.15) ">
<g transform="matrix( 1, 0, 0, 1, 0,0) ">
<use xlink:href="#Duplicate_Items_Folder_Symbol_20_copy_2_0_Layer0_0_FILL"/>
</g>

<g transform="matrix( 1, 0, 0, 1, 0,0) ">
<use xlink:href="#Duplicate_Items_Folder_Symbol_20_copy_2_0_Layer0_1_FILL"/>
</g>

<g transform="matrix( 1, 0, 0, 1, 0,0) ">
<use xlink:href="#Duplicate_Items_Folder_Symbol_20_copy_2_0_Layer0_2_FILL"/>
</g>
</g>

<g filter="url(#Filter_1)" transform="matrix( 1.0050201416015625, 0, 0, 1.0050201416015625, -76.75,-43.9) ">
<g transform="matrix( 0.6054840087890625, -0.0002288818359375, 0.0002288818359375, 0.6054840087890625, 76.4,42.95) ">
<g transform="matrix( 1, 0, 0, 0.678314208984375, 0,10.25) ">
<use xlink:href="#Duplicate_Items_Folder_Symbol_12_copy_0_Layer0_0_FILL"/>
</g>

<g transform="matrix( 1, 0, 0, 1, 0,0) ">
<use xlink:href="#Duplicate_Items_Folder_Symbol_12_copy_0_Layer0_1_FILL"/>
</g>

<g transform="matrix( 1, 0, 0, 1, 0,0) ">
<use xlink:href="#Duplicate_Items_Folder_Symbol_12_copy_0_Layer0_2_FILL"/>
</g>

<g transform="matrix( 1, 0, 0, 1, 0,0) ">
<use xlink:href="#Duplicate_Items_Folder_Symbol_12_copy_0_Layer0_3_FILL"/>
</g>
</g>
</g>
</g>
</svg>
