
<svg xmlns="http://www.w3.org/2000/svg" version="1.1" xmlns:xlink="http://www.w3.org/1999/xlink" preserveAspectRatio="none" x="0px" y="0px" width="152px" height="82px" viewBox="0 0 152 82">
<defs>
<linearGradient id="Gradient_1" gradientUnits="userSpaceOnUse" x1="0" y1="41.475" x2="0" y2="-41.37500000000001" spreadMethod="pad">
<stop  offset="0%" stop-color="#214F7C"/>

<stop  offset="100%" stop-color="#1F76CB"/>
</linearGradient>

<filter id="Filter_1" x="-20%" y="-20%" width="140%" height="140%" color-interpolation-filters="sRGB">
<feFlood flood-color="#5AA8F5" flood-opacity="1" in="SourceGraphic" result="result1"/>

<feComposite in2="SourceGraphic" in="result1" operator="in" result="result2"/>

<feGaussianBlur in="result2" stdDeviation="1.3333333333333333,1.3333333333333333" result="result3"/>

<feFlood flood-color="#051E37" flood-opacity="1" in="SourceGraphic" result="result4"/>

<feComposite in2="SourceGraphic" in="result4" operator="in" result="result5"/>

<feGaussianBlur in="result5" stdDeviation="1.3333333333333333,1.3333333333333333" result="result6"/>

<feOffset dx="2.8284271247461903" dy="2.8284271247461903" in="result3" result="result7"/>

<feOffset dx="-2.8284271247461903" dy="-2.8284271247461903" in="result3" result="result8"/>

<feOffset dx="-2.8284271247461903" dy="-2.8284271247461903" in="result6" result="result9"/>

<feOffset dx="2.8284271247461903" dy="2.8284271247461903" in="result6" result="result10"/>

<feColorMatrix in="SourceGraphic" type="matrix" values="0 0 0 0 255 0 0 0 0 255 0 0 0 0 255 0 0 0 255 0" result="result11"/>

<feFlood flood-color="#000000" flood-opacity="0" in="SourceGraphic" result="result12"/>

<feComposite in2="result8" in="result7" operator="arithmetic" k1="0" k2="-1" k3="1" k4="0" result="result13"/>

<feComposite in2="result10" in="result9" operator="arithmetic" k1="0" k2="-1" k3="1" k4="0" result="result14"/>

<feComposite in2="result12" in="result13" operator="xor" result="result15"/>

<feComposite in2="result15" in="result14" operator="xor" result="result16"/>

<feComposite in2="result11" in="result16" operator="in" result="result17"/>

<feBlend mode="normal" in2="SourceGraphic" in="result17" result="result18"/>

<feColorMatrix in="result18" type="matrix" values="0.633558 0.32298200000000005 0.043460000000000006 0 0 0.163558 0.7929820000000001 0.043460000000000006 0 0 0.163558 0.32298200000000005 0.51346 0 0 0 0 0 1 0 " result="result19"/>
</filter>

<filter id="Filter_2" x="-22.305030823575215%" y="-20.81760951523096%" width="144.61006164715042%" height="141.6352190304619%" color-interpolation-filters="sRGB">
<feFlood flood-color="#000000" flood-opacity="1" in="SourceGraphic" result="result1"/>

<feComposite in2="SourceGraphic" in="result1" operator="in" result="result2"/>

<feGaussianBlur in="result2" stdDeviation="1.3333333333333333,1.3333333333333333" result="result3"/>

<feOffset dx="1.4142135623730951" dy="1.4142135623730951" in="result3" result="result4"/>

<feComposite in2="result4" in="SourceGraphic" operator="over" result="result5"/>

<feColorMatrix in="result5" type="matrix" values="1 0 0 0 0 0 1 0 0 0 0 0 1 0 0 0 0 0 0.58 0" result="result6"/>
</filter>

<g id="Duplicate_Items_Folder_Symbol_20_0_Layer0_0_FILL">
<path fill="url(#Gradient_1)" stroke="none" d="
M 16.2 -41.4
L 2.4 -41.4 -14.65 -41.4 -17.8 -41.4 -47.75 -41.4 -58.4 -41.4
Q -76.4 -41.4 -76.4 -23.4
L -76.4 23.45
Q -76.4 41.45 -58.4 41.45
L -23.4 41.45 -17.8 41.45 -14.65 41.45 2.4 41.45 16.2 41.45 58.4 41.45
Q 76.4 41.45 76.4 23.45
L 76.4 -23.4
Q 76.4 -41.4 58.4 -41.4
L 16.2 -41.4 Z"/>
</g>

<g id="Duplicate_Items_Folder_Symbol_12_copy_3_0_Layer0_0_FILL">
<path fill="#0D1D2C" stroke="none" d="
M -28.5 -39.25
Q -33.95 -38.85 -34.1 -32.65
L -34.1 36.65 28 36.7 28 -39.25 -28.5 -39.25 Z"/>
</g>

<g id="Duplicate_Items_Folder_Symbol_12_copy_3_0_Layer0_1_FILL">
<path fill="#6CB2F5" stroke="none" d="
M 33.95 -39.3
L -22.15 -39.3 -22.2 29.6 33.95 29.65 33.95 29.45 33.95 -39.3 Z"/>

<path fill="#B9C7D7" stroke="none" d="
M 38.2 -29.75
Q 34.922265625 -30.3166015625 33.95 -39.3
L 33.95 29.45 34.1 29.45
Q 31.25 37.85 37.4 41.4
L 38.2 -29.75 Z"/>

<path fill="#1C3246" stroke="none" d="
M -22.15 -39.3
L -28.5 -39.3 -28.55 29.6 -22.2 29.6 -22.15 -39.3 Z"/>
</g>

<g id="Duplicate_Items_Folder_Symbol_12_copy_3_0_Layer0_2_FILL">
<path fill="#DBDBDB" stroke="none" d="
M 37.4 41.4
Q 31.25 37.85 34.1 29.45
L -28.5 29.45
Q -33.85 31.45 -34 36.55 -34.15 41.65 -28.5 43
L 37.4 41.4 Z"/>
</g>
</defs>

<g filter="url(#Filter_1)" transform="matrix( 1, 0, 0, 1, 0,0) ">
<g transform="matrix( 1, 0, 0, 1, 76.4,41.4) ">
<g transform="matrix( 1, 0, 0, 1, 0,0) ">
<use xlink:href="#Duplicate_Items_Folder_Symbol_20_0_Layer0_0_FILL"/>
</g>
</g>
</g>

<g filter="url(#Filter_2)" transform="matrix( 1, 0, 0, 1, 0,0) ">
<g transform="matrix( 0.6085357666015625, -0.000244140625, 0.000244140625, 0.6085357666015625, 75.15,40.3) ">
<g transform="matrix( 1, 0, 0, 1, 0,0) ">
<use xlink:href="#Duplicate_Items_Folder_Symbol_12_copy_3_0_Layer0_0_FILL"/>
</g>

<g transform="matrix( 1, 0, 0, 1, 0,0) ">
<use xlink:href="#Duplicate_Items_Folder_Symbol_12_copy_3_0_Layer0_1_FILL"/>
</g>

<g transform="matrix( 1, 0, 0, 1, 0,0) ">
<use xlink:href="#Duplicate_Items_Folder_Symbol_12_copy_3_0_Layer0_2_FILL"/>
</g>
</g>
</g>
</svg>
