
<svg xmlns="http://www.w3.org/2000/svg" version="1.1" xmlns:xlink="http://www.w3.org/1999/xlink" preserveAspectRatio="none" x="0px" y="0px" width="1611px" height="887px" viewBox="0 0 1611 887">
<defs>
<linearGradient id="Gradient_1" gradientUnits="userSpaceOnUse" x1="2629.9624999999996" y1="881.7625" x2="2195.4375" y2="1530.0375000000001" spreadMethod="pad">
<stop  offset="0%" stop-color="#999999"/>

<stop  offset="100%" stop-color="#FFFFFF" stop-opacity="0"/>
</linearGradient>

<linearGradient id="Gradient_2" gradientUnits="userSpaceOnUse" x1="61.675" y1="1072.3" x2="75.02499999999999" y2="1072.3" spreadMethod="pad">
<stop  offset="0%" stop-color="#000000"/>

<stop  offset="100%" stop-color="#666666"/>
</linearGradient>

<radialGradient id="Gradient_3" gradientUnits="userSpaceOnUse" cx="0" cy="0" r="9.625" fx="0" fy="0" gradientTransform="matrix( 1, 0, 0, 1, 68.35,1072.3) " spreadMethod="pad">
<stop  offset="0%" stop-color="#000000"/>

<stop  offset="100%" stop-color="#FFFFFF"/>
</radialGradient>

<g id="Symbol_30_0_Layer1_0_FILL">
<path fill="#151515" stroke="none" d="
M 915.1 -499.05
Q 892.15 -515.8 859.8 -515.8
L -859.65 -515.8
Q -892 -515.8 -915 -499.05 -937.85 -482.25 -937.85 -458.55
L -937.85 458.1
Q -937.85 481.8 -915 498.6 -892 515.4 -859.65 515.4
L 859.8 515.4
Q 892.15 515.4 915.1 498.6 938.05 481.8 938.05 458.1
L 938.05 -458.55
Q 938.05 -482.25 915.1 -499.05 Z"/>
</g>

<g id="Symbol_30_0_Layer1_0_MEMBER_0_FILL">
<path fill="#151515" stroke="none" d="
M 1831.7 590.1
Q 1820.5 578.9 1804.65 578.9
L 77.15 578.9
Q 61.3 578.9 50.05 590.1 38.85 601.35 38.85 617.2
L 38.85 1532.1
Q 38.85 1547.95 50.05 1559.15 61.3 1570.4 77.15 1570.4
L 1804.65 1570.4
Q 1820.5 1570.4 1831.7 1559.15 1842.95 1547.95 1842.95 1532.1
L 1842.95 617.2
Q 1842.95 601.35 1831.7 590.1 Z"/>
</g>

<g id="Symbol_30_0_Layer1_1_FILL">
<path fill="url(#Gradient_1)" stroke="none" d="
M 1828.75 591.9
Q 1818.25 581.4 1803.45 581.4
L 853.35 581.4 870.3 624.1 1737.95 624.1 1737.95 1523.05 1226.9 1523.05 1244.2 1566.7 1766.65 1566.7
Q 1796.9 1566.7 1818.35 1551.05 1837.9 1536.7 1839.25 1516.9
L 1839.25 617.2
Q 1839.25 602.4 1828.75 591.9 Z"/>
</g>

<g id="Symbol_30_0_Layer1_2_FILL">
<path fill="#5F5F5F" stroke="none" d="
M 87.7 78.25
L 81.55 71.75 81.55 1006.95 87.7 1000.8 87.7 78.25 Z"/>

<path fill="#FFFFFF" stroke="none" d="
M 1784.45 1000.8
L 1784.45 78.25 87.7 78.25 87.7 1000.8 1784.45 1000.8 Z"/>

<path fill="#4B4A4A" stroke="none" d="
M 1790.5 1007.05
L 1784.45 1000.8 87.7 1000.8 81.55 1006.95 81.55 1007.05 1790.5 1007.05 Z"/>

<path fill="#6C6B6B" stroke="none" d="
M 1784.45 78.25
L 1790.55 71.75 81.55 71.75 87.7 78.25 1784.45 78.25 Z"/>

<path fill="#414040" stroke="none" d="
M 1790.55 71.75
L 1784.45 78.25 1784.45 1000.8 1790.5 1007.05 1790.55 1007.05 1790.55 71.75 Z"/>
</g>

<g id="Symbol_30_0_Layer1_3_FILL">
<path fill="url(#Gradient_2)" stroke="none" d="
M 74.5 1078.45
Q 76.5 1076.4 76.5 1073.5 76.5 1070.65 74.5 1068.6 72.45 1066.55 69.55 1066.55 66.65 1066.55 64.6 1068.6 62.55 1070.65 62.55 1073.5 62.55 1076.4 64.6 1078.45 66.65 1080.5 69.55 1080.5 72.45 1080.5 74.5 1078.45 Z"/>
</g>

<path id="Symbol_30_0_Layer1_0_MEMBER_0_1_STROKES" stroke="#373535" stroke-width="5" stroke-linejoin="round" stroke-linecap="round" fill="none" d="
M -898.2774673461914 -515.195053100586
L 898.0209793090821 -515.195053100586
Q 914.5022125244141 -515.195053100586 926.1482574462891 -503.549008178711 937.8462936401368 -491.85097198486335 937.8462936401368 -475.3697387695313
L 937.8462936401368 475.96655578613263
Q 937.8462936401368 492.4477890014648 926.1482574462891 504.09383392333984 914.5022125244141 515.7918701171875 898.0209793090821 515.7918701171875
L -898.2774673461914 515.7918701171875
Q -914.7587005615235 515.7918701171875 -926.4567367553711 504.09383392333984 -938.1027816772461 492.4477890014648 -938.1027816772461 475.96655578613263
L -938.1027816772461 -475.3697387695313
Q -938.1027816772461 -491.85097198486335 -926.4567367553711 -503.549008178711 -914.7587005615235 -515.195053100586 -898.2774673461914 -515.195053100586 Z"/>

<path id="Symbol_30_0_Layer1_2_1_STROKES" stroke="#000000" stroke-width="0.5" stroke-linejoin="round" stroke-linecap="round" fill="none" d="
M 1790.5 1007.05
L 1790.55 1007.05 1790.55 71.75 81.55 71.75
M 1790.5 1007.05
L 81.55 1007.05 81.55 1006.95 81.55 71.75"/>

<path id="Symbol_30_0_Layer1_3_1_STROKES" stroke="url(#Gradient_3)" stroke-width="3.15" stroke-linejoin="round" stroke-linecap="round" fill="none" d="
M -898.9113311767578 -0.30769958496102845
Q -898.9113311767578 2.709387207031341 -900.9920806884766 4.842155456542969 -903.1248489379883 6.9749237060545966 -906.1419357299804 6.9749237060545966 -909.1590225219727 6.9749237060545966 -911.2917907714843 4.842155456542969 -913.4245590209961 2.709387207031341 -913.4245590209961 -0.30769958496102845 -913.4245590209961 -3.2727676391600653 -911.2917907714843 -5.405535888672148 -909.1590225219727 -7.538304138183776 -906.1419357299804 -7.538304138183776 -903.1248489379883 -7.538304138183776 -900.9920806884766 -5.405535888672148 -898.9113311767578 -3.2727676391600653 -898.9113311767578 -0.30769958496102845 Z"/>
</defs>

<g transform="matrix( 0.856964111328125, 0, 0, 0.856964111328125, 806.05,443.65) ">
<g transform="matrix( 1, 0, 0, 1, 0,0) ">
<use xlink:href="#Symbol_30_0_Layer1_0_FILL"/>
</g>

<g transform="matrix( 1.039825439453125, 0, 0, 1.039825439453125, -978.5,-1117.15) ">
<use xlink:href="#Symbol_30_0_Layer1_0_MEMBER_0_FILL"/>

<use xlink:href="#Symbol_30_0_Layer1_0_MEMBER_0_1_STROKES" transform="matrix( 0.9616851806640625, 0, 0, 0.9616851806640625, 941,1074.35) "/>
</g>

<g transform="matrix( 1.040374755859375, 0, 0, 1.040374755859375, -978.5,-1117.15) ">
<use xlink:href="#Symbol_30_0_Layer1_1_FILL"/>
</g>

<g transform="matrix( 1, 0, 0, 1, -959.6,-539.6) ">
<use xlink:href="#Symbol_30_0_Layer1_2_FILL"/>

<use xlink:href="#Symbol_30_0_Layer1_2_1_STROKES"/>
</g>

<g transform="matrix( 1.040374755859375, 0, 0, 1.040374755859375, -978.5,-1117.15) ">
<use xlink:href="#Symbol_30_0_Layer1_3_FILL"/>

<use xlink:href="#Symbol_30_0_Layer1_3_1_STROKES" transform="matrix( 0.961181640625, 0, 0, 0.961181640625, 940.5,1073.75) "/>
</g>
</g>
</svg>
