
<svg xmlns="http://www.w3.org/2000/svg" version="1.1" xmlns:xlink="http://www.w3.org/1999/xlink" preserveAspectRatio="none" x="0px" y="0px" width="173px" height="173px" viewBox="0 0 173 173">
<defs>
<linearGradient id="Gradient_1" gradientUnits="userSpaceOnUse" x1="-24.475" y1="20.57499999999999" x2="38.475" y2="219.625" spreadMethod="pad">
<stop  offset="0%" stop-color="#FFFFFF"/>

<stop  offset="9.411764705882353%" stop-color="#C5C5C5"/>

<stop  offset="17.647058823529413%" stop-color="#929292"/>

<stop  offset="27.84313725490196%" stop-color="#686868"/>

<stop  offset="40%" stop-color="#414141"/>

<stop  offset="48.627450980392155%" stop-color="#333333"/>

<stop  offset="61.96078431372549%" stop-color="#404040"/>

<stop  offset="73.33333333333333%" stop-color="#5A5A5A"/>

<stop  offset="83.13725490196079%" stop-color="#878787"/>

<stop  offset="91.76470588235294%" stop-color="#BABABA"/>

<stop  offset="100%" stop-color="#FFFFFF"/>
</linearGradient>

<linearGradient id="Gradient_2" gradientUnits="userSpaceOnUse" x1="28.9" y1="-335.925" x2="28.9" y2="-0.07499999999998863" spreadMethod="pad">
<stop  offset="0%" stop-color="#FFFFFF"/>

<stop  offset="12.941176470588236%" stop-color="#969696"/>

<stop  offset="46.666666666666664%" stop-color="#464646"/>

<stop  offset="90.19607843137256%" stop-color="#B7B7B7"/>

<stop  offset="100%" stop-color="#FFFFFF"/>
</linearGradient>

<linearGradient id="Gradient_3" gradientUnits="userSpaceOnUse" x1="-5.575" y1="139.15" x2="5.875000000000001" y2="-152.54999999999998" spreadMethod="pad">
<stop  offset="0%" stop-color="#FFCC00"/>

<stop  offset="100%" stop-color="#FFD400"/>
</linearGradient>

<linearGradient id="Gradient_4" gradientUnits="userSpaceOnUse" x1="8.425" y1="3.700000000000003" x2="8.175" y2="-112.7" spreadMethod="pad">
<stop  offset="0%" stop-color="#FFFFFF" stop-opacity="0.24705882352941178"/>

<stop  offset="100%" stop-color="#FFFFFF" stop-opacity="0"/>
</linearGradient>

<linearGradient id="Gradient_5" gradientUnits="userSpaceOnUse" x1="-151.4875" y1="-120.9" x2="51.587500000000006" y2="-120.9" spreadMethod="pad">
<stop  offset="0%" stop-color="#FFFFFF" stop-opacity="0.4980392156862745"/>

<stop  offset="100%" stop-color="#FFFFFF" stop-opacity="0"/>
</linearGradient>

<filter id="Filter_1" x="-20%" y="-20%" width="140%" height="140%" color-interpolation-filters="sRGB">
<feFlood flood-color="#000000" flood-opacity="1" in="SourceGraphic" result="result1"/>

<feComposite in2="SourceGraphic" in="result1" operator="in" result="result2"/>

<feGaussianBlur in="result2" stdDeviation="3.3333333333333335,3.3333333333333335" result="result3"/>

<feOffset dx="2.8284271247461903" dy="2.8284271247461903" in="result3" result="result4"/>

<feComposite in2="result4" in="SourceGraphic" operator="over" result="result5"/>
</filter>

<filter id="Filter_2" x="-20%" y="-20%" width="140%" height="140%" color-interpolation-filters="sRGB">
<feColorMatrix in="SourceGraphic" type="matrix" values="-0.9795533500547117 1.8778196825735738 0.10173366748113799 0 0 0.47084359275677506 0.3336220521069827 0.1955343551362421 0 0 0.5428788029295637 1.7670558647810064 -1.30993466771057 0 0 0 0 0 1 0 " result="result1"/>
</filter>

<filter id="Filter_3" x="-20%" y="-20%" width="140%" height="140%" color-interpolation-filters="sRGB">
<feFlood flood-color="#000000" flood-opacity="1" in="SourceGraphic" result="result1"/>

<feComposite in2="SourceGraphic" in="result1" operator="in" result="result2"/>

<feGaussianBlur in="result2" stdDeviation="1,1" result="result3"/>

<feOffset dx="2.121320343559643" dy="2.121320343559643" in="result3" result="result4"/>

<feComposite in2="result4" in="SourceGraphic" operator="over" result="result5"/>
</filter>

<g id="Symbol_5_0_Layer0_0_FILL">
<path fill="url(#Gradient_1)" stroke="none" d="
M 0 181.8
Q 75.35 181.8 128.55 128.6 180.1 77.1 181.75 4.9
L -181.75 4.9
Q -180.05 77.1 -128.6 128.6 -75.3 181.8 0 181.8 Z"/>

<path fill="url(#Gradient_2)" stroke="none" d="
M 128.55 -128.55
Q 75.35 -181.8 0 -181.8 -75.3 -181.8 -128.6 -128.55 -181.8 -75.25 -181.8 0 -181.8 2.5 -181.75 4.9
L 181.75 4.9
Q 181.85 2.5 181.85 0 181.85 -75.25 128.55 -128.55 Z"/>
</g>

<g id="Speaker_Button_1_copy_1_Layer2_0_FILL">
<path fill="#404040" stroke="none" d="
M 114.3 -114.35
Q 67 -161.65 0 -161.65 -67 -161.65 -114.35 -114.35 -161.65 -66.95 -161.65 0.05 -161.65 67 -114.35 114.35 -67 161.7 0 161.7 67 161.7 114.3 114.35 161.7 67 161.7 0.05 161.7 -66.95 114.3 -114.35 Z"/>
</g>

<g id="Symbol_25_0_Layer1_0_FILL">
<path fill="#EFB400" stroke="none" d="
M 114.3 -114.35
Q 67 -161.65 0 -161.65 -67 -161.65 -114.35 -114.35 -161.65 -66.95 -161.65 0.05 -161.65 67 -114.35 114.35 -67 161.7 0 161.7 67 161.7 114.3 114.35 161.7 67 161.7 0.05 161.7 -66.95 114.3 -114.35 Z"/>
</g>

<g id="Symbol_25_0_Layer1_1_FILL">
<path fill="url(#Gradient_3)" stroke="none" d="
M 114.3 -114.35
Q 67 -161.65 0 -161.65 -67 -161.65 -114.35 -114.35 -161.65 -66.95 -161.65 0.05 -161.65 67 -114.35 114.35 -67 161.7 0 161.7 67 161.7 114.3 114.35 161.7 67 161.7 0.05 161.7 -66.95 114.3 -114.35 Z"/>
</g>

<g id="Symbol_14_copy_0_Layer0_0_FILL">
<path fill="#FFFFFF" stroke="none" d="
M -38.7 -13.8
Q -39.9 -12.65 -39.9 -11
L -39.9 8.1
Q -39.9 9.75 -38.7 10.95 -37.55 12.1 -35.9 12.1
L -25.5 12.1 -25.5 -15 -35.9 -15
Q -37.55 -15 -38.7 -13.8 Z"/>
</g>

<g id="Symbol_14_copy_0_Layer0_1_FILL">
<path fill="#FFFFFF" stroke="none" d="
M -2.85 -4.1
Q -4.75 -6 -7.45 -6 -10.15 -6 -12.05 -4.1 -13.95 -2.2 -13.95 0.5 -13.95 3.2 -12.05 5.1 -10.15 7 -7.45 7 -4.75 7 -2.85 5.1 -0.95 3.2 -0.95 0.5 -0.95 -2.2 -2.85 -4.1 Z"/>
</g>

<g id="Symbol_14_copy_0_Layer0_2_FILL">
<path fill="#FFFFFF" stroke="none" d="
M 2.35 -24.5
Q 2.3505859375 -26.026171875 1.3 -27.2 0.2962890625 -28.3146484375 -1.25 -28.5 -2.7376953125 -28.640625 -4 -27.75
L -22 -14.9 -22 12.05 -3.95 24.95
Q -2.6802734375 25.841015625 -1.2 25.65 0.3431640625 25.5134765625 1.35 24.35 2.400390625 23.2259765625 2.4 21.7
L 2.35 -24.5 Z"/>
</g>

<g id="Speaker_Button_1_copy_1_Layer0_0_MEMBER_0_FILL">
<path fill="url(#Gradient_4)" stroke="none" d="
M 137.1 -7.35
Q 136.9 -63.65 96.95 -103.6 56.9 -143.7 0.15 -143.7 -56.6 -143.7 -96.7 -103.6 -136.55 -63.65 -136.8 -7.35 0.2 24.6 137.1 -7.35 Z"/>
</g>

<g id="Speaker_Button_1_copy_1_Layer0_0_MEMBER_1_FILL">
<path fill="url(#Gradient_5)" stroke="none" d="
M -51.8 -136.5
L -42.85 -118.55
Q -22.1755859375 -127.5513671875 0.5 -128.95
L -0.05 -146.6
Q -2.8634765625 -146.7412109375 -5.7 -146.75 -30.1802734375 -146.826171875 -51.8 -136.5
M 13.75 -129.15
Q 26.1154296875 -128.712890625 39.05 -126.15
L 42.85 -135.25
Q 29.36328125 -141.651171875 15.75 -144.5
L 13.75 -129.15 Z"/>
</g>
</defs>

<g transform="matrix( 0.44873046875, 0, 0, 0.44873046875, 82.4,82.4) ">
<g filter="url(#Filter_1)" transform="matrix( 2.2285003662109375, 0, 0, 2.2285003662109375, -183.6,-183.6) ">
<g transform="matrix( 0.44873046875, 0, 0, 0.44873046875, 82.55,82.45) ">
<g transform="matrix( 1, 0, 0, 1, 0,0) ">
<use xlink:href="#Symbol_5_0_Layer0_0_FILL"/>
</g>
</g>
</g>

<g transform="matrix( 1.01953125, 0, 0, 1.01953125, 0.25,0.1) ">
<use xlink:href="#Speaker_Button_1_copy_1_Layer2_0_FILL"/>
</g>

<g filter="url(#Filter_2)" transform="matrix( 2.2285003662109375, 0, 0, 2.2285003662109375, -183.6,-183.6) ">
<g transform="matrix( 0.4397430419921875, 0, 0, 0.4397430419921875, 82.5,82.4) ">
<g transform="matrix( 1, 0, 0, 1, 0,0) ">
<use xlink:href="#Symbol_25_0_Layer1_0_FILL"/>
</g>

<g transform="matrix( 0.96038818359375, 0, 0, 0.96038818359375, 0,0) ">
<use xlink:href="#Symbol_25_0_Layer1_1_FILL"/>
</g>
</g>
</g>

<g filter="url(#Filter_3)" transform="matrix( 2.2285003662109375, 0, 0, 2.2285003662109375, -183.6,-183.6) ">
<g transform="matrix( 1.3153839111328125, 0, 0, 1.3153839111328125, 105.2,84.3) ">
<g transform="matrix( 1, 0, 0, 1, -6.3,0) ">
<use xlink:href="#Symbol_14_copy_0_Layer0_0_FILL"/>
</g>

<g transform="matrix( 1, 0, 0, 1, 1.05,-0.5) ">
<use xlink:href="#Symbol_14_copy_0_Layer0_1_FILL"/>
</g>

<g transform="matrix( 1, 0, 0, 1, -6.75,-0.05) ">
<use xlink:href="#Symbol_14_copy_0_Layer0_2_FILL"/>
</g>
</g>
</g>

<g transform="matrix( 1, 0, 0, 1, 0,0) ">
<use xlink:href="#Speaker_Button_1_copy_1_Layer0_0_MEMBER_0_FILL"/>
</g>

<g transform="matrix( 1, 0, 0, 1, 0,8.95) ">
<use xlink:href="#Speaker_Button_1_copy_1_Layer0_0_MEMBER_1_FILL"/>
</g>
</g>
</svg>
