
<svg xmlns="http://www.w3.org/2000/svg" version="1.1" xmlns:xlink="http://www.w3.org/1999/xlink" preserveAspectRatio="none" x="0px" y="0px" width="173px" height="173px" viewBox="0 0 173 173">
<defs>
<linearGradient id="Gradient_1" gradientUnits="userSpaceOnUse" x1="-24.475" y1="20.57499999999999" x2="38.475" y2="219.625" spreadMethod="pad">
<stop  offset="0%" stop-color="#FFFFFF"/>

<stop  offset="9.411764705882353%" stop-color="#C5C5C5"/>

<stop  offset="17.647058823529413%" stop-color="#929292"/>

<stop  offset="27.84313725490196%" stop-color="#686868"/>

<stop  offset="40%" stop-color="#414141"/>

<stop  offset="48.627450980392155%" stop-color="#333333"/>

<stop  offset="61.96078431372549%" stop-color="#404040"/>

<stop  offset="73.33333333333333%" stop-color="#5A5A5A"/>

<stop  offset="83.13725490196079%" stop-color="#878787"/>

<stop  offset="91.76470588235294%" stop-color="#BABABA"/>

<stop  offset="100%" stop-color="#FFFFFF"/>
</linearGradient>

<linearGradient id="Gradient_2" gradientUnits="userSpaceOnUse" x1="28.9" y1="-335.925" x2="28.9" y2="-0.07499999999998863" spreadMethod="pad">
<stop  offset="0%" stop-color="#FFFFFF"/>

<stop  offset="12.941176470588236%" stop-color="#969696"/>

<stop  offset="46.666666666666664%" stop-color="#464646"/>

<stop  offset="90.19607843137256%" stop-color="#B7B7B7"/>

<stop  offset="100%" stop-color="#FFFFFF"/>
</linearGradient>

<linearGradient id="Gradient_3" gradientUnits="userSpaceOnUse" x1="-5.9375" y1="141.9625" x2="5.737500000000001" y2="-155.56250000000003" spreadMethod="pad">
<stop  offset="0%" stop-color="#B19937"/>

<stop  offset="100%" stop-color="#AA9222"/>
</linearGradient>

<linearGradient id="Gradient_4" gradientUnits="userSpaceOnUse" x1="-0.15" y1="13.000000000000014" x2="-0.15" y2="-144.7" spreadMethod="pad">
<stop  offset="0%" stop-color="#D4D379"/>

<stop  offset="100%" stop-color="#B69C37" stop-opacity="0"/>
</linearGradient>

<filter id="Filter_1" x="-20%" y="-20%" width="140%" height="140%" color-interpolation-filters="sRGB">
<feFlood flood-color="#000000" flood-opacity="1" in="SourceGraphic" result="result1"/>

<feComposite in2="SourceGraphic" in="result1" operator="in" result="result2"/>

<feGaussianBlur in="result2" stdDeviation="3.3333333333333335,3.3333333333333335" result="result3"/>

<feOffset dx="2.8284271247461903" dy="2.8284271247461903" in="result3" result="result4"/>

<feComposite in2="result4" in="SourceGraphic" operator="over" result="result5"/>
</filter>

<filter id="Filter_2" x="-20%" y="-20%" width="140%" height="140%" color-interpolation-filters="sRGB">
<feColorMatrix in="SourceGraphic" type="matrix" values="-0.23943552 0.4377331200000001 0.04170239999999996 0 0.1864313725490196 0.11576448 0.08253312000000002 0.04170240000000001 0 0.18643137254901962 0.11576448000000004 0.4377331200000001 -0.31349760000000004 0 0.1864313725490196 0 0 0 1 0 " result="result1"/>
</filter>

<filter id="Filter_3" x="-20%" y="-20%" width="140%" height="140%" color-interpolation-filters="sRGB">
<feColorMatrix in="SourceGraphic" type="matrix" values="0.17804391722418458 0.737956048909484 0.08400003386633155 0 0 0.32504360737399746 0.5814495323081401 0.09350686031786237 0 0 0.33234447326988814 0.7267299862953722 -0.0590744595652605 0 0 0 0 0 1 0 " result="result1"/>
</filter>

<filter id="Filter_4" x="-20%" y="-20%" width="140%" height="140%" color-interpolation-filters="sRGB">
<feFlood flood-color="#000000" flood-opacity="1" in="SourceGraphic" result="result1"/>

<feComposite in2="SourceGraphic" in="result1" operator="in" result="result2"/>

<feGaussianBlur in="result2" stdDeviation="1,1" result="result3"/>

<feOffset dx="2.121320343559643" dy="2.121320343559643" in="result3" result="result4"/>

<feComposite in2="result4" in="SourceGraphic" operator="over" result="result5"/>

<feColorMatrix in="result5" type="matrix" values="1 0 0 0 0 0 1 0 0 0 0 0 1 0 0 0 0 0 0.5 0" result="result6"/>
</filter>

<g id="Symbol_5aa_0_Layer0_0_FILL">
<path fill="url(#Gradient_1)" stroke="none" d="
M 0 181.8
Q 75.35 181.8 128.55 128.6 180.1 77.1 181.75 4.9
L -181.75 4.9
Q -180.05 77.1 -128.6 128.6 -75.3 181.8 0 181.8 Z"/>

<path fill="url(#Gradient_2)" stroke="none" d="
M 128.55 -128.55
Q 75.35 -181.8 0 -181.8 -75.3 -181.8 -128.6 -128.55 -181.8 -75.25 -181.8 0 -181.8 2.5 -181.75 4.9
L 181.75 4.9
Q 181.85 2.5 181.85 0 181.85 -75.25 128.55 -128.55 Z"/>
</g>

<g id="Symbol_25aaa_0_Layer0_0_FILL">
<path fill="#A18122" stroke="none" d="
M 114.3 -114.35
Q 67 -161.65 0 -161.65 -67 -161.65 -114.35 -114.35 -161.65 -66.95 -161.65 0.05 -161.65 67 -114.35 114.35 -67 161.7 0 161.7 67 161.7 114.3 114.35 161.7 67 161.7 0.05 161.7 -66.95 114.3 -114.35 Z"/>
</g>

<g id="Symbol_25aaa_0_Layer0_1_FILL">
<path fill="#FFCC00" stroke="none" d="
M 259.1 162.3
Q 219.9 123.1 164.4 123.1 108.9 123.1 69.65 162.3 30.6443359375 201.3552734375 30.45 256.5 30.45 256.75 30.45 257 30.45 307.6 69.65 343.35 108.9 379.15 164.4 379.15 219.9 379.15 259.1 343.35 298.35 307.6 298.35 257 298.35 256.75 298.35 256.5 298.1552734375 201.3552734375 259.1 162.3 Z"/>
</g>

<g id="Symbol_25aaa_0_Layer0_2_FILL">
<path fill="url(#Gradient_3)" stroke="none" d="
M 155.45 -0.05
Q 155.45 -0.35 155.45 -0.65 155.2 -64.75 109.8 -110.15 64.2 -155.75 -0.3 -155.75 -64.8 -155.75 -110.45 -110.15 -155.8 -64.75 -156.05 -0.65 -156.05 -0.35 -156.05 -0.05 -156.05 58.8 -110.45 100.35 -64.8 142 -0.3 142 64.2 142 109.8 100.35 155.45 58.8 155.45 -0.05 Z"/>
</g>

<g id="Symbol_25aaa_0_Layer0_3_FILL">
<path fill="url(#Gradient_4)" stroke="none" d="
M 134.75 -31
Q 133.35 -66.55 94.2 -105.7 55.1 -144.75 -0.2 -144.75 -55.55 -144.75 -94.7 -105.7 -133.75 -66.55 -137.5 -30.65 -141.3 5.25 -84.3 -1.25 -27.3 -7.75 18.25 -6 63.75 -4.3 99.95 0.15 136.15 4.6 134.75 -31 Z"/>
</g>

<g id="Symbol_25aaa_0_Layer0_4_FILL">
<path fill="#D4D4D4" fill-opacity="0.24705882352941178" stroke="none" d="
M 3 -115.15
Q 22.8 -113.9 34.8 -111.95 46.85 -110.05 46.85 -118.3 46.85 -126.5 32.6 -132.3 18.35 -138.1 -1.8 -138.1 -21.95 -138.1 -36.2 -132.3 -50.4 -126.5 -50.4 -118.3 -50.4 -110.05 -33.6 -113.2 -16.8 -116.4 3 -115.15 Z"/>
</g>

<g id="Symbol_14_copyaaa_0_Layer0_0_FILL">
<path fill="#FFFFFF" stroke="none" d="
M -38.7 -13.8
Q -39.9 -12.65 -39.9 -11
L -39.9 8.1
Q -39.9 9.75 -38.7 10.95 -37.55 12.1 -35.9 12.1
L -25.5 12.1 -25.5 -15 -35.9 -15
Q -37.55 -15 -38.7 -13.8 Z"/>
</g>

<g id="Symbol_14_copyaaa_0_Layer0_1_FILL">
<path fill="#FFFFFF" stroke="none" d="
M -2.85 -4.1
Q -4.75 -6 -7.45 -6 -10.15 -6 -12.05 -4.1 -13.95 -2.2 -13.95 0.5 -13.95 3.2 -12.05 5.1 -10.15 7 -7.45 7 -4.75 7 -2.85 5.1 -0.95 3.2 -0.95 0.5 -0.95 -2.2 -2.85 -4.1 Z"/>
</g>

<g id="Symbol_14_copyaaa_0_Layer0_2_FILL">
<path fill="#FFFFFF" stroke="none" d="
M 2.35 -24.5
Q 2.3505859375 -26.026171875 1.3 -27.2 0.2962890625 -28.3146484375 -1.25 -28.5 -2.7376953125 -28.640625 -4 -27.75
L -22 -14.9 -22 12.05 -3.95 24.95
Q -2.6802734375 25.841015625 -1.2 25.65 0.3431640625 25.5134765625 1.35 24.35 2.400390625 23.2259765625 2.4 21.7
L 2.35 -24.5 Z"/>
</g>
</defs>

<g transform="matrix( 0.44873046875, 0, 0, 0.44873046875, 82.4,82.4) ">
<g filter="url(#Filter_1)" transform="matrix( 2.2285003662109375, 0, 0, 2.2285003662109375, -183.6,-183.6) ">
<g transform="matrix( 0.44873046875, 0, 0, 0.44873046875, 82.55,82.45) ">
<g transform="matrix( 1, 0, 0, 1, 0,0) ">
<use xlink:href="#Symbol_5aa_0_Layer0_0_FILL"/>
</g>
</g>
</g>

<g filter="url(#Filter_2)" transform="matrix( 2.2285003662109375, 0, 0, 2.2285003662109375, -183.6,-183.6) ">
<g transform="matrix( 0.457489013671875, 0, 0, 0.457489013671875, 82.5,82.4) ">
<g transform="matrix( 1, 0, 0, 1, 0,0) ">
<use xlink:href="#Symbol_25aaa_0_Layer0_0_FILL"/>
</g>

<g transform="matrix( 1.139984130859375, 0, 0, 1.139984130859375, -187.65,-293.15) ">
<use xlink:href="#Symbol_25aaa_0_Layer0_1_FILL"/>
</g>

<g transform="matrix( 1, 0, 0, 1, 0,0) ">
<use xlink:href="#Symbol_25aaa_0_Layer0_2_FILL"/>
</g>

<g transform="matrix( 1, 0, 0, 1, 0,0) ">
<use xlink:href="#Symbol_25aaa_0_Layer0_3_FILL"/>
</g>

<g transform="matrix( 1, 0, 0, 1, 0,0) ">
<use xlink:href="#Symbol_25aaa_0_Layer0_4_FILL"/>
</g>
</g>
</g>

<g filter="url(#Filter_3)" transform="matrix( 2.2285003662109375, 0, 0, 2.2285003662109375, -183.6,-183.6) ">
<g transform="matrix( 0.4397430419921875, 0, 0, 0.4397430419921875, 82.5,82.4) ">
<g transform="matrix( 1, 0, 0, 1, 0,0) ">
<use xlink:href="#Symbol_25aaa_0_Layer0_0_FILL"/>
</g>

<g transform="matrix( 1.139984130859375, 0, 0, 1.139984130859375, -187.65,-293.15) ">
<use xlink:href="#Symbol_25aaa_0_Layer0_1_FILL"/>
</g>

<g transform="matrix( 1, 0, 0, 1, 0,0) ">
<use xlink:href="#Symbol_25aaa_0_Layer0_2_FILL"/>
</g>

<g transform="matrix( 1, 0, 0, 1, 0,0) ">
<use xlink:href="#Symbol_25aaa_0_Layer0_3_FILL"/>
</g>

<g transform="matrix( 1, 0, 0, 1, 0,0) ">
<use xlink:href="#Symbol_25aaa_0_Layer0_4_FILL"/>
</g>
</g>
</g>

<g filter="url(#Filter_4)" transform="matrix( 2.2285003662109375, 0, 0, 2.2285003662109375, -183.6,-183.6) ">
<g transform="matrix( 1.3153839111328125, 0, 0, 1.3153839111328125, 105.2,84.3) ">
<g transform="matrix( 1, 0, 0, 1, -6.3,0) ">
<use xlink:href="#Symbol_14_copyaaa_0_Layer0_0_FILL"/>
</g>

<g transform="matrix( 1, 0, 0, 1, 1.05,-0.5) ">
<use xlink:href="#Symbol_14_copyaaa_0_Layer0_1_FILL"/>
</g>

<g transform="matrix( 1, 0, 0, 1, -6.75,-0.05) ">
<use xlink:href="#Symbol_14_copyaaa_0_Layer0_2_FILL"/>
</g>
</g>
</g>
</g>
</svg>
