
<svg xmlns="http://www.w3.org/2000/svg" version="1.1" xmlns:xlink="http://www.w3.org/1999/xlink" preserveAspectRatio="none" x="0px" y="0px" width="705px" height="703px" viewBox="0 0 705 703">
<defs>
<linearGradient id="Gradient_1" gradientUnits="userSpaceOnUse" x1="304.88750000000005" y1="76.01249999999999" x2="339.3125" y2="234.1875" spreadMethod="pad">
<stop  offset="0%" stop-color="#73BAD2"/>

<stop  offset="100%" stop-color="#B5E1F2"/>
</linearGradient>

<linearGradient id="Gradient_2" gradientUnits="userSpaceOnUse" x1="310.36249999999995" y1="85.03750000000001" x2="309.4375" y2="84.3625" spreadMethod="pad">
<stop  offset="0%" stop-color="#7A7587"/>

<stop  offset="29.019607843137255%" stop-color="#795C54"/>

<stop  offset="45.09803921568628%" stop-color="#9C8C87"/>

<stop  offset="59.21568627450981%" stop-color="#BBBBBC"/>

<stop  offset="70.19607843137256%" stop-color="#CFDDE3"/>

<stop  offset="76.47058823529412%" stop-color="#D8EEFA"/>

<stop  offset="100%" stop-color="#AABCC6"/>
</linearGradient>

<radialGradient id="Gradient_3" gradientUnits="userSpaceOnUse" cx="0" cy="0" r="27.437500000000004" fx="0" fy="0" gradientTransform="matrix( 0.9999999999999999, 0, 0, 0.9999999999999999, 9.45,-320.8) " spreadMethod="pad">
<stop  offset="54.509803921568626%" stop-color="#FF4848"/>

<stop  offset="100%" stop-color="#B80000"/>
</radialGradient>

<radialGradient id="Gradient_4" gradientUnits="userSpaceOnUse" cx="0" cy="0" r="1.25" fx="0" fy="0" gradientTransform="matrix( 1, 0, 0, -1, 313.55,74.65) " spreadMethod="pad">
<stop  offset="52.94117647058823%" stop-color="#FFFFFF"/>

<stop  offset="71.37254901960785%" stop-color="#FFFCFB"/>

<stop  offset="78.03921568627452%" stop-color="#FFF5F1"/>

<stop  offset="82.74509803921569%" stop-color="#FEECE3"/>

<stop  offset="86.66666666666667%" stop-color="#FDDED1"/>

<stop  offset="90.19607843137256%" stop-color="#FCCDBB"/>

<stop  offset="92.94117647058823%" stop-color="#FAB8A2"/>

<stop  offset="95.68627450980392%" stop-color="#F7A086"/>

<stop  offset="98.03921568627452%" stop-color="#F5876D"/>

<stop  offset="100%" stop-color="#F26C56"/>
</radialGradient>

<filter id="Filter_1" x="-20%" y="-20%" width="140%" height="140%" color-interpolation-filters="sRGB">
<feFlood flood-color="#000000" flood-opacity="1" in="SourceGraphic" result="result1"/>

<feComposite in2="SourceGraphic" in="result1" operator="in" result="result2"/>

<feGaussianBlur in="result2" stdDeviation="8.666666666666666,8.666666666666666" result="result3"/>

<feOffset dx="4.944271909999159" dy="15.216904260722456" in="result3" result="result4"/>

<feComposite in2="result4" in="SourceGraphic" operator="over" result="result5"/>
</filter>

<g id="Symbol_1_0_Layer0_0_FILL">
<path fill="#FFFFFF" stroke="none" d="
M 410.95 148.15
Q 398.1 67 395.85 61.95
L 221.2 96.9
Q 227.6 128.45 234.6 164.95 248.55 238 251.4 263.05
L 423.3 228.3
Q 417.35 188.75 410.95 148.15 Z"/>
</g>

<g id="Symbol_1_0_Layer0_1_FILL">
<path fill="url(#Gradient_1)" stroke="none" d="
M 410.95 148.15
Q 398.1 67 395.85 61.95
L 221.2 96.9
Q 227.6 128.45 234.6 164.95 248.55 238 251.4 263.05
L 423.3 228.3
Q 417.35 188.75 410.95 148.15 Z"/>
</g>

<g id="Symbol_76_2_Layer1_1_MEMBER_0_FILL">
<path fill="#000000" fill-opacity="0.09803921568627451" stroke="none" d="
M 56.15 -249
Q 55.85 -253.4 47.65 -257.55 39.35 -261.75 28.2 -263.3 16.8 -264.85 8.95 -262.85 8.015625 -262.6119140625 7.2 -262.35
L -15.5 -271.65
Q -15.87890625 -272.5009765625 -18.1 -272.8 -20.75 -273.15 -20.65 -272 -20.602734375 -270.866796875 -18.25 -270.5
L 4.55 -261.25
Q 1.2021484375 -259.3521484375 1.4 -256.45 1.7 -252 10.05 -247.8 18.3 -243.6 29.7 -242.05 40.85 -240.5 48.75 -242.5 56.45 -244.55 56.15 -249 Z"/>
</g>

<g id="Symbol_76_2_Layer1_1_MEMBER_1_MEMBER_0_MEMBER_0_FILL">
<path fill="#655835" stroke="none" d="
M 308.35 87.8
Q 308.35 87.15 307.6 87.15 306.85 87.15 306.85 87.8 306.85 88.45 307.6 88.45 308.35 88.45 308.35 87.8 Z"/>
</g>

<g id="Symbol_76_2_Layer1_1_MEMBER_1_MEMBER_0_MEMBER_1_FILL">
<path fill="url(#Gradient_2)" stroke="none" d="
M 311.55 81.4
L 307.3 87.3
Q 307.05 87.65 307.5 88 308 88.35 308.25 88
L 312.5 82.1
Q 312.75 81.75 312.25 81.4 311.8 81.05 311.55 81.4 Z"/>
</g>

<g id="Symbol_76_2_Layer1_1_MEMBER_1_MEMBER_1_FILL">
<path fill="url(#Gradient_3)" stroke="none" d="
M 34.1 -313.7
Q 34.1 -323.65 27 -330.85 19.85 -337.95 9.7 -337.95 -0.3 -337.95 -7.4 -330.85 -14.55 -323.65 -14.55 -313.7 -14.55 -303.55 -7.4 -296.4 -0.3 -289.2 9.7 -289.2 19.85 -289.2 27 -296.4 34.1 -303.55 34.1 -313.7 Z"/>
</g>

<g id="Symbol_76_2_Layer1_1_MEMBER_1_MEMBER_2_MEMBER_0_FILL">
<path fill="url(#Gradient_4)" stroke="none" d="
M 314.8 74.65
Q 314.8 74.1 314.45 73.75 314.05 73.35 313.55 73.35 313.05 73.35 312.65 73.75 312.3 74.1 312.3 74.65 312.3 75.2 312.65 75.55 313.05 75.9 313.55 75.9 314.1 75.9 314.45 75.55 314.8 75.2 314.8 74.65 Z"/>
</g>
</defs>

<g transform="matrix( 1, 0, 0, 1, 358.5,342.6) ">
<g filter="url(#Filter_1)" transform="matrix( 1, 0, 0, 1, -358.5,-342.6) ">
<g transform="matrix( 1, 0, 0, 1, 358.45,343.3) ">
<g transform="matrix( 3.6982421875, 0.4667816162109375, -0.4667816162109375, 3.6982421875, -1115.85,-752.05) ">
<use xlink:href="#Symbol_1_0_Layer0_0_FILL"/>
</g>

<g transform="matrix( 3.5547332763671875, 0.44866943359375, -0.44866943359375, 3.5547332763671875, -1072.5,-722.85) ">
<use xlink:href="#Symbol_1_0_Layer0_1_FILL"/>
</g>
</g>
</g>

<g transform="matrix( 1, 0, 0, 1, 0,0) ">
<use xlink:href="#Symbol_76_2_Layer1_1_MEMBER_0_FILL"/>
</g>

<g transform="matrix( 3.583099365234375, 0, 0, 3.583099365234375, -1120.6,-587.35) ">
<use xlink:href="#Symbol_76_2_Layer1_1_MEMBER_1_MEMBER_0_MEMBER_0_FILL"/>
</g>

<g transform="matrix( 3.583099365234375, 0, 0, 3.583099365234375, -1120.6,-587.35) ">
<use xlink:href="#Symbol_76_2_Layer1_1_MEMBER_1_MEMBER_0_MEMBER_1_FILL"/>
</g>

<g transform="matrix( 1, 0, 0, 1, 0,0) ">
<use xlink:href="#Symbol_76_2_Layer1_1_MEMBER_1_MEMBER_1_FILL"/>
</g>

<g transform="matrix( 3.583099365234375, 0, 0, 3.583099365234375, -1120.6,-587.35) ">
<use xlink:href="#Symbol_76_2_Layer1_1_MEMBER_1_MEMBER_2_MEMBER_0_FILL"/>
</g>
</g>
</svg>
